<?xml version="1.0" encoding="utf-8"?>
<!-- Generator: Adobe Illustrator 23.0.1, SVG Export Plug-In . SVG Version: 6.00 Build 0)  -->
<svg version="1.1" id="圖層_1" xmlns="http://www.w3.org/2000/svg" xmlns:xlink="http://www.w3.org/1999/xlink" x="0px" y="0px"
	 viewBox="0 0 553.3 576.2" style="enable-background:new 0 0 553.3 576.2;" xml:space="preserve">
<style type="text/css">
	.st0{fill:#88CFDA;}
	.st1{fill:#CACAA8;}
	.st2{fill:none;stroke:#FFFFFF;stroke-width:3;stroke-linecap:round;stroke-linejoin:round;}
	.st3{fill:#FFFFFF;}
</style>
<path class="st0" d="M1268.7,1181.4c-6.7,2.6-13.3,5.4-19.7,8.6c-9.1,4.5-17.7,10-25.4,16.4c-7.1,5.7-13.6,11.9-19.5,18.7
	c6.6,7,12.7,14.3,18.3,22.1c4.4,6.2,8.4,12.5,12.2,19.1c2-2.7,4.1-5.4,6.2-8.2c5.8-7.5,12.8-14.1,20.8-19.6c8-5.5,16.9-9.9,26.3-13
	L1268.7,1181.4z M1332,1340.3c-3.6,1.4-7.2,2.8-10.8,4.3c-9.1,3.6-17.6,8.3-25.4,13.8l24.1,44.3l5.8-4.9c3.4-2.9,7.2-5.4,11.2-7.6
	c4-2.2,8.2-4.1,12.5-5.6L1332,1340.3z M674.5,421.4l16.5,34.1c4.3-4.2,9.1-7.9,14.2-11.2c8-5.1,16.9-8.9,26.3-11.1
	c9.5-2.2,19.3-2.9,29-1.9c9.8,0.9,19.1,4.6,26.7,10.4c7.6,5.8,13.6,13.2,17.5,21.6c0.5-3.7,0.8-7.5,0.8-11.3
	c0-9.4-1.3-18.7-3.7-27.8c-2.5-9.2-6.2-18.2-11-26.6c-7.5-5.8-16.2-10.2-25.6-12.8c-9.4-2.6-19.3-2.8-28.8-0.7
	c-9.1,2-17.8,5.3-25.8,9.8c-8.2,4.6-15.9,9.8-23.1,15.6C682.9,413.4,678.6,417.2,674.5,421.4L674.5,421.4z M890.3,618
	c-7.3,6-14.7,11.8-22.2,17.3c-8.1,5.9-16.3,11.6-24.8,17.1c-7.3,4.8-14.7,9.4-22.1,13.8c-8.5,5.2-17.6,9.6-26.9,13.4
	c-9.3,3.6-18.8,6.5-28.5,8.9c-18.4,4.5-37.2,6.7-56.2,6.8c9.7,2.5,18.8,6.6,26.8,12.3c7.9,5.5,14.5,12.4,19.5,20.3
	c2.1,3.2,3.9,6.5,5.5,10c7.2-0.6,14.3-1.7,21.3-3.3c8.5-1.9,16.8-4.5,24.8-7.8c9.3-3.9,18.2-8.3,26.8-13.4l23.4-13.9
	c7.8-4.7,15.6-9.4,23.3-14.3c7.7-4.9,15.1-9.8,22.1-14.9c7.1-5.1,14-10.5,20.7-16c6.7-5.5,13.1-11.4,19.3-17.5
	c-4.9,4-10.4,7.2-16.5,9.4c-7.7,3-16.2,3.3-24.1,0.8c-3.4-1.1-6.6-2.8-9.4-5c0.2-4.7,1-9.3,2.2-13.8c2.3-8.9,6-17.4,11.2-25.1
	c-5,5.3-10.4,10.3-16.1,14.9L890.3,618z M712.4,575.4c-9-3.9-18.6-6.6-28.4-8.2c-9.4-1.6-18.9-2.3-28.4-2.1
	c-9.5,0.2-18.9,1.3-28.2,3.1c-9.4,1.9-18.6,4.7-27.5,8.3c-8.7,3.5-16.9,7.8-24.7,12.9c-7.8,5.2-15.1,11-21.8,17.4
	c-3.4,9-5.4,18.4-5.8,28c-0.4,9.3,0.8,18.7,3.7,27.6c1.1,3.5,2.5,7,4.1,10.4c6-7.8,12.6-15.1,19.7-22c7.2-6.9,15-13.1,23.4-18.7
	c7.5-5.1,15.7-9.3,24.3-12.6c8.8-3.4,18.1-5.6,27.6-6.6c7.2-0.7,14.4-0.8,21.6-0.2l3.3-1.2c9.6-3.2,19-7,28-11.4
	c9.2-4.4,18-9.5,26.3-15.2c-5.5-3.6-11.4-6.8-17.5-9.4L712.4,575.4z M769.7,770.5h-8.2c-2.5,8.3-5.9,16.3-10.2,24
	c-4.7,8.4-10.2,16.3-16.4,23.7c-1.5,1.8-3,3.6-4.4,5.4c4.5-1.3,9.1-2.4,13.7-3.2c9.6-1.6,19.2-3,28.8-4.2c9-1.2,18-2.6,27.1-4.1
	c8.4-1.5,16.9-2.6,25.4-3.3c9.1-0.8,18.2-1,27.3-0.5c9.1,0.7,18.1,1.9,27,3.7l24.6-1.5C891,797,874.1,786.8,855.1,781
	c-8.9-2.7-18-4.7-27.3-6.1c-9.8-1.6-19.6-2.7-29.5-3.5c-9.5-0.7-19.1-1-28.7-1L769.7,770.5z M935.3,816.8c-4.8,7.4-8.8,15.3-12,23.5
	c-3.1,8.2-5.3,16.7-6.4,25.3c-2.5,18.2-1.4,36.7,3.3,54.5c2.1,8.3,5,16.5,8.5,24.4l46.7-21.8l-0.3-3.1c-0.9-9.3-1-18.7-0.4-28
	c0.6-9.2,1.9-18.4,3.8-27.5c1.9-8.9,4-17.6,6.6-26.3c2.5-8.7,5.4-17.3,8.8-25.8c3.3-8.6,7.4-17,12.3-24.9c4.7-7.7,10.4-14.8,17-21.2
	c6.6-6.4,13.9-12.1,21.9-17l-10.1-0.7c-10-0.4-20.1,0.2-30,1.8l-2.8,1.6c-5.7,7.3-12.1,14-19.2,20c-7.1,6.1-14.8,11.5-23,16.2
	l-3.3,1.9l-3.6,4.1C946.5,801.1,940.6,808.8,935.3,816.8L935.3,816.8z M1093.2,895c-6.7,6-12.8,12.5-18.5,19.3
	c-5.8,6.9-11,14.1-15.7,21.7c7,7.1,12.7,15.2,16.8,24c3.7,7.9,6.2,16.3,7.3,24.8c2.9-4.8,5.7-9.6,8.4-14.5
	c4.2-7.5,8.9-14.6,14.1-21.5c5.7-7.6,12.7-14.3,20.7-19.9c7.3-5.1,15.4-9.3,24-12.3c-5.1-6-9.6-12.5-13.4-19.2
	c-4.4-7.6-8-15.7-10.7-24c-3.3,1.3-6.6,2.8-9.7,4.5C1108.1,882.8,1100.2,888.5,1093.2,895L1093.2,895z M607.5,262.5l-0.7,0.2
	c-4.8,6.8-9.3,13.8-13.4,20.8c-4.8,8.3-9.1,16.9-12.9,25.6c-3.4,7.9-6.2,15.9-8.2,24.2c-2.3,9.1-3.5,18.4-3.4,27.8
	c0.1,9.5,1.3,18.9,3.6,28.1c8.6-5.3,18.4-8.5,28.7-9.5c4.9-0.5,9.9-0.5,14.8,0c-0.5-1.5-0.9-2.9-1.3-4.4c-2.8-9.2-3.9-18.8-3.4-28.4
	c0.6-9.6,2.8-19.1,6.6-28c3.6-8.5,8.2-16.6,13.6-24.3c5.3-7.3,11.3-14.2,17.9-20.6c6.7-6.4,14.1-12.2,21.9-17.4l-22.7-0.8
	L607.5,262.5z M481.1,339.4c-2.7,3-5.7,5.9-8.8,8.7c-7.2,6.4-15.7,11.4-25,14.5c-9.3,3.2-19.1,4.5-29,3.7l-6.4,41.8
	c-0.2,2-0.4,4.2-0.7,6.4c-0.8,8.2-1.2,16.3-1.1,24.5c0.1,8.9,1.1,17.8,3,26.6c1.9,8.8,4.7,17.4,8.2,25.8l-0.8-12.3l0.8,12.3
	l0.7,11.3c1.5,9.5,5.3,18.6,11,26.6c5,7.1,11.8,13,19.8,17.1c8.8,4.6,18.5,7.6,28.5,8.8c10,1.3,20.2,0.4,29.8-2.5
	c4.6-1.4,9.1-3.3,13.3-5.6c-4.7-4-9.4-8.1-14-12.3c-6.9-6.3-13.1-13.1-18.7-20.4c-5.6-7.2-10.5-15-14.5-23c-4.2-8-7.6-16.4-10.1-25
	c-2.5-8.3-4.3-16.9-5.1-25.5c-0.8-8.6-0.8-17.3,0-26c0.8-8.7,2.1-17.3,4-25.8c1.8-8.4,4-16.7,6.6-25
	C475.1,355.7,477.9,347.5,481.1,339.4L481.1,339.4z M342.2,239.5l0.3-0.9c-7-5.2-14.5-9.7-22.5-13.4c-8.5-3.9-17.6-6.8-26.9-8.6
	c-9.5-2-19.2-2.8-28.9-2.6c-9.6,0.2-19.2,1.3-28.7,3.1c-9.3,1.8-18.5,4.4-27.3,7.9c-8.8,3.5-17.4,7.6-25.5,12.3
	c-7.8,4.6-15.4,9.6-22.7,14.9c-7.2,5.4-14.1,11.2-20.7,17.3c-6.6,6.2-12.6,12.8-18.2,19.8c-5.4,7-10.3,14.4-14.4,22.1
	c-4.2,7.7-7.7,15.8-10.5,24l27.6,6.7l10.6,1.7c2.5-4.3,5.1-8.5,7.6-12.8c8.4-13.9,19.7-26.1,33.3-35.8c7.5-5.3,15.6-9.9,24.1-13.6
	c8.5-3.7,17.3-6.6,26.4-8.8c9.1-2.1,18.3-3.4,27.6-3.9c9.6-0.5,19.3-0.1,28.8,1.2c10.1,1.3,19.9,3.9,29.3,7.7
	c9.5,3.9,18.4,8.8,26.5,14.7v-0.3v-0.6v-0.3c-1-8.1-1.2-16.4-0.7-24.5c0.6-9.2,2.3-18.3,5.1-27.2L342.2,239.5z M399.4,362.7
	c-6.6-2.2-12.9-5-18.8-8.6c-8.6-5.1-16.2-11.5-22.4-19.1l-2.7,1.6l-4.8,2.2c-9,4.2-17.4,9.5-25,15.6c-7.5,6-14.1,12.8-19.7,20.4
	c-5.7,7.8-10.4,16.2-13.8,25c9.4,1.5,18.8,3.5,27.9,6.1c7.3,2.1,14.5,4.5,21.4,7.4c3.6-5,7.4-9.8,11.6-14.3
	c6.2-6.9,13-13.2,20.3-19.1L399.4,362.7z M289.7,51.9c-1.9-0.7-3.7-1.3-5.6-1.8c-19-6.1-39.3-7.7-59.2-4.5c-9,1.4-17.7,3.9-26,7.3
	c-8.5,3.5-16.6,7.9-24.1,13c-0.7,0.7-1.4,1.4-2.1,2c-6.8,6.8-14.7,12.4-23.5,16.7c-8.8,4.3-18,7.6-27.6,9.8
	c-9.6,2.3-19.3,4.2-29.1,5.8c-9.7,1.6-18.9,4.9-27.2,9.8c-8.4,4.9-15.8,11.2-21.7,18.6c-5.8,7.1-11,14.6-15.8,22.4
	c-4.6,7.6-9.1,15.5-13.3,23.5c-4.2,8-8.1,16-11.8,24.1L2,209.4v0.1v10.8L17.7,272l0.2,0.4c2-8.2,4.3-16.3,7-24.2
	c2.9-8.7,6.2-17.4,9.8-25.9c3.8-8.9,7.9-17.7,12.4-26.3c4.4-8.5,9.2-16.8,14.6-24.9c5.3-8.1,12.7-14.9,21.6-19.6
	c7.9-4.3,16.6-7,25.7-8c9.6-1.1,19.2-1.7,28.9-2c10.2-0.2,20.1-3.9,27.7-10.2c7.1-5.8,14.6-11.3,22.3-16.6
	c7.7-5.2,15.8-9.9,24.2-13.9c6.3-3.1,12.7-5.8,19.3-8.3c5-4,10.4-7.6,16.2-10.7c8.8-4.8,18.4-7.9,28.5-9.2c9.6-1.2,19.4-1.1,29,0.5
	l-1.6-2.8c-3.9-6.6-8.5-12.8-13.8-18.4L289.7,51.9z M134.3,343.7l-10.6-1.7c-0.4,8.8-0.1,17.6,1.1,26.4c0.3,2.2,0.6,4.3,0.9,6.5v0.2
	c0.3-1.6,0.6-3.3,0.9-4.8C128.3,361.2,130.8,352.3,134.3,343.7L134.3,343.7z M125.9,375.3v-0.2V375.3z M1218.1,1045.4
	c-9.5-0.2-18.9,0.8-28.2,2.8c-9.1,2.1-18,5-26.5,8.8c-9.1,4.1-17.7,9.1-25.5,15c-8,6-15.3,12.8-21.9,20.1
	c-6,6.7-11.5,13.7-16.4,21.2c-4.9,7.5-9.2,15.3-13,23.4c4.5,8.6,10.6,16.3,17.9,23c6.5,5.9,14,10.9,22.1,14.7
	c0.9-2.9,1.9-5.8,2.9-8.8c2.6-7.9,6.1-15.5,10.3-22.7c4.9-8.3,10.7-16.1,17.5-23.2c6.3-6.5,13.4-12.2,21.3-16.9c8.2-5,17.5-8,27.3-9
	c10-1,20.1,0,29.6,2.9l6.7-10.6l3.8-6.6c4.7-8.2,8-16.9,10-26c-2.7-1.1-5.4-2-8.3-3c-9.5-3-19.5-4.7-29.5-5.1V1045.4z
	 M1244.4,1101.7v-0.4l-2.2-15.1l-6.8,10.6L1244.4,1101.7z"/>
<path class="st1" d="M1396.8,1505v-0.2l-47.6-120.4c-4.3,1.5-8.5,3.4-12.5,5.6c-4,2.2-7.7,4.7-11.2,7.6l-5.8,4.9l60.1,109.9l7,13.5
	l0.4,0.8c2.5,4.3,4.8,8.8,7.1,13.4c2.3,4.6,4.5,8.9,6.6,13.1c2.1,4.2,4.4,8.2,6.3,11.9c2,3.8,3.8,7.7,5.3,11.7
	c0.9,3.1,2.9,5.8,5.6,7.8c0.4,0.3,1,0.4,1.5,0.5c1.2,0,2.3-0.3,3.2-1c0.9-0.7,1.6-1.6,1.9-2.6c0.3-0.7,0.3-1.4,0.2-2.1
	c-0.7-4.9-2-9.7-4.1-14.3c-2-4.5-4-9-5.9-13.6c-1.9-4.6-3.7-9.2-5.5-13.9c-1-2.6-2-5.2-3-7.8l-0.2-0.5L1396.8,1505z M674.5,421.4
	l-0.2-0.2L674.5,421.4z M731.5,433.3c-9.4,2.2-18.3,6-26.3,11.1c-5.1,3.3-9.9,7-14.2,11.2c3.6,8.8,5.4,18,5.5,27.4
	c0,7.6-1.2,15.2-3.6,22.5c-14,2-27.7,5.4-40.9,10.1c-11.9,4.1-23.4,9.4-34.3,15.6c-5.8,3.3-11.4,7-16.7,10.8
	c-5.5,3.9-10.6,8.2-15.3,12.9c-4.9,4.8-9.3,10-13.1,15.5c-7,9.9-12.8,20.6-17.1,31.7l-1.8,4.7c6.7-6.4,13.9-12.3,21.8-17.4
	c7.7-5.1,16-9.4,24.7-12.9c8.9-3.6,18.1-6.4,27.5-8.3c9.3-1.8,18.7-2.9,28.2-3.1c9.4-0.2,18.8,0.5,28.1,2c9.8,1.6,19.3,4.3,28.4,8.2
	c6.1,2.6,12,5.8,17.5,9.4c4.8-2.8,9.4-5.8,13.7-9.2c7.9-6.2,14.9-13.4,20.9-21.2l10.3-14.7c5.7-7.9,10.7-16.3,14.8-25.1
	c3.8-8.1,7.1-16.5,9.7-25c2.6-8.6,4.5-17.4,5.7-26.2c-3.9-8.4-9.9-15.8-17.5-21.6c-7.6-5.9-16.9-9.5-26.7-10.4
	c-9.7-1-19.6-0.3-29,1.9L731.5,433.3z M744.1,820.2c-4.6,0.8-9.2,1.9-13.7,3.2c-5.7,8-9.7,16.9-11.9,26.3c-2,8.5-2,17.3-0.1,25.8
	c2.1,9.3,5.5,18.2,10.3,26.6c4.7,8.3,10.3,16.2,16.6,23.5c6.3,7.3,13.3,14,21,20c7.5,5.9,15.9,10.8,24.9,14.5
	c9.2,3.9,19,6.2,29.1,7.1c10.1,0.9,20.3,0.6,30.4-0.7c9.3-1.4,18.6-3,27.8-5.1c9.1-2.1,18.1-4.6,26.9-7.6c8-2.7,15.8-5.9,23.4-9.3
	c-3.5-7.9-6.4-16-8.5-24.4c-4.6-17.8-5.7-36.2-3.2-54.3c1.1-8.6,3.3-17.1,6.4-25.2c3.1-8.2,7.1-16.1,12-23.5
	c5.3-8.1,11.3-15.9,17.8-23.2l3.6-4.1c-8.3,5.4-17.2,10-26.5,13.7c-8.3,3.2-16.9,5.6-25.8,7.3l-24.6,1.5c-8.9-1.8-17.9-3.1-27-3.7
	c-9.2-0.6-18.4-0.5-27.5,0.3c-8.5,0.7-17,1.8-25.4,3.3c-9.1,1.6-18.1,2.9-27.1,4.1C763.3,817.3,753.7,818.8,744.1,820.2L744.1,820.2
	z M1003.3,750.4l-1,1.2l2.8-1.6h-0.2L1003.3,750.4z M1005,750h-0.2H1005z M637.1,257.2c-10,1.1-19.9,2.9-29.6,5.3l41-6.6
	L637.1,257.2L637.1,257.2z M366.3,161.6c0.3-9.4-0.9-18.7-3.5-27.7c-2.6-9.1-6.5-17.8-11.7-25.9c-5-7.8-11.3-14.8-18.8-20.7
	c-7-5.6-15-10-23.6-13.1l-3.5-1.1c-9.6-1.6-19.4-1.7-29-0.5c-10,1.3-19.7,4.5-28.5,9.2c-5.7,3.1-11.1,6.7-16.2,10.7
	c-6.6,2.5-13,5.2-19.3,8.3c-8.4,4.1-16.5,8.7-24.2,13.9c-7.7,5.3-15.2,10.8-22.3,16.6c-7.6,6.4-17.5,10-27.7,10.2
	c-9.7,0.3-19.3,0.9-28.9,2c-9.1,1-17.8,3.7-25.7,8c-8.8,4.7-16.3,11.5-21.6,19.6c-5.3,8-10.2,16.3-14.6,24.9
	c-4.4,8.7-8.5,17.4-12.4,26.3c-3.6,8.5-6.9,17.2-9.8,25.9c-2.7,8-5,16.1-7,24.2c4.6,7.6,9.8,14.8,15.7,21.5
	c5.8,6.6,12.3,12.8,19.4,18.3c7.7,6.1,16.2,11.5,25.1,16c5.8,2.9,11.8,5.3,18,7.2c2.8-8.2,6.3-16.3,10.4-24
	c4.1-7.7,8.9-15,14.3-21.9c5.5-7,11.6-13.6,18.2-19.8c6.6-6.1,13.5-11.9,20.7-17.3c7.2-5.4,14.8-10.4,22.7-14.9
	c8.1-4.7,16.7-8.8,25.5-12.3c8.8-3.5,18-6.2,27.3-8c9.5-1.9,19.1-2.9,28.7-3.1c9.7-0.2,19.4,0.6,28.9,2.6c9.3,1.7,18.4,4.6,27,8.6
	c8,3.7,15.6,8.2,22.5,13.4l0.3-1c9.5-15.4,16.3-32.1,20.2-49.6C365,179.4,366.1,170.5,366.3,161.6L366.3,161.6z M2.1,220.5
	c1.4,18,6.8,35.6,15.7,51.7L2.1,220.5z M125.9,375.3v0.2V375.3z"/>
<path class="st1" d="M177.2,2.8c-9.3-0.9-18.6-1-27.9-0.3c-9.5,0.7-19,2.2-28.2,4.6c-19.6,5-37.2,15.1-50.9,29.1
	c-6.2,6.2-11.4,13.2-15.4,20.7c-4.6,8.3-7.1,17.5-7.4,26.8c-0.3,9,1.1,18,4.2,26.6c5.8-6,12-11.7,18.4-17.1
	c7.5-6.3,15.4-12.2,23.7-17.5c7.6-4.9,15.7-9.1,24.3-12.5c9-3.4,18.8-4.8,28.5-4.2c10,0.4,19.7,2.8,28.6,7c7.5-5.1,15.6-9.5,24.1-13
	c8.3-3.4,17-5.9,26-7.3c19.8-3.2,40.2-1.6,59.2,4.5c1.9,0.5,3.8,1.1,5.6,1.8c-2.8-2.9-5.8-5.5-8.9-8c-7.4-6-15.5-11.2-23.9-15.8
	c-8.1-4.4-16.6-8.3-25.2-11.7c-8.7-3.4-17.6-6.3-26.7-8.6C195.9,5.4,186.6,3.7,177.2,2.8L177.2,2.8z M1119.6,823.8
	c-2.3-8.2-5.4-16.1-9.3-23.7c-4.2-8.2-9.4-15.9-15.7-22.9c-6.4-7.3-14.2-13.4-22.9-18.1c-8.3-4.6-17.2-8-26.5-10.2
	c-8,4.8-15.3,10.5-21.9,17c-6.5,6.4-12.3,13.5-17,21.2c-4.9,8-9,16.3-12.3,24.9c-3.2,8.5-6.2,17.1-8.8,25.8
	c-2.6,8.7-4.8,17.5-6.6,26.3c-1.9,9.1-3.2,18.3-3.8,27.5c-0.6,9.3-0.5,18.7,0.4,28c0,1,0.2,2,0.3,3.1c9-3.7,18.7-5.8,28.5-6.3
	c10-0.6,20.1,0.9,29.4,4.4c9.5,3.5,18.3,8.7,25.7,15.3c4.6-7.5,9.8-14.8,15.5-21.6c5.7-6.9,11.8-13.3,18.5-19.3
	c7-6.4,14.9-12.1,23.3-16.8c3.1-1.8,6.4-3.3,9.7-4.5c-1.8-7.5-2.7-15.1-2.8-22.8C1123.3,841.7,1121.9,832.6,1119.6,823.8
	L1119.6,823.8z M117.8,63.1c-8.5,3.3-16.7,7.5-24.3,12.5C85.2,81,77.3,86.8,69.8,93.1c-6.4,5.5-12.6,11.2-18.4,17.1
	c-6.7,6-12.9,12.6-18.4,19.5c-5.5,6.9-10.3,14.2-14.3,21.9c-4,7.6-7.4,15.5-10,23.6c-2.5,7.7-4.4,15.5-5.8,23.4
	c3.7-8.2,7.6-16.2,11.8-24.1c4.2-7.9,8.6-15.7,13.3-23.5c4.7-7.8,10-15.2,15.7-22.3c6-7.4,13.3-13.7,21.7-18.6
	c8.3-4.8,17.6-8.2,27.3-9.8c9.7-1.6,19.4-3.5,29.1-5.8c9.6-2.2,18.9-5.5,27.6-9.8c8.8-4.3,16.7-9.9,23.5-16.7c0.7-0.7,1.4-1.4,2.1-2
	c-8.9-4.2-18.7-6.6-28.6-7C136.5,58.3,126.8,59.8,117.8,63.1"/>
<path class="st1" d="M1150.3,916.8c-8.6,3-16.6,7.1-23.9,12.3c-8,5.6-15,12.3-20.7,19.9c-5.2,6.9-9.9,14.1-14.1,21.5
	c-2.7,4.9-5.5,9.7-8.4,14.5c1.7,9,2.1,18.1,1.1,27.2c-0.1,1.3-0.3,2.5-0.4,3.8c-2,8.2-4.2,16.5-6.4,24.8c-2.3,8.4-3.8,16.9-4.4,25.6
	c-0.6,8.8-0.5,17.6,0.5,26.3c1.7,15.3,6.1,30.1,13.1,44c3.7-8.1,8.1-15.9,13-23.4c4.9-7.4,10.4-14.5,16.4-21.2
	c6.6-7.3,14-14.1,21.9-20.1c7.8-5.9,16.4-11,25.5-15c8.5-3.8,17.3-6.7,26.5-8.8c9.2-2,18.7-3,28.2-2.8c10.1,0.3,20,2,29.5,5
	c2.8,0.9,5.6,1.9,8.3,3c0.4-1.4,0.8-2.9,1.1-4.3c2.3-8.8,3.4-17.9,3.3-26.9c-0.2-19-6.2-37.5-17.3-53.5c-5-7.1-11.4-13.3-18.8-18.2
	c-0.6-0.4-1.3-0.7-2-0.9c-7.6-1.4-15.1-2.7-22.7-3.9c-10-1.9-19.5-5.5-28-10.8C1163.6,930,1156.4,923.9,1150.3,916.8L1150.3,916.8z
	 M339.9,298.7c-0.6-2-1.2-4.1-1.7-6.1c-8.1-5.9-17.1-10.9-26.5-14.7c-9.3-3.8-19.2-6.4-29.3-7.7c-9.5-1.3-19.2-1.7-28.8-1.2
	c-9.3,0.5-18.6,1.8-27.6,3.9c-9.1,2.1-17.9,5.1-26.4,8.8c-8.5,3.7-16.6,8.3-24.1,13.6c-13.6,9.7-24.9,21.9-33.3,35.8
	c-2.6,4.3-5.1,8.5-7.6,12.8c-3.4,8.6-6,17.5-7.6,26.6c-0.3,1.6-0.6,3.2-0.9,4.8v0.2c4.5,8.7,11.3,16.2,19.7,21.9
	c8,5.6,17.5,9,27.4,10c9.9,1.1,20,1,29.9-0.2c9.4-1.1,18.8-2.6,28-4.2c9.3-1.8,18.8-3,28.3-3.4c9.6-0.5,19.1-0.5,28.7,0.1l4.1,0.3
	c3.5-8.8,8.1-17.2,13.8-24.9c5.6-7.6,12.2-14.5,19.7-20.4c7.6-6.1,16-11.3,25-15.6c1.6-0.7,3.2-1.5,4.8-2.2l2.7-1.6l-7.4-9.9
	c-4.6-8.4-8.3-17.2-10.8-26.3"/>
<path class="st2" d="M125.9,375.1v0.2v0.2 M123.7,342.2l10.6,1.7 M1004.8,750h0.2 M1003.2,750.5l-1.1,1.2 M1002.2,751.7
	c-5.6,7.2-12,13.9-19.1,20 M1002.2,751.7l-19.1,20 M983,771.6c-7.1,6.1-14.8,11.5-23,16.2 M983,771.6l-23,16.2 M960,787.8l-3.3,1.9
	 M956.8,789.7c-8.3,5.4-17.2,10-26.5,13.7c-8.3,3.2-16.9,5.6-25.8,7.3l-24.5,1.5L956.8,789.7z M774.5,539.8l-10.3,14.7
	c-6,7.8-13,15-20.9,21.2c-4.3,3.4-8.9,6.4-13.6,9.2c-8.3,5.7-17.1,10.8-26.3,15.2c-9,4.4-18.4,8.2-28,11.4l-3.3,1.2L774.5,539.8z
	 M774.5,539.8c5.8-8,10.7-16.4,14.9-25.2c3.9-8.1,7.1-16.5,9.7-25c2.6-8.6,4.5-17.4,5.7-26.2c0.5-3.7,0.8-7.5,0.8-11.3
	c0-9.4-1.3-18.7-3.7-27.8c-2.5-9.2-6.2-18.2-11-26.6c-1.3-2.5-2.6-4.9-4.1-7.2c-0.7-1.1-1.5-2-2.5-2.9c-3-2.5-6.3-4.7-9.8-6.5
	c-8.7-4.7-16.7-10.5-23.6-17.3c-4.6-4.5-8.8-9.5-12.3-14.8c3.5-6.4,5.7-13.4,6.6-20.6c1.1-9.3-0.4-18.8-4.4-27.4
	c-4-8.5-9.7-16.3-16.7-23c-6.9-6.7-15.3-11.9-24.6-15.4c-9-3.4-18.5-5.5-28.2-6l-22.7-0.8l-11.4,1.3c-10,1.1-19.9,2.9-29.6,5.3
	l-0.7,0.2c-5.2,2-10.4,4.1-15.6,6.1c-8.2,3.1-16.3,6.6-24.1,10.4c-7.8,3.8-15.4,7.8-23.1,12.1c-7.7,4.3-15.2,9-22.5,14.1
	c-7.2,5.1-14.3,10.5-21,16.2c-6.7,5.7-13.2,11.7-19.4,17.9c-2.8,3-5.7,5.9-8.8,8.7c-7.2,6.4-15.7,11.4-25,14.5
	c-9.3,3.2-19.1,4.4-29,3.6l-19.3-3.9c-6.6-2.2-12.9-5-18.8-8.5c-8.5-5-16.1-11.4-22.2-19l-7.4-9.9c-4.7-8.4-8.3-17.2-10.8-26.3
	c-0.6-2-1.2-4.1-1.7-6.1 M774.5,539.8c6.2-7,13.4-13.2,21.5-18.4c8.5-5.4,17.8-9.5,27.7-12.2c9.5-2.6,19.4-3.9,29.3-3.8
	c10,0.1,19.9,2.2,29,6.1c9.2,3.9,17.5,9.6,24.3,16.6c7,7.1,11.9,15.8,14.3,25.3c2.3,9.1,1.5,18.7-2.5,27.3
	c-3.4,7.7-7.3,15.2-11.8,22.3c-5.2,7.8-9,16.2-11.2,25.1c-1.2,4.5-1.9,9.2-2.2,13.8c2.8,2.2,5.9,3.9,9.4,5
	c7.9,2.5,16.4,2.2,24.1-0.8c6-2.2,11.6-5.4,16.5-9.4c9.7-3.3,20-4.4,30.2-3.2c9.8,1,19.2,4.5,27.1,10c8.2,5.6,15.2,12.5,20.8,20.4
	c5.5,7.8,8.8,16.8,9.4,26.2c0.7,9-0.8,18.1-4.2,26.6c-3.5,8.9-8.5,17.2-14.6,24.7c-2.5,3.1-5.3,6.1-8.3,8.8l1.5-0.4h0.3
	c9.9-1.6,19.9-2.2,30-1.8l10.1,0.7c9.3,2.2,18.2,5.6,26.5,10.2c8.7,4.7,16.5,10.9,22.9,18.1c6.2,7,11.5,14.7,15.7,22.9
	c3.9,7.6,7,15.6,9.3,23.7c2.5,8.8,3.8,17.9,3.9,27c0.1,7.7,1,15.3,2.8,22.8c2.7,8.3,6.3,16.4,10.7,24c3.8,6.8,8.3,13.2,13.4,19.2
	c6,7.1,13.1,13.2,21.2,18.1c8.5,5.2,18.1,8.8,28.1,10.6c7.5,1.3,15.1,2.6,22.7,3.9c0.7,0.2,1.4,0.5,2,0.9
	c7.4,4.9,13.8,11.1,18.8,18.3c5.6,8,9.9,16.6,12.8,25.7c2.9,9,4.5,18.3,4.5,27.8c0.1,9.1-1,18.1-3.3,26.9c-0.4,1.4-0.8,2.9-1.1,4.3
	c-2,9.1-5.4,17.8-10,26l-3.7,6.7l2.2,15.1 M674.2,421.2l0.2,0.2 M3,198.6l-0.9,10.9 M2.1,209.7v10.8 M2.1,220.4
	c0.7,9.5,2.6,18.9,5.5,28.1 M2.1,220.4l5.5,28.1 M7.6,248.5c2.6,8.2,6,16.1,10.3,23.6 M7.6,248.5l10.3,23.6 M17.9,272.1l0.2,0.4
	 M18.1,272.5c4.6,7.6,9.8,14.8,15.7,21.5 M18.1,272.5L33.8,294 M33.8,294c5.8,6.7,12.3,12.8,19.4,18.4 M33.8,294l19.4,18.4
	 M53.2,312.4c7.7,6.1,16.2,11.5,25.1,16 M53.2,312.4l25.1,16 M78.3,328.4c5.8,2.9,11.8,5.3,18,7.1 M78.3,328.4l18,7.1 M96.3,335.5
	l27.6,6.7 M123.9,342.2c-0.4,8.8,0,17.7,1.1,26.4 M123.9,342.2l1.1,26.4 M125,368.6c0.3,2,0.6,4.3,0.9,6.5 M125,368.6l0.9,6.5
	 M125.9,375.1v0.3v0.2 M125.9,375.5c4.6,8.7,11.4,16.2,19.8,21.9 M125.9,375.5l19.8,21.9 M145.6,397.4c8,5.6,17.5,9,27.4,9.9
	 M145.6,397.4l27.4,9.9 M173,407.4c9.9,1.1,20,1,29.9-0.2 M173,407.4l29.9-0.2 M202.9,407.1c9.4-1.1,18.7-2.5,28-4.2 M202.9,407.1
	l28-4.2 M230.9,402.9c9.3-1.8,18.8-2.9,28.3-3.4 M230.9,402.9l28.3-3.4 M259.3,399.5c9.5-0.6,19.1-0.6,28.7,0 M259.3,399.5h28.7
	 M287.9,399.5l4.1,0.3 M292,399.7c9.4,1.5,18.8,3.5,27.9,6.1 M292,399.7l27.9,6.1 M319.9,405.9c7.3,2.1,14.4,4.6,21.4,7.4
	 M319.9,405.9l21.4,7.4 M341.4,413.3c8.7,3.9,17.1,8.6,24.8,14.1 M341.4,413.3l24.8,14.1 M366.2,427.3c7.7,5.3,14.7,11.3,21,18.1
	 M366.2,427.3l21,18.1 M387.2,445.4c6.4,6.8,12.2,14.2,17.2,22.1 M387.2,445.4l17.2,22.1 M404.4,467.5c4.9,7.7,9.3,15.7,13.1,24
	 M404.4,467.5l13.1,24 M417.5,491.4c1.7,3.7,3.3,7.4,4.7,11.2 M417.5,491.4l4.7,11.2 M422.2,502.6c1.5,9.5,5.3,18.6,11,26.6
	 M422.2,502.6l11,26.6 M433.2,529.2c5,7.1,11.8,13,19.9,17.1 M433.2,529.2l19.9,17.1 M453,546.3c8.8,4.6,18.5,7.6,28.5,8.8
	 M453,546.3l28.5,8.8 M481.5,555.1c10,1.3,20.2,0.4,29.8-2.5 M481.5,555.1l29.8-2.5 M511.3,552.6c4.6-1.4,9.1-3.3,13.3-5.6
	 M511.3,552.6l13.3-5.6 M524.6,547c9-4.8,17-11,23.7-18.4 M524.6,547l23.7-18.4 M548.2,528.6c6.5-7.2,11.5-15.4,14.9-24.3
	 M548.2,528.6l14.9-24.3 M563.1,504.3c3.3-8.5,5.5-17.4,6.6-26.3 M563.1,504.3l6.6-26.3 M569.7,478c1.1-8.8,1.3-17.7,0.6-26.6
	 M569.7,478l0.6-26.6 M570.3,451.4c-0.6-9-2.3-17.8-5-26.4 M570.3,451.4l-5-26.4 M565.3,424.9c-2.9-8.9-2.4-18.5,1.4-27.2
	 M565.3,424.9l1.4-27.2 M566.8,397.8c1.4-3.1,3.3-6,5.7-8.6 M566.8,397.8l5.7-8.6 M572.4,389.2c8.6-5.2,18.4-8.5,28.7-9.5
	 M572.4,389.2l28.7-9.5 M601.1,379.7c4.9-0.6,9.9-0.6,14.8,0 M601.1,379.7h14.8 M615.9,379.7c9.9,2.8,19.2,6.8,27.8,12.1
	 M615.9,379.7l27.8,12.1 M643.6,391.8c8.1,5,15.4,11.1,21.7,18.1 M643.6,391.8l21.7,18.1 M665.3,409.9c3.2,3.5,6.1,7.3,8.8,11.2
	 M665.3,409.9l8.8,11.2 M674.1,421.1l0.2,0.2l16.5,34.1 M690.8,455.5c3.6,8.7,5.4,18,5.5,27.4 M690.8,455.5l5.5,27.4 M696.3,482.8
	c0.1,7.6-1.2,15.2-3.6,22.5 M696.3,482.8l-3.6,22.5 M692.7,505.3c-13.9,2.1-27.6,5.4-40.8,10.1 M692.7,505.3l-40.8,10.1
	 M651.8,515.4c-11.9,4.1-23.4,9.3-34.3,15.6 M651.8,515.4L617.5,531 M617.5,531c-5.8,3.3-11.4,6.9-16.8,10.8 M617.5,531l-16.8,10.8
	 M600.8,541.8c-5.5,3.9-10.6,8.2-15.3,12.9 M600.8,541.8l-15.3,12.9 M585.4,554.7c-4.9,4.8-9.3,10-13.1,15.5 M585.4,554.7
	l-13.1,15.5 M572.3,570.2c-7,10-12.7,20.6-16.9,31.9 M572.3,570.2l-16.9,31.9 M555.4,602.1c-0.6,1.6-1.2,3.1-1.8,4.7 M555.4,602.1
	l-1.8,4.7 M553.5,606.8c-3.4,9-5.4,18.4-5.8,28 M553.5,606.8l-5.8,28 M547.7,634.7c-0.4,9.3,0.8,18.7,3.7,27.6 M547.7,634.7
	l3.7,27.6 M551.4,662.4c1.1,3.5,2.4,7,4.1,10.4 M551.4,662.4l4.1,10.4 M555.5,672.7c4.6,8.6,10.8,16.3,18.3,22.8 M555.5,672.7
	l18.3,22.8 M573.8,695.5c7.2,6.3,15.6,11.2,24.8,14.5 M573.8,695.5l24.8,14.5 M598.7,710c9.6,3.5,19.7,5.4,30,5.7 M598.7,710l30,5.7
	 M628.7,715.7c10.3,0.3,20.5-1.5,29.8-5.4 M628.7,715.7l29.8-5.4 M658.5,710.3c8.9-3.6,17-8.7,23.9-15 M658.5,710.3l23.9-15
	 M682.4,695.3l2.6-2.4l24.4,2.3 M709.4,695.2c9.7,2.5,18.8,6.7,26.8,12.3 M709.4,695.2l26.8,12.3 M736.2,707.5
	c7.9,5.5,14.5,12.5,19.5,20.4 M736.2,707.5l19.5,20.4 M755.7,727.9c2.1,3.2,3.9,6.6,5.6,10 M755.7,727.9l5.6,10 M761.3,738
	c3.3,9,3.8,18.7,1.5,27.9 M761.3,738l1.5,27.9 M762.8,765.9l-1.2,4.6 M761.6,770.5c-2.5,8.3-5.9,16.3-10.2,23.9 M761.6,770.5
	l-10.2,23.9 M751.4,794.5c-4.7,8.4-10.2,16.3-16.5,23.8 M751.4,794.5L735,818.2 M735,818.2c-1.5,1.8-3,3.5-4.4,5.4 M735,818.2
	l-4.4,5.4 M730.6,823.6c-5.7,8-9.8,16.9-11.9,26.3 M730.6,823.6l-11.9,26.3 M718.7,849.9c-2,8.5-2,17.3-0.1,25.8 M718.7,849.9
	l-0.1,25.8 M718.6,875.7c2.1,9.3,5.5,18.2,10.3,26.6 M718.6,875.7l10.3,26.6 M728.9,902.3c4.7,8.3,10.3,16.2,16.6,23.5 M728.9,902.3
	l16.6,23.5 M745.5,925.8c6.3,7.3,13.3,14,21,20.1 M745.5,925.8l21,20.1 M766.5,945.8c7.5,5.9,15.9,10.8,24.9,14.5 M766.5,945.8
	l24.9,14.5 M791.4,960.3c9.2,3.9,19,6.3,29.1,7.1 M791.4,960.3l29.1,7.1 M820.4,967.4c10.1,0.9,20.3,0.6,30.4-0.8 M820.4,967.4
	l30.4-0.8 M850.8,966.6c9.3-1.3,18.6-3,27.8-5 M850.8,966.6l27.8-5 M878.6,961.6c9.1-2.1,18.1-4.7,26.9-7.7 M878.6,961.6l26.9-7.7
	 M905.5,953.9c8-2.7,15.8-5.8,23.4-9.3 M905.5,953.9l23.4-9.3 M928.9,944.6l46.7-21.8 M975.6,922.8c9-3.7,18.7-5.8,28.5-6.3
	 M975.6,922.8l28.5-6.3 M1004.1,916.5c10-0.6,20.1,0.9,29.4,4.4 M1004.1,916.5l29.4,4.4 M1033.5,920.8c9.5,3.5,18.3,8.7,25.7,15.3
	 M1033.5,920.8l25.7,15.3 M1059.2,936.1c7,7.1,12.7,15.2,16.8,24 M1059.2,936.1l16.8,24 M1076,960.1c3.7,7.9,6.2,16.3,7.3,24.8
	 M1076,960.1l7.3,24.8 M1083.3,984.9c1.7,9,2.1,18.1,1.1,27.2 M1083.3,984.9l1.1,27.2 M1084.4,1012.1c-0.1,1.3-0.3,2.5-0.4,3.8
	 M1084.4,1012.1l-0.4,3.8 M1084.1,1016c-2,8.2-4.2,16.4-6.4,24.8 M1084.1,1016l-6.4,24.8 M1077.7,1040.7c-2.3,8.4-3.8,17-4.4,25.6
	 M1077.7,1040.7l-4.4,25.6 M1073.3,1066.3c-0.6,8.8-0.5,17.6,0.5,26.4 M1073.3,1066.3l0.5,26.4 M1073.8,1092.7
	c0.9,8.9,2.9,17.8,5.7,26.4 M1073.8,1092.7l5.7,26.4 M1079.5,1119c2,6,4.4,11.9,7.3,17.7 M1079.5,1119l7.3,17.7 M1086.8,1136.7
	c4.5,8.5,10.6,16.3,17.9,22.9 M1086.8,1136.7l17.9,22.9 M1104.7,1159.6c6.5,5.9,14,10.9,22.1,14.8 M1104.7,1159.6l22.1,14.8
	 M1126.8,1174.4c9.8,2.9,19.2,6.7,28.2,11.4 M1126.8,1174.4l28.2,11.4 M1155,1185.8c7.9,4.1,15.4,8.9,22.3,14.4 M1155,1185.8
	l22.3,14.4 M1177.3,1200.2c6.7,5.2,13,10.9,18.9,16.8 M1177.3,1200.2l18.9,16.8 M1196.3,1217c2.7,2.7,5.3,5.3,8.1,8 M1196.3,1217
	l8.1,8 M1204.3,1225c6.6,6.9,12.8,14.3,18.3,22.1 M1204.3,1225l18.3,22.1 M1222.6,1247.1c4.4,6.2,8.4,12.5,12.2,19.1 M1222.6,1247.1
	l12.2,19.1 M1234.8,1266.2c3.3,4.9,6.6,9.8,9.9,14.6 M1234.8,1266.2l9.9,14.6 M1244.7,1280.8c5,7.3,10,14.6,15,22 M1244.7,1280.8
	l15,22 M1259.7,1302.7c4.4,6.1,8.8,12.4,13,18.6 M1259.7,1302.7l13,18.6 M1272.7,1321.3c5,7.2,9.9,14.6,14.4,22 M1272.7,1321.3
	l14.4,22 M1287.1,1343.3c3,4.9,5.9,9.9,8.8,15.1 M1287.1,1343.3l8.8,15.1 M1295.9,1358.4l24.1,44.3l60.1,109.9l7,13.6
	 M1418.5,1584.7c-2.7-2-4.6-4.7-5.6-7.8L1418.5,1584.7z M1418.5,1584.7c0.4,0.3,0.9,0.5,1.5,0.5 M1418.5,1584.7l1.5,0.5
	 M1420,1585.2c1.2,0,2.3-0.3,3.2-1c0.9-0.7,1.6-1.6,1.9-2.6 M1420,1585.2l5.1-3.6 M1425.1,1581.6c0.3-0.7,0.3-1.4,0.2-2.1
	 M1425.1,1581.6l0.2-2.1 M1425.3,1579.6c-0.6-4.9-2-9.7-4.1-14.3 M1425.3,1579.6l-4.1-14.3 M1421.2,1565.3c-2-4.5-4-9-5.8-13.6
	 M1421.2,1565.3l-5.8-13.6 M1415.4,1551.6c-1.9-4.6-3.7-9.3-5.5-13.9 M1415.4,1551.6l-5.5-13.9 M1409.9,1537.7c-1-2.6-2-5.2-3-7.8
	L1409.9,1537.7z M1406.7,1529.5l-10-24.5 M51.4,110.2c-3.1-8.6-4.5-17.6-4.2-26.6c0.3-9.3,2.8-18.5,7.4-26.8
	c4.1-7.5,9.3-14.5,15.4-20.7C83.7,22.1,101.4,12,121,7c9.2-2.4,18.7-3.9,28.2-4.6c18.8-1.3,37.6,0.5,55.7,5.3
	c9.1,2.4,18,5.3,26.7,8.6c8.7,3.4,17.1,7.3,25.2,11.7c8.5,4.6,16.5,9.8,24,15.8c3.2,2.5,6.1,5.2,8.9,8c5.3,5.6,10,11.8,13.9,18.4
	l1.6,2.8l3.5,1.1c8.6,3.1,16.6,7.6,23.6,13.1c7.5,5.9,13.8,12.9,18.8,20.7c5.1,8.1,9.1,16.8,11.7,25.8c2.6,9.1,3.8,18.4,3.5,27.8
	c-0.2,8.9-1.3,17.7-3.2,26.5c-3.8,17.4-10.6,34.2-20.2,49.6l-0.3,1l-0.3,0.9c-2.7,8.9-4.4,18-5,27.2 M51.4,110.2
	c-6.7,6-12.9,12.6-18.4,19.5 M51.4,110.2L33,129.8 M33,129.8c-5.5,6.9-10.3,14.2-14.3,21.9 M33,129.8l-14.3,21.9 M18.7,151.6
	c-4,7.6-7.4,15.5-10,23.6 M18.7,151.6l-10,23.6 M8.7,175.2c-2.5,7.7-4.4,15.5-5.8,23.4 M1234.6,1097.9l0.9-1.3l6.7-10.5
	L1234.6,1097.9z M420.7,479.2l0.8,12.3l0.7,11.3L420.7,479.2z M305.1,73c-9.6-1.6-19.4-1.7-29-0.5c-10,1.3-19.7,4.5-28.5,9.2
	c-5.7,3.1-11.1,6.7-16.2,10.7L305.1,73z M638.9,701.9c14.1-7.1,30.1-10.3,46-9L638.9,701.9z M1386.8,1526c0.2,0.2,0.3,0.5,0.4,0.7
	c2.5,4.4,4.8,8.8,7.1,13.4c2.3,4.6,4.5,8.9,6.7,13.1c2.2,4.1,4.4,8.2,6.3,11.9c2,3.8,3.8,7.7,5.3,11.7L1386.8,1526z M174.9,65.9
	c-8.9-4.2-18.7-6.6-28.6-7c-9.7-0.6-19.5,0.8-28.5,4.2c-8.6,3.3-16.7,7.5-24.3,12.5C85.3,81,77.4,86.8,69.9,93.1
	c-6.4,5.5-12.6,11.2-18.4,17.1L174.9,65.9z M1244.2,1101.6c1.5,8.5,3.3,16.8,5.5,25.2c2.2,8.3,4.6,16.5,7.3,24.5
	c2.7,7.8,5.6,15.5,8.8,23.1c1,2.3,1.9,4.6,2.9,6.9l19.2,44l44,114.9l17.3,44.2l47.5,120.4L1244.2,1101.6z"/>
<path class="st3" d="M256.2,109.5c-0.9-1.3-1.9-2.5-3-3.7c-1-1.1-2.1-2.2-3.3-3.2c-1.1-1-2.3-1.9-3.6-2.7l-0.7-0.4l-2.8-1.4h-0.1
	c-1.3-0.6-2.6-1-3.9-1.3l-0.5-0.1l-1.5-0.3c-0.4,0-1.1-0.2-1.9-0.3c-0.2,0-0.3,0-0.5,0h-1.4h-2c-1.1,0-2.3,0.1-3.4,0.2l-1,0.1h-0.2
	l-5.4,1.2H221l-2,0.6l-7.3,3.1l3.7-1.5l5.8-1.8h0.2l5-0.9l4-0.3h1.5l1.9,0.1h0.1h0.3h0.5l2.9,0.6l0.7,0.2c1.2,0.4,2.5,0.8,3.6,1.4
	h0.1l2.3,1.3h0.1c0.2,0.1,0.3,0.2,0.4,0.3l0.3,0.2h0.1c1.2,0.8,2.3,1.7,3.3,2.6c1.1,1,2.1,2.1,3,3.2c0.9,1.1,1.8,2.3,2.7,3.6
	c0.9,1.3,1.7,2.7,2.4,4.1c0.7,1.4,1.5,2.9,2.2,4.3c0.7,1.4,1.3,3,1.9,4.5l1.8,5.3v0.2l2.5,9.3c0.3,1.1,0.6,2.9,1.1,5.2l2,12.1
	l1.7,15.3c0.3,3.1,0.5,6.8,0.8,11.2c0.4,7.3,0.7,14.8,0.7,22.5c0.1,6.4,0,13.7,0,21.8l-2.5,60.6l-0.9,15.8l4.2-39.8l2.2-36.6
	c0.2-7.7,0.4-15,0.3-21.9c0-7.9-0.2-15.5-0.7-22.6c-0.2-4.1-0.5-7.9-0.8-11.3c-0.3-3.8-0.7-7.5-1.2-11.2l-2.8-16.4l-1.2-5.3
	c-0.3-1.2-0.8-2.9-1.4-5.2c-0.5-1.9-1.1-3.5-1.6-5c-0.5-1.5-1.1-2.9-1.8-4.8c-0.8-2-1.4-3.4-2.1-4.6c-0.8-1.7-1.6-3.2-2.3-4.4
	c-1-1.6-1.8-3-2.6-4.1"/>
<path class="st3" d="M332.4,396.2l-12.6-5.5l-13-4.3l-5.1-1.3h-0.2h-0.2l-7.6-1.7l-11-1.8h-0.4l-0.9-0.1c-0.3-0.1-0.6-0.1-0.9-0.1
	c-0.1,0-0.3,0-0.4,0l-17.7-1.3L251,380l-12.1,0.6h0.5h1.4h1l6.6,0.2h0.5l11.2,0.7l19.1,2.2c0.1,0,0.3,0,0.4,0l18,3.5l2.7,0.7h0.2
	l5.2,1.5c2.7,0.8,5.1,1.6,7.3,2.3l4.4,1.5l10,4.1l6.9,3.3c2.5,1.3,4.6,2.5,6.6,3.6l6.2,3.8c2.1,1.3,4,2.7,5.8,4l0.5,0.4h0.1l4.6,3.6
	c3,2.4,6.1,5,9.3,8l3.9,3.9v0.1l4.7,4.9l6.6,7.7l0.2,0.2l1.4,1.8l-3.8-5.7c-1.7-2.3-3.3-4.4-4.8-6.3l-3-3.5l-0.1-0.1l-0.1-0.1
	l-3.2-3.5c-0.1-0.2-0.3-0.3-0.5-0.5l-3.1-3.1l-10.5-9.1l-0.2-0.1l-1.6-1.3H353l-7.4-5.1l-6.4-3.9l-0.2-0.1h-0.2L332.4,396.2z"/>
<path class="st3" d="M323.6,300.6l0.8,8.1v0.4v0.2l1.5,6.6l2.2,6.1v0.1l0.4,0.8c0.2,0.5,0.3,0.8,0.4,1l1,2c0.7,1.5,1.5,2.9,2.3,4.1
	l2.8,4.2c1,1.4,2.1,2.7,3.4,4.1l5.9,5.7l6.7,5c1.5,1,3.2,1.9,4.8,2.9l5,2.5c1.6,0.7,3.3,1.4,5.1,2l2.5,1l10,3.3l2.4,0.6h0.5l11,2
	l5.1,0.6c1.6,0.2,3.6,0.3,5.9,0.5l5.2,0.2l-20.3-3.9l-12-3.3l-9.1-3.3h-0.1l-9.4-4.5c-1.6-0.9-3.2-1.8-4.6-2.8l-5.5-3.9l-4.9-4.3
	l-1.8-1.8c-1.1-1.2-2.2-2.4-3.3-3.8c-1.1-1.3-1.8-2.4-2.9-3.9l-2.5-3.9c-0.6-1-1.3-2.3-2.1-3.9l-1.7-3.7c-0.9-2.2-1.7-4.4-2.4-6.7
	l-1.4-5.3L323.6,300.6z"/>
<path class="st3" d="M334.9,203.6c-0.6,0.1-1.2,0.2-1.8,0.3c-0.6,0.1-1.2,0.2-1.8,0.4l-4,1.5l-0.6,0.3h-0.1l-0.3,0.2l-1.6,0.9l-3,2
	c-1,0.8-2,1.5-2.7,2.2c-0.8,0.7-1.7,1.6-2.6,2.4l-2.4,2.5c-0.9,0.9-1.6,1.8-2.2,2.7c-0.3,0.4-1,1.3-2.2,2.7l-3.5,4.9l-8.6,14.9
	l-0.5,1l-3.7,14.5c-0.7,3.3-1.2,5.7-1.6,7.3c-0.6,3.2-1.1,5.6-1.4,7.3l-2.8,22.2c-0.2,2.5-0.3,5-0.4,7.4l-0.1,7.5
	c0,2.9,0.1,5.4,0.2,7.5l1.1,11.1l0.6,3.9l3.2,13.9l0.1,0.2l1.4,4.3v0.2v0.2l0.4,1.1v0.1l1.1,2.7v0.2l0.1,0.2l2.2,5.2l-1.6-4.4
	l-0.8-2.7c-0.5-1.7-0.9-2.9-1-3.6l-0.9-3.6c-0.6-2.4-1.1-4.8-1.5-7.2c0-0.3-0.2-1.5-0.6-3.6l-1-8.2l-0.5-10.1c0-2.9,0-5.3,0-7.4
	l0.3-7.4c0.1-2.2,0.3-4.6,0.5-7.4l1.7-14.6c0.2-1.6,0.6-4.1,1.2-7.3c0.5-3.2,1-5.6,1.3-7.3c0.3-1.6,0.8-4.1,1.5-7.2l3.4-14.3v0.2
	v-0.2l3-5.9l0.8-1.5l5.9-10.2l3.9-5.6c0.9-1.2,1.6-2,2.1-2.7l2.2-2.6c0.6-0.7,1.4-1.5,2.4-2.5c0.8-0.8,1.7-1.6,2.5-2.3
	c0.9-0.8,1.8-1.4,2.7-2l0.4-0.2l0.2-0.1l0.4-0.3l0.5-0.3l1.5-0.8l0.4-0.2l0.2-0.1l2.2-0.9L334.9,203.6z"/>
<path class="st3" d="M251.9,357.6l7.2,4.3c0.2,0.1,0.4,0.2,0.6,0.4l3.2,2c0.2,0.1,0.3,0.2,0.5,0.3l4.8,3.4l-2.7-2.7
	c-1.1-1-2.2-2-3.3-2.9l-5.9-4.5l-7.6-4.7l-0.9-0.4l-2.7-1.3c-1-0.5-2.3-1-3.8-1.6l-2.2-0.8l-3.9-1.2l-2.2-0.5l-0.8-0.2l-3.4-0.7
	c-1.6-0.3-3-0.5-4.4-0.6l-4.4-0.4h-2.7h-3.7h-0.2H212l-7.2,1l-8.1,2l-8.5,3l-4.2,2l-0.2,0.1h0.2l3.5-1c0.9-0.3,2.3-0.7,4.4-1.2
	l5.7-1.3l9.2-1.4h1.2c1.7-0.1,3-0.2,3.9-0.2h0.2h1.5h4.8l5.4,0.4h0.3c0.3,0,0.7,0.1,1,0.1l3.1,0.5c1.4,0.2,2.7,0.5,4.1,0.8l7.1,2
	l0.7,0.2c1.6,0.6,2.8,1,3.7,1.4L251.9,357.6z"/>
<path class="st3" d="M114.7,278.2l2.4,1.9l2.6,1.8c1.7,1.2,3.6,2.3,5.4,3.3l5.9,2.8c2,0.8,4.1,1.6,6.2,2.2l2.6,0.7h0.2h0.4
	c0.9,0.2,2,0.5,3.2,0.7l2,0.3h0.4l4.1,0.5c1.2,0.1,2.2,0.2,3.2,0.2c1,0,2.2,0,3.2,0h1.8l4.5-0.2c3.9-0.3,7.9-0.9,11.7-1.8
	c1.6-0.3,3.3-0.8,5.3-1.3l4.9-1.5l11.6-4.5c1-0.4,1.9-0.8,2.8-1.3l5.3-2.6l-14.8,5.3l-15.6,4l-2.4,0.4h-0.4l-9.8,0.9h-5
	c-0.7,0-1.7,0-3.1-0.1l-3.1-0.3c-2.2-0.2-4.2-0.6-6.2-0.9l-3.7-0.8h-0.2l-2.2-0.6c-2-0.6-4-1.3-5.9-2l-5.6-2.6
	c-3.6-1.9-6.9-4-10.1-6.4l-4.4-3.6c-1.3-1.1-2.7-2.4-4-3.7l-3.5-3.7c-0.7-0.8-1.3-1.4-1.6-1.8l-4.4-5.2l-9.2-13.3l5.8,10.7l6.2,9
	l5,5.9c2.6,2.8,5.4,5.4,8.4,7.9"/>
<path class="st3" d="M187.1,333.9l-2.1,1c-1.1,0.5-2.7,1.3-4.8,2.2l-7.2,2.8l-7.1,2c-1.5,0.4-3.1,0.7-4.6,1l-6.6,1h-0.2l-8.1,0.5
	h-0.2h-4.6h-0.2l-6.7-0.5l8.3,1.5l1.5,0.1h0.2l3.3,0.2h0.9h4c3-0.1,6-0.3,9-0.7l2.4-0.4l9.4-2.2l6.8-2.4l8.4-3.8l2.6-1
	c1.6-0.6,3.3-1.2,5-1.6c1.7-0.5,3.4-0.8,5.1-1.1l7-0.7h0.8c0.5,0,1.4,0,2.5,0c3.2,0.1,6.4,0.4,9.6,1l8.4,2l6.9,2.5
	c2,0.8,3.7,1.6,5.2,2.3l4.4,2.2l-1.1-0.7l-7.4-4.2l-4.8-2.3l-7.4-2.7l-5.1-1.3l-6.2-1l-5.3-0.3c-1.2,0-2.2,0-2.7,0h-0.3l-2.4,0.2
	c-0.7,0-1.6,0.2-2.8,0.3l-2.7,0.5c-0.9,0.2-1.8,0.4-2.7,0.7c-1.8,0.5-3.6,1-5.3,1.7l-2.7,1.1h-0.2L187.1,333.9z"/>
</svg>
