<svg width="643" height="423" viewBox="0 0 643 423" fill="none" xmlns="http://www.w3.org/2000/svg">
<path d="M374.664 286.329C372.443 280.001 369.928 273.781 367.184 267.632C363.246 258.973 358.425 250.83 352.813 243.358C347.765 236.509 342.156 230.179 336.057 224.446C329.504 230.479 322.586 236.021 315.35 241.034C309.558 245.014 303.624 248.672 297.549 252.009C299.999 254.011 302.449 256.013 304.865 258.051C311.63 263.67 317.539 270.427 322.372 278.07C327.297 285.739 331.14 294.175 333.771 303.095L374.664 286.329ZM227.163 341.526C225.955 337.951 224.713 334.662 223.472 331.23C220.421 322.658 216.417 314.529 211.551 307.028L170.299 328.477C171.769 330.301 173.238 332.052 174.676 334.019C177.262 337.328 179.528 340.922 181.437 344.743C183.363 348.554 184.991 352.536 186.303 356.648L227.163 341.526ZM1086.89 -251.739L1055.14 -237.153C1058.86 -232.981 1062.2 -228.419 1065.1 -223.532C1069.61 -215.869 1072.86 -207.399 1074.7 -198.507C1076.57 -189.55 1076.96 -180.301 1075.85 -171.195C1074.79 -161.997 1071.24 -153.357 1065.66 -146.385C1060.17 -139.385 1053.23 -133.939 1045.41 -130.512C1048.82 -129.925 1052.27 -129.591 1055.73 -129.511C1064.35 -129.262 1072.96 -130.187 1081.37 -132.263C1089.91 -134.371 1098.19 -137.6 1106.03 -141.88C1111.56 -148.783 1115.77 -156.83 1118.41 -165.546C1120.97 -174.294 1121.4 -183.624 1119.65 -192.609C1117.98 -201.194 1115.13 -209.452 1111.19 -217.097C1107.18 -224.921 1102.55 -232.339 1097.34 -239.262C1094.05 -243.615 1090.57 -247.78 1086.89 -251.739ZM901.009 -54.4008C895.652 -61.3601 890.513 -68.51 885.592 -75.8506C880.366 -83.5725 875.337 -91.5089 870.437 -99.5526C866.213 -106.536 862.141 -113.59 858.222 -120.716C853.704 -128.914 849.846 -137.526 846.692 -146.456C843.637 -155.258 841.128 -164.276 839.18 -173.447C837.352 -182.084 836.01 -190.835 835.162 -199.651C834.314 -208.545 833.987 -217.489 834.183 -226.428C831.727 -217.323 827.702 -208.817 822.326 -201.367C817.1 -194.085 810.605 -188.01 803.219 -183.493C800.196 -181.627 797.065 -179.979 793.845 -178.559C794.243 -171.817 795.084 -165.114 796.36 -158.504C797.883 -150.486 800.07 -142.636 802.893 -135.052C806.23 -126.238 810.138 -117.696 814.586 -109.491L826.834 -87.1117C830.949 -79.6043 835.162 -72.2042 839.441 -64.8397C843.72 -57.4753 848.031 -50.5399 852.506 -43.676C856.981 -36.812 861.815 -30.2341 866.746 -23.7634C871.678 -17.2927 876.937 -11.108 882.392 -5.17365C878.794 -9.82257 875.985 -15.1374 874.095 -20.8677C871.53 -28.2067 871.506 -36.3196 874.03 -43.676C875.127 -46.8789 876.767 -49.8262 878.864 -52.3631C883.145 -52.0242 887.388 -51.2463 891.537 -50.0394C899.663 -47.6767 907.384 -43.8856 914.4 -38.814C909.66 -43.717 905.189 -48.9216 901.009 -54.4008ZM944.22 -220.601C947.97 -228.98 950.735 -237.845 952.451 -246.984C954.119 -255.65 954.995 -264.476 955.064 -273.331C955.091 -282.242 954.347 -291.136 952.843 -299.893C951.271 -308.795 948.92 -317.511 945.821 -325.919C942.794 -334.16 939.007 -342.042 934.52 -349.442C929.964 -356.934 924.769 -363.937 919.005 -370.356C910.801 -373.804 902.168 -375.877 893.398 -376.505C884.828 -377.121 876.223 -376.203 867.922 -373.788C864.638 -372.844 861.419 -371.649 858.287 -370.213C865.294 -364.364 871.899 -357.96 878.047 -351.051C884.213 -344.133 889.809 -336.632 894.77 -328.636C899.25 -321.421 902.944 -313.659 905.777 -305.506C908.7 -297.13 910.525 -288.344 911.199 -279.409C911.683 -272.634 911.596 -265.825 910.938 -259.067C911.265 -258.031 911.624 -256.994 911.918 -255.957C914.596 -246.845 917.871 -237.956 921.716 -229.359C925.576 -220.655 930.042 -212.289 935.075 -204.335C938.532 -209.46 941.56 -214.916 944.122 -220.636L944.22 -220.601ZM763.535 -171.516L763.731 -179.167C756.161 -181.727 748.859 -185.154 741.946 -189.391C734.353 -194.014 727.169 -199.4 720.487 -205.479L715.653 -209.804C716.744 -205.538 717.606 -201.204 718.233 -196.827C719.474 -187.771 720.563 -178.714 721.499 -169.658C722.414 -161.185 723.492 -152.641 724.766 -144.132C725.947 -136.199 726.754 -128.204 727.183 -120.18C727.694 -111.58 727.585 -102.95 726.856 -94.3688C726.05 -85.8502 724.697 -77.4044 722.806 -69.0939L723.622 -45.9996C730.088 -52.0758 735.818 -59.0319 740.672 -66.6987C745.495 -74.4549 749.371 -82.8677 752.202 -91.7234C754.846 -100.012 756.91 -108.509 758.375 -117.141C760.008 -126.329 761.281 -135.517 762.196 -144.776C763.111 -154.035 763.535 -162.651 763.764 -171.695L763.535 -171.516ZM717.221 -17.2213C710.489 -21.9656 703.332 -25.9426 695.86 -29.0901C688.475 -32.1854 680.811 -34.4143 672.997 -35.7396C665.099 -37.0709 657.111 -37.657 649.121 -37.4913C640.269 -37.2697 631.456 -36.1447 622.795 -34.1308C615.034 -32.3558 607.419 -29.8806 600.03 -26.7307L619.039 17.7061L621.914 17.4916C630.477 16.8776 639.072 16.9972 647.618 17.8491C656.111 18.6765 664.544 20.1095 672.866 22.139C680.966 24.1053 688.968 26.429 696.938 29.0745C704.907 31.72 712.713 34.6871 720.422 37.9403C728.298 41.262 735.884 45.3541 743.089 50.1667C750.041 54.7829 756.447 60.318 762.163 66.6473C767.93 73.0168 773.004 80.0946 777.286 87.7396L778.168 78.3375C778.713 68.9221 778.374 59.4704 777.155 50.131L775.783 47.5213C769.247 42.0047 763.23 35.7893 757.819 28.9672C752.388 22.1413 747.575 14.754 743.448 6.90973C742.893 5.87299 742.37 4.80048 741.815 3.7995L738.157 0.224548C731.592 -6.12518 724.604 -11.9326 717.253 -17.1498L717.221 -17.2213ZM641.935 129.138C636.546 122.727 630.739 116.753 624.559 111.263C618.351 105.672 611.803 100.548 604.962 95.9262C598.306 102.32 590.708 107.433 582.491 111.048C575.182 114.317 567.482 116.424 559.628 117.305C563.972 120.164 568.348 122.953 572.692 125.598C579.432 129.74 585.923 134.349 592.126 139.398C598.991 144.997 604.999 151.755 609.927 159.417C614.453 166.425 618.039 174.105 620.574 182.226C626.232 177.618 632.255 173.574 638.571 170.142C645.681 166.177 653.145 163.026 660.846 160.74C659.755 157.556 658.434 154.471 656.894 151.517C652.718 143.458 647.698 135.96 641.935 129.173V129.138ZM1234.29 -310.404V-311.047C1228.15 -315.814 1221.86 -320.187 1215.41 -324.167C1207.85 -328.901 1200.03 -333.127 1191.99 -336.823C1184.85 -340.243 1177.48 -343.052 1169.95 -345.224C1161.63 -347.642 1153.07 -348.951 1144.47 -349.121C1135.77 -349.311 1127.09 -348.435 1118.57 -346.511C1123.2 -338.288 1125.97 -328.972 1126.64 -319.341C1127.02 -314.718 1126.9 -310.062 1126.28 -305.47L1130.39 -306.579C1138.92 -308.952 1147.75 -309.773 1156.52 -309.01C1165.35 -308.247 1174.01 -305.917 1182.16 -302.11C1189.89 -298.489 1197.25 -294.008 1204.14 -288.74C1210.77 -283.557 1216.97 -277.743 1222.66 -271.365C1228.38 -264.847 1233.57 -257.802 1238.18 -250.309L1239.45 -271.758L1234.29 -310.404ZM1166.42 -431.13C1163.7 -433.785 1161.1 -436.589 1158.65 -439.531C1152.89 -446.431 1148.53 -454.58 1145.84 -463.448C1143.13 -472.216 1142.19 -481.52 1143.07 -490.725L1104.82 -497.875C1102.86 -498.089 1100.93 -498.375 1098.97 -498.661C1091.51 -499.655 1084.01 -500.204 1076.5 -500.306C1068.28 -500.413 1060.07 -499.695 1051.97 -498.161C1043.83 -496.562 1035.84 -494.169 1028.1 -491.011L1039.33 -491.475L1028.1 -491.011L1017.68 -490.617C1008.93 -489.409 1000.54 -486.114 993.082 -480.965C986.42 -476.458 980.877 -470.22 976.947 -462.804C972.502 -454.655 969.52 -445.652 968.161 -436.278C966.782 -426.929 967.351 -417.36 969.827 -408.286C971.028 -403.888 972.659 -399.645 974.694 -395.631C978.461 -399.992 982.315 -404.282 986.256 -408.501C992.206 -414.769 998.631 -420.473 1005.46 -425.553C1012.25 -430.601 1019.44 -434.969 1026.95 -438.602C1034.45 -442.299 1042.23 -445.266 1050.21 -447.468C1057.92 -449.607 1065.79 -450.983 1073.72 -451.579C1081.69 -452.181 1089.7 -451.978 1097.63 -450.971C1105.58 -450.004 1113.46 -448.524 1121.25 -446.538C1128.93 -444.608 1136.55 -442.332 1144.11 -439.71C1151.67 -437.088 1159.11 -434.193 1166.45 -431.023L1166.42 -431.13ZM1261.43 -558.828L1262.22 -558.542C1267.18 -564.941 1271.48 -571.918 1275.05 -579.348C1278.85 -587.256 1281.71 -595.667 1283.54 -604.373C1285.54 -613.24 1286.55 -622.339 1286.55 -631.471C1286.57 -640.549 1285.81 -649.609 1284.29 -658.533C1282.9 -667.352 1280.71 -675.999 1277.76 -684.345C1274.8 -692.739 1271.21 -700.857 1267.05 -708.619C1263.01 -716.11 1258.58 -723.343 1253.79 -730.283C1248.98 -737.229 1243.83 -743.888 1238.37 -750.231C1232.83 -756.545 1226.89 -762.412 1220.57 -767.784C1214.32 -773.059 1207.68 -777.758 1200.71 -781.834C1193.69 -785.952 1186.39 -789.454 1178.86 -792.308L1172.04 -766.569L1170.24 -756.63L1181.87 -749.159C1186.92 -745.842 1191.72 -742.101 1196.24 -737.969C1202.91 -731.748 1208.89 -724.68 1214.04 -716.912C1218.77 -709.736 1222.78 -702.03 1226.03 -693.925C1229.24 -685.865 1231.75 -677.485 1233.51 -668.901C1235.24 -660.335 1236.24 -651.609 1236.48 -642.839C1236.73 -633.79 1236.15 -624.735 1234.75 -615.813C1233.28 -606.385 1230.68 -597.212 1227.01 -588.536C1223.25 -579.753 1218.51 -571.515 1212.9 -564.011H1213.12H1214.1C1221.62 -564.744 1229.19 -564.744 1236.71 -564.011C1245.15 -563.194 1253.49 -561.359 1261.56 -558.542L1261.43 -558.828ZM1147.25 -508.492C1149.35 -514.758 1152.11 -520.733 1155.48 -526.296C1160.29 -534.187 1166.37 -541.065 1173.41 -546.601L1171.97 -549.175L1170.08 -553.715C1166.38 -562.247 1161.76 -570.265 1156.33 -577.596C1150.99 -584.831 1144.8 -591.251 1137.9 -596.687C1130.9 -602.261 1123.28 -606.86 1115.24 -610.379C1113.7 -601.553 1111.64 -592.847 1109.06 -584.317C1106.98 -577.522 1104.55 -570.861 1101.78 -564.369C1106.34 -560.889 1110.7 -557.117 1114.85 -553.072C1121.02 -547.075 1126.74 -540.548 1131.96 -533.553L1147.25 -508.492ZM1435.26 -603.014C1435.91 -604.766 1436.5 -606.589 1437.05 -608.269C1440.03 -616.916 1442 -625.935 1442.93 -635.117C1443.93 -644.63 1443.78 -654.244 1442.51 -663.717C1441.42 -672.166 1439.35 -680.43 1436.37 -688.313C1433.36 -696.405 1429.54 -704.104 1424.97 -711.264C1424.35 -711.943 1423.73 -712.622 1423.07 -713.266C1417 -719.799 1411.99 -727.415 1408.25 -735.788C1404.48 -744.107 1401.65 -752.894 1399.82 -761.957C1397.95 -771.037 1396.39 -780.189 1395.15 -789.413C1393.9 -798.524 1391.06 -807.288 1386.79 -815.224C1382.49 -823.252 1376.86 -830.332 1370.2 -836.102C1363.72 -841.757 1356.91 -846.94 1349.81 -851.617C1342.89 -856.169 1335.8 -860.519 1328.55 -864.665C1321.3 -868.812 1313.98 -872.805 1306.6 -876.642L1296.58 -877.75L1286.78 -877.964L1238.93 -864.558L1238.57 -864.38C1245.97 -862.258 1253.34 -859.875 1260.68 -857.23C1268.65 -854.298 1276.49 -851.009 1284.26 -847.363C1292.04 -843.716 1300.33 -839.462 1308.2 -835.029C1315.94 -830.708 1323.47 -825.935 1330.74 -820.729C1338.1 -815.549 1344.14 -808.401 1348.28 -799.959C1352.04 -792.436 1354.35 -784.151 1355.07 -775.613C1355.84 -766.604 1356.23 -757.536 1356.25 -748.408C1356.23 -738.784 1359.34 -729.467 1365.03 -722.132C1370.22 -715.268 1375.14 -708.118 1379.8 -700.682C1384.42 -693.334 1388.52 -685.614 1392.08 -677.588C1394.72 -671.582 1397.14 -665.505 1399.26 -659.248C1402.85 -654.408 1406.03 -649.228 1408.77 -643.769C1412.96 -635.388 1415.62 -626.197 1416.61 -616.706C1417.55 -607.618 1417.17 -598.425 1415.5 -589.465L1418.14 -590.931C1424.26 -594.396 1430.01 -598.592 1435.29 -603.443L1435.26 -603.014ZM1170.31 -756.916L1172.1 -766.855C1164.01 -767.499 1155.88 -767.391 1147.8 -766.533L1141.86 -765.854H1141.63L1146.07 -764.888C1154.35 -763.063 1162.46 -760.418 1170.31 -756.988V-756.916ZM1141.37 -765.818H1141.6H1141.37ZM500.804 242.321C501.178 233.413 500.53 224.49 498.877 215.759C497.182 207.161 494.687 198.775 491.43 190.734C487.894 182.068 483.444 173.885 478.169 166.353C472.791 158.717 466.766 151.654 460.172 145.261C454.186 139.422 447.81 134.081 441.098 129.281C434.308 124.489 427.225 120.213 419.9 116.482C411.938 120.501 404.668 125.992 398.409 132.713C392.816 138.678 388.081 145.536 384.364 153.054L392.334 155.986C399.506 158.654 406.421 162.09 412.976 166.246C420.521 170.998 427.527 176.71 433.847 183.263C439.719 189.302 444.807 196.195 448.969 203.747C453.315 211.589 455.901 220.447 456.514 229.594C457.283 238.991 456.169 248.459 453.248 257.336L462.851 263.771L468.893 267.346C476.255 271.995 484.184 275.474 492.442 277.677C493.487 275.294 494.467 272.72 495.382 269.955C498.412 261.083 500.238 251.773 500.804 242.321ZM448.545 265.451H448.904L462.851 263.842L453.248 257.336L448.545 265.451Z" fill="#88CFDA"/>
<path d="M74.2283 398.118H74.4569L186.193 356.719C184.881 352.608 183.253 348.625 181.326 344.815C179.41 340.999 177.145 337.405 174.565 334.09C173.128 332.231 171.659 330.515 170.189 328.549L67.8266 382.173L55.2191 388.394L54.5333 388.787C50.4832 391.003 46.3025 393.113 42.0564 395.115C37.8104 397.116 33.793 399.119 29.9062 401.085C26.0195 403.051 22.3614 404.874 18.8012 406.662C15.2705 408.474 11.6377 410.039 7.92485 411.345C5.07194 412.145 2.51583 413.894 0.608586 416.35C0.318654 416.762 0.148058 417.26 0.118679 417.78C0.0889651 418.873 0.394424 419.946 0.986358 420.827C1.57829 421.708 2.42264 422.347 3.38486 422.642C3.96739 422.884 4.59471 422.97 5.21391 422.892C9.78854 422.399 14.2757 421.196 18.5399 419.317C22.688 417.53 26.934 415.742 31.2127 414.205C35.4914 412.668 39.8028 410.952 44.0815 409.414L51.2997 406.84L51.7243 406.626L74.2283 398.118ZM1086.74 -251.739L1086.91 -251.953L1086.74 -251.739ZM1074.53 -198.472C1072.69 -207.364 1069.44 -215.833 1064.93 -223.496C1062.03 -228.39 1058.69 -232.953 1054.96 -237.117C1046.84 -234.021 1038.28 -232.532 1029.68 -232.72C1022.63 -232.868 1015.65 -234.219 1008.98 -236.724C1007.43 -249.889 1004.62 -262.841 1000.62 -275.369C997.097 -286.685 992.568 -297.594 987.093 -307.937C984.163 -313.468 980.969 -318.826 977.523 -323.989C974.059 -329.208 970.237 -334.132 966.092 -338.717C961.795 -343.413 957.128 -347.684 952.145 -351.48C943.224 -358.338 933.586 -364.003 923.435 -368.354L919.157 -370.213C924.92 -363.794 930.115 -356.791 934.671 -349.299C939.159 -341.899 942.945 -334.017 945.972 -325.776C949.082 -317.369 951.445 -308.654 953.027 -299.75C954.531 -290.993 955.275 -282.099 955.248 -273.188C955.179 -264.333 954.303 -255.507 952.635 -246.841C950.919 -237.702 948.153 -228.837 944.404 -220.458C941.842 -214.737 938.814 -209.281 935.357 -204.156C937.799 -199.593 940.527 -195.221 943.522 -191.072C949.072 -183.526 955.457 -176.765 962.531 -170.945L975.792 -160.863C983.006 -155.284 990.657 -150.415 998.655 -146.313C1006.06 -142.474 1013.7 -139.201 1021.52 -136.518C1029.38 -133.873 1037.4 -131.854 1045.53 -130.476C1053.35 -133.903 1060.29 -139.349 1065.78 -146.349C1071.36 -153.321 1074.91 -161.962 1075.97 -171.159C1077.07 -180.265 1076.69 -189.515 1074.82 -198.472H1074.53ZM718.809 -196.827C718.182 -201.204 717.32 -205.538 716.229 -209.804C708.836 -215.439 700.518 -219.457 691.732 -221.637C683.973 -223.684 675.911 -223.952 668.053 -222.424C659.484 -220.718 651.18 -217.684 643.393 -213.415C635.626 -209.221 628.252 -204.204 621.379 -198.436C614.532 -192.722 608.2 -186.306 602.468 -179.274C596.895 -172.356 592.234 -164.619 588.619 -156.287C584.839 -147.768 582.419 -138.602 581.466 -129.189C580.448 -119.688 580.448 -110.09 581.466 -100.589C582.446 -91.7473 583.785 -83.0125 585.484 -74.3849C587.224 -65.7614 589.405 -57.2516 592.016 -48.8954C594.35 -41.3582 597.043 -33.9597 600.083 -26.7307C607.419 -29.8712 614.979 -32.3463 622.685 -34.1309C631.346 -36.1447 640.159 -37.2698 649.011 -37.4913C657.001 -37.6749 664.99 -37.0887 672.887 -35.7396C680.701 -34.4143 688.365 -32.1854 695.75 -29.0901C703.216 -25.9282 710.372 -21.952 717.111 -17.2213C724.462 -12.0042 731.449 -6.19672 738.014 0.153015L741.672 3.72797C736.845 -4.20514 732.826 -12.6926 729.685 -21.5828C726.898 -29.4615 724.851 -37.6308 723.578 -45.9639L722.761 -69.0582C724.652 -77.3687 726.005 -85.8145 726.811 -94.3331C727.54 -102.914 727.649 -111.545 727.138 -120.144C726.709 -128.169 725.902 -136.163 724.721 -144.097C723.48 -152.605 722.402 -161.149 721.455 -169.622C720.497 -178.702 719.408 -187.759 718.188 -196.792L718.809 -196.827ZM776.686 48.4865L775.608 47.4497L776.98 50.0594L776.686 48.4865ZM1238.36 -282.412C1237.55 -291.826 1236.14 -301.167 1234.15 -310.368L1239.31 -271.687C1239.01 -275.262 1238.69 -278.837 1238.36 -282.412ZM1332.33 -534.303C1340.97 -533.856 1349.63 -534.771 1358.03 -537.02C1366.44 -539.236 1374.53 -542.7 1382.07 -547.316C1389.37 -551.76 1395.93 -557.526 1401.47 -564.369C1406.77 -570.829 1411.04 -578.212 1414.11 -586.212L1415.22 -589.429C1416.9 -598.39 1417.27 -607.583 1416.33 -616.67C1415.35 -626.162 1412.68 -635.353 1408.5 -643.733C1405.75 -649.192 1402.57 -654.373 1398.99 -659.212C1396.87 -665.469 1394.45 -671.546 1391.81 -677.552C1388.24 -685.574 1384.14 -693.294 1379.52 -700.646C1374.89 -708.035 1369.97 -715.184 1364.76 -722.096C1359.07 -729.431 1355.95 -738.748 1355.98 -748.372C1355.98 -757.5 1355.58 -766.568 1354.8 -775.577C1354.06 -784.112 1351.75 -792.393 1348.01 -799.923C1343.87 -808.365 1337.83 -815.514 1330.47 -820.693C1323.19 -825.899 1315.67 -830.673 1307.93 -834.993C1300.05 -839.426 1292.07 -843.537 1283.99 -847.327C1276.22 -850.902 1268.38 -854.262 1260.41 -857.194C1253.09 -859.911 1245.72 -862.294 1238.3 -864.344C1231.22 -860.208 1224.48 -855.425 1218.14 -850.044C1211.9 -844.739 1206.11 -838.815 1200.86 -832.348C1195.06 -825.224 1189.95 -817.46 1185.61 -809.182C1182.83 -803.839 1180.5 -798.226 1178.65 -792.415C1186.18 -789.561 1193.49 -786.059 1200.51 -781.941C1207.47 -777.865 1214.11 -773.166 1220.36 -767.891C1226.68 -762.519 1232.63 -756.652 1238.16 -750.338C1243.63 -743.995 1248.77 -737.336 1253.58 -730.39C1258.38 -723.459 1262.81 -716.225 1266.84 -708.726C1271 -700.964 1274.59 -692.846 1277.55 -684.452C1280.52 -676.111 1282.71 -667.463 1284.09 -658.641C1285.61 -649.716 1286.36 -640.656 1286.34 -631.578C1286.34 -622.446 1285.33 -613.348 1283.34 -604.48C1281.5 -595.774 1278.64 -587.363 1274.84 -579.455C1271.28 -572.025 1266.97 -565.048 1262.01 -558.649L1262.92 -558.327C1269.94 -553.622 1277.29 -549.545 1284.9 -546.137C1292.41 -542.785 1300.14 -540.084 1308.03 -538.057C1316.01 -536.1 1324.13 -534.904 1332.3 -534.482L1332.33 -534.303ZM1286.37 -878C1277.62 -877.573 1268.93 -876.098 1260.47 -873.603C1252.91 -871.391 1245.55 -868.373 1238.52 -864.594L1286.37 -878Z" fill="#CACAA8"/>
<path d="M1482.77 -707.76C1483.8 -716.446 1484.12 -725.217 1483.72 -733.965C1483.31 -742.937 1482.1 -751.845 1480.12 -760.563C1478.08 -769.613 1474.9 -778.31 1470.68 -786.41C1466.25 -794.803 1460.75 -802.47 1454.35 -809.182C1448.79 -815.133 1442.49 -820.2 1435.64 -824.233C1428.09 -828.746 1419.72 -831.359 1411.14 -831.883C1402.87 -832.385 1394.59 -831.271 1386.68 -828.594C1392.03 -822.946 1397.14 -816.987 1402 -810.719C1407.6 -803.505 1412.81 -795.924 1417.58 -788.018C1421.96 -780.76 1425.62 -773.005 1428.48 -764.888C1431.43 -756.328 1432.54 -747.145 1431.75 -738.04C1431.15 -728.694 1428.74 -719.592 1424.7 -711.335C1429.27 -704.175 1433.09 -696.477 1436.09 -688.384C1439.07 -680.496 1441.13 -672.234 1442.24 -663.788C1443.51 -654.316 1443.65 -644.702 1442.66 -635.189C1441.73 -626.007 1439.75 -616.988 1436.78 -608.341C1436.23 -606.589 1435.64 -604.766 1434.98 -603.086C1437.66 -605.641 1440.19 -608.375 1442.56 -611.272C1448.19 -618.104 1453.22 -625.501 1457.59 -633.366C1461.8 -640.889 1465.58 -648.698 1468.89 -656.746C1472.18 -664.821 1475.03 -673.106 1477.41 -681.556C1479.89 -690.023 1481.64 -698.724 1482.64 -707.546L1482.77 -707.76ZM706.822 155.664C714.376 153.72 721.747 151.003 728.836 147.549C736.49 143.79 743.679 138.985 750.229 133.249C757.041 127.402 762.857 120.286 767.41 112.228C771.748 104.58 775.049 96.2831 777.208 87.5966C772.927 79.9516 767.852 72.8738 762.086 66.5042C756.369 60.175 749.963 54.6399 743.011 50.0237C735.807 45.2111 728.22 41.119 720.344 37.7973C712.636 34.556 704.808 31.6007 696.86 28.9315C688.891 26.2859 680.889 23.9622 672.788 21.996C664.467 19.9664 656.033 18.5334 647.541 17.7061C638.994 16.8541 630.4 16.7346 621.836 17.3486L618.962 17.5631C622.149 26.112 623.908 35.2177 624.155 44.4468C624.495 53.8776 622.899 63.2717 619.484 71.9382C616.083 80.8065 611.173 88.8861 605.015 95.7474C611.856 100.369 618.404 105.493 624.612 111.084C630.792 116.574 636.599 122.548 641.988 128.959C647.751 135.745 652.771 143.244 656.947 151.302C658.487 154.257 659.808 157.341 660.899 160.526C667.84 159.062 674.899 158.379 681.966 158.488C690.34 158.618 698.698 157.633 706.855 155.557L706.822 155.664ZM1428.68 -765.139C1425.81 -773.255 1422.16 -781.01 1417.77 -788.269C1413 -796.174 1407.8 -803.755 1402.19 -810.97C1397.31 -817.166 1392.21 -823.124 1386.87 -828.844C1381.48 -835.314 1375.61 -841.292 1369.33 -846.719C1363.15 -852.062 1356.52 -856.766 1349.54 -860.769C1342.65 -864.732 1335.47 -868.08 1328.08 -870.779C1321.08 -873.29 1313.93 -875.308 1306.69 -876.82C1314.09 -873.15 1321.41 -869.241 1328.64 -865.094C1335.87 -860.947 1342.94 -856.455 1349.87 -851.617C1356.89 -846.967 1363.64 -841.82 1370.05 -836.209C1376.72 -830.439 1382.35 -823.359 1386.64 -815.331C1390.92 -807.395 1393.76 -798.632 1395.01 -789.52C1396.25 -780.296 1397.8 -771.144 1399.68 -762.064C1401.51 -753.001 1404.34 -744.215 1408.1 -735.895C1411.84 -727.522 1416.86 -719.906 1422.93 -713.373C1423.59 -712.73 1424.21 -712.05 1424.83 -711.371C1428.87 -719.628 1431.28 -728.729 1431.88 -738.076C1432.67 -747.181 1431.56 -756.363 1428.62 -764.924" fill="#CACAA8"/>
<path d="M322.372 278.07C317.542 270.414 311.633 263.645 304.866 258.015C302.449 255.977 299.999 253.975 297.549 251.973L283.864 260.839L263.352 274.495L245.976 286.221C239.226 290.773 232.367 295.099 225.399 299.198C220.827 301.796 216.211 304.406 211.551 307.028C216.474 314.52 220.533 322.649 223.636 331.23C224.877 334.805 226.118 338.094 227.326 341.526L333.771 303.095C331.14 294.175 327.297 285.739 322.372 278.07ZM914.367 -38.7784C920.868 -34.3635 927.646 -30.4571 934.651 -27.0883C942.502 -23.2184 951.271 -22.1673 959.702 -24.0853C968.44 -26.0107 976.568 -30.3974 983.284 -36.8122C989.861 -43.0233 995.227 -50.6227 999.06 -59.1557C1002.83 -67.6157 1004.93 -76.8477 1005.23 -86.2538C1005.53 -95.5661 1004.59 -104.876 1002.42 -113.888C1000.25 -123.216 996.724 -132.1 991.972 -140.2C987.438 -147.89 981.94 -154.845 975.641 -160.863L962.38 -170.945C955.306 -176.765 948.92 -183.526 943.371 -191.072C940.376 -195.221 937.648 -199.593 935.206 -204.156C930.173 -212.11 925.707 -220.477 921.847 -229.181C918.002 -237.778 914.727 -246.667 912.049 -255.778C911.755 -256.815 911.395 -257.852 911.069 -258.889C911.721 -265.646 911.819 -272.454 911.363 -279.23C910.661 -288.164 908.825 -296.948 905.908 -305.327C903.074 -313.48 899.38 -321.243 894.901 -328.457C889.94 -336.453 884.344 -343.954 878.178 -350.872C871.978 -357.8 865.319 -364.217 858.255 -370.07C850.292 -365.988 843.067 -360.369 836.926 -353.482C830.969 -346.902 826.253 -339.104 823.045 -330.531C819.659 -321.617 817.671 -312.141 817.166 -302.503C816.627 -292.88 818.09 -283.248 821.445 -274.333C824.588 -265.944 829.066 -258.234 834.673 -251.56C835.391 -250.702 836.11 -249.88 836.796 -249.022C837.351 -254.594 837.351 -260.216 836.796 -265.788C835.869 -275.084 833.412 -284.12 829.545 -292.458C833.412 -284.12 835.869 -275.084 836.796 -265.788C837.351 -260.216 837.351 -254.594 836.796 -249.022L834.183 -225.999C833.987 -217.06 834.314 -208.116 835.163 -199.223C836.011 -190.406 837.352 -181.655 839.18 -173.018C841.143 -163.851 843.652 -154.835 846.692 -146.027C849.846 -137.098 853.704 -128.485 858.222 -120.288C862.141 -113.138 866.213 -106.083 870.437 -99.1237C875.337 -91.0801 880.236 -83.1436 885.592 -75.4217C890.949 -67.6998 895.652 -61.1219 901.009 -53.972C905.181 -48.5305 909.642 -43.3618 914.367 -38.4924V-38.7784ZM1144.08 -439.531C1136.52 -442.129 1128.9 -444.405 1121.21 -446.36C1113.43 -448.346 1105.54 -449.826 1097.6 -450.793C1089.66 -451.799 1081.66 -452.003 1073.69 -451.4C1065.76 -450.804 1057.89 -449.429 1050.18 -447.289C1042.2 -445.087 1034.42 -442.121 1026.92 -438.423C1019.41 -434.79 1012.22 -430.423 1005.43 -425.375C998.598 -420.295 992.173 -414.59 986.223 -408.322C982.282 -404.104 978.428 -399.814 974.661 -395.452C978.832 -386.885 984.361 -379.198 990.992 -372.751C997.462 -366.495 1004.92 -361.588 1013.01 -358.273C1020.76 -354.941 1028.83 -352.614 1037.08 -351.337C1045.14 -350.088 1053.28 -349.657 1061.41 -350.05C1069.67 -350.413 1077.86 -351.768 1085.84 -354.09C1094.13 -356.571 1102.95 -355.838 1110.8 -352.016C1113.64 -350.625 1116.26 -348.755 1118.57 -346.475C1127.09 -348.4 1135.77 -349.275 1144.47 -349.085C1153.07 -348.915 1161.63 -347.606 1169.95 -345.188C1177.48 -343.012 1184.85 -340.216 1191.99 -336.823C1199.98 -333.087 1207.76 -328.825 1215.28 -324.06C1221.81 -319.985 1228.11 -315.611 1234.16 -310.94C1232.46 -315.874 1230.73 -320.843 1228.93 -325.776C1226.21 -333.522 1223.21 -341.149 1219.92 -348.656C1216.65 -356.128 1213.06 -363.492 1209.3 -370.713C1205.49 -378.087 1201.33 -385.246 1196.86 -392.163C1192.35 -399.099 1187.55 -405.808 1182.46 -412.29C1177.36 -418.773 1172.01 -425.005 1166.42 -430.987C1159.04 -434.205 1151.59 -437.1 1144.08 -439.674" fill="#56BA8D"/>
<path d="M620.541 182.118C618.038 174.01 614.497 166.33 610.024 159.31C605.106 151.639 599.096 144.88 592.224 139.29C586.021 134.242 579.53 129.633 572.79 125.491C568.435 122.822 564.08 120.057 559.725 117.197C551.446 118.52 543.044 118.628 534.739 117.519L530.95 117.197C523.438 115.052 515.882 112.824 508.283 110.512C500.638 108.141 492.809 106.549 484.897 105.757C476.84 104.905 468.731 104.822 460.662 105.507C446.601 106.66 432.819 110.407 419.9 116.589C427.225 120.32 434.307 124.596 441.097 129.388C447.81 134.188 454.186 139.529 460.172 145.368C466.755 151.762 472.77 158.824 478.136 166.46C483.433 173.976 487.885 182.162 491.397 190.841C494.65 198.887 497.156 207.271 498.876 215.866C500.519 224.598 501.156 233.522 500.77 242.428C500.246 251.852 498.452 261.141 495.447 269.991C494.532 272.672 493.585 275.246 492.54 277.713L496.492 278.928C504.535 281.32 512.818 282.605 521.151 282.753C529.809 282.888 538.441 281.684 546.791 279.178C555.263 276.694 563.36 272.877 570.83 267.846C577.511 263.374 583.353 257.55 588.043 250.686C588.422 250.112 588.71 249.471 588.892 248.791C590.329 241.641 591.701 234.491 593.04 227.556C594.962 218.237 598.511 209.411 603.492 201.566C608.198 194.09 614.004 187.518 620.672 182.118H620.541ZM1206.92 -562.725C1208.81 -563.261 1210.71 -563.726 1212.6 -564.19C1218.22 -571.676 1222.96 -579.903 1226.71 -588.679C1230.38 -597.36 1233 -606.531 1234.49 -615.956C1235.88 -624.88 1236.46 -633.933 1236.22 -642.983C1235.96 -651.754 1234.96 -660.479 1233.21 -669.044C1231.46 -677.625 1228.97 -686.004 1225.76 -694.069C1222.5 -702.159 1218.48 -709.852 1213.75 -717.02C1208.62 -724.812 1202.64 -731.884 1195.94 -738.076C1191.43 -742.217 1186.63 -745.959 1181.57 -749.266L1169.98 -756.774C1162.13 -760.176 1154.02 -762.808 1145.74 -764.638L1141.3 -765.639H1141.14C1133.04 -761.617 1125.98 -755.479 1120.56 -747.765C1115.27 -740.395 1111.88 -731.604 1110.76 -722.311C1109.58 -712.998 1109.43 -703.562 1110.34 -694.212C1111.15 -685.346 1112.26 -676.551 1113.6 -667.793C1115.01 -658.967 1115.83 -650.042 1116.05 -641.088C1116.33 -632.106 1116.08 -623.115 1115.3 -614.168C1115.3 -612.917 1115.07 -611.63 1114.98 -610.343C1123.01 -606.824 1130.63 -602.238 1137.64 -596.687C1144.52 -591.219 1150.71 -584.789 1156.06 -577.561C1161.5 -570.234 1166.1 -562.215 1169.78 -553.68C1170.44 -552.179 1171.06 -550.641 1171.71 -549.14L1173.15 -546.566L1182.42 -553.251C1190.22 -557.411 1198.43 -560.589 1206.89 -562.725" fill="#CACAA8"/>
<path d="M1140.18 -763.28H1139.95H1139.75M1170.32 -764.424L1168.59 -754.378M777.044 48.5936V48.8438M776.717 47.1636L775.64 46.1268M775.64 46.1268C769.148 40.6979 763.173 34.5655 757.806 27.823M775.64 46.1268L757.806 27.823M757.806 27.823C752.386 21.0549 747.594 13.714 743.5 5.90852M757.806 27.823L743.5 5.90852M743.5 5.90852L741.835 2.76259M741.835 2.76259C737.055 -5.08865 733.058 -13.4782 729.913 -22.2621C727.149 -30.1125 725.103 -38.2437 723.805 -46.5361L723.021 -69.5231L741.835 2.76259ZM1085.83 -251.489L1085.67 -251.274M57.8638 385.319L57.1779 385.712C53.1278 387.893 48.9798 390.002 44.7664 392.004C40.553 394.006 36.503 396.008 32.6489 397.939L21.6092 403.516C18.0807 405.295 14.4599 406.847 10.7655 408.163M57.8638 385.319L10.7655 408.163M57.8638 385.319L70.4712 379.099L172.441 325.832L213.497 304.382M10.7655 408.163C7.9091 408.954 5.35074 410.704 3.44925 413.168M10.7655 408.163L3.44925 413.168M1304.47 -873.532L1294.47 -874.64L1284.67 -874.854M1284.67 -874.854C1275.95 -874.425 1267.3 -872.962 1258.87 -870.493M1284.67 -874.854L1258.87 -870.493M1258.87 -870.493C1251.33 -868.271 1244 -865.266 1236.99 -861.52M1258.87 -870.493L1236.99 -861.52M1236.99 -861.52L1236.63 -861.305M1236.63 -861.305C1229.59 -857.224 1222.87 -852.513 1216.54 -847.22M1236.63 -861.305L1216.54 -847.22M1216.54 -847.22C1210.34 -841.929 1204.59 -836.029 1199.36 -829.595M1216.54 -847.22L1199.36 -829.595M1199.36 -829.595C1193.57 -822.516 1188.48 -814.787 1184.17 -806.537M1199.36 -829.595L1184.17 -806.537M1184.17 -806.537C1181.39 -801.215 1179.07 -795.627 1177.22 -789.842M1184.17 -806.537L1177.22 -789.842M1177.22 -789.842L1170.46 -764.245M1170.46 -764.245C1162.38 -764.859 1154.28 -764.739 1146.22 -763.888M1170.46 -764.245L1146.22 -763.888M1146.22 -763.888L1140.31 -763.244H1140.05H1139.88M1139.88 -763.244C1131.82 -759.225 1124.8 -753.084 1119.44 -745.369M1139.88 -763.244L1119.44 -745.369M1119.44 -745.369C1114.14 -738.046 1110.75 -729.286 1109.64 -720.023M1119.44 -745.369L1109.64 -720.023M1109.64 -720.023C1108.44 -710.76 1108.29 -701.371 1109.18 -692.067M1109.64 -720.023L1109.18 -692.067M1109.18 -692.067C1110.03 -683.201 1111.12 -674.43 1112.45 -665.755M1109.18 -692.067L1112.45 -665.755M1112.45 -665.755C1113.86 -656.967 1114.67 -648.077 1114.87 -639.157M1112.45 -665.755L1114.87 -639.157M1114.87 -639.157C1115.16 -630.224 1114.92 -621.279 1114.15 -612.381M1114.87 -639.157L1114.15 -612.381M1114.15 -612.381C1114.15 -611.129 1113.92 -609.842 1113.82 -608.555M1114.15 -612.381L1113.82 -608.555M1113.82 -608.555C1112.29 -599.777 1110.22 -591.118 1107.65 -582.637M1113.82 -608.555L1107.65 -582.637M1107.65 -582.637C1105.59 -575.86 1103.17 -569.222 1100.4 -562.76M1107.65 -582.637L1100.4 -562.76M1100.4 -562.76C1096.59 -554.693 1092.08 -547.043 1086.94 -539.916M1100.4 -562.76L1086.94 -539.916M1086.94 -539.916C1081.93 -532.882 1076.24 -526.468 1069.96 -520.79M1086.94 -539.916L1069.96 -520.79M1069.96 -520.79C1063.54 -514.936 1056.64 -509.742 1049.35 -505.275M1069.96 -520.79L1049.35 -505.275M1049.35 -505.275C1042.17 -500.864 1034.74 -496.959 1027.1 -493.585M1049.35 -505.275L1027.1 -493.585M1027.1 -493.585C1023.84 -492.119 1020.28 -490.725 1016.78 -489.509M1027.1 -493.585L1016.78 -489.509M1016.78 -489.509C1008.05 -488.279 999.664 -484.972 992.22 -479.821M1016.78 -489.509L992.22 -479.821M992.22 -479.821C985.58 -475.338 980.059 -469.123 976.15 -461.732M992.22 -479.821L976.15 -461.732M976.15 -461.732C971.711 -453.635 968.739 -444.677 967.397 -435.349M976.15 -461.732L967.397 -435.349M967.397 -435.349C966.018 -426.036 966.587 -416.501 969.063 -407.464M967.397 -435.349L969.063 -407.464M969.063 -407.464C970.252 -403.09 971.873 -398.87 973.897 -394.88M969.063 -407.464L973.897 -394.88M973.897 -394.88C978.076 -386.35 983.605 -378.7 990.228 -372.286M973.897 -394.88L990.228 -372.286M990.228 -372.286C996.663 -366.008 1004.09 -361.065 1012.14 -357.701M990.228 -372.286L1012.14 -357.701M1012.14 -357.701C1019.87 -354.409 1027.91 -352.106 1036.12 -350.837M1012.14 -357.701L1036.12 -350.837M1036.12 -350.837C1044.14 -349.594 1052.25 -349.151 1060.35 -349.514M1036.12 -350.837L1060.35 -349.514M1060.35 -349.514C1068.57 -349.892 1076.73 -351.246 1084.69 -353.554M1060.35 -349.514L1084.69 -353.554M1084.69 -353.554C1092.94 -356.018 1101.72 -355.285 1109.54 -351.48M1084.69 -353.554L1109.54 -351.48M1109.54 -351.48C1112.38 -350.123 1115 -348.263 1117.28 -345.975M1109.54 -351.48L1117.28 -345.975M1117.28 -345.975C1121.86 -337.787 1124.59 -328.522 1125.25 -318.948M1117.28 -345.975L1125.25 -318.948M1125.25 -318.948C1125.63 -314.336 1125.5 -309.691 1124.86 -305.113M1125.25 -318.948L1124.86 -305.113M1124.86 -305.113C1122.09 -296.031 1118.12 -287.443 1113.07 -279.623M1124.86 -305.113L1113.07 -279.623M1113.07 -279.623C1108.33 -272.132 1102.59 -265.456 1096.05 -259.818M1113.07 -279.623L1096.05 -259.818M1096.05 -259.818C1092.73 -256.904 1089.23 -254.251 1085.57 -251.882M1096.05 -259.818L1085.57 -251.882M1085.57 -251.882L1085.34 -251.667L1053.72 -237.117M1053.72 -237.117C1045.63 -234.02 1037.11 -232.531 1028.54 -232.72M1053.72 -237.117L1028.54 -232.72M1028.54 -232.72C1021.55 -232.91 1014.62 -234.261 1008 -236.724M1028.54 -232.72L1008 -236.724M1008 -236.724C1006.43 -249.823 1003.63 -262.713 999.667 -275.191M1008 -236.724L999.667 -275.191M999.667 -275.191C996.139 -286.462 991.622 -297.333 986.178 -307.651M999.667 -275.191L986.178 -307.651M986.178 -307.651C983.251 -313.142 980.068 -318.464 976.64 -323.595M986.178 -307.651L976.64 -323.595M976.64 -323.595C973.158 -328.799 969.326 -333.71 965.176 -338.289M976.64 -323.595L965.176 -338.289M965.176 -338.289C960.884 -342.964 956.228 -347.222 951.262 -351.015M965.176 -338.289L951.262 -351.015M951.262 -351.015C942.365 -357.824 932.76 -363.452 922.65 -367.782M951.262 -351.015L922.65 -367.782M922.65 -367.782L918.404 -369.641M918.404 -369.641C910.237 -373.094 901.634 -375.156 892.896 -375.754M918.404 -369.641L892.896 -375.754M892.896 -375.754C884.359 -376.403 875.783 -375.497 867.517 -373.073M892.896 -375.754L867.517 -373.073M867.517 -373.073C864.247 -372.119 861.039 -370.924 857.915 -369.498M867.517 -373.073L857.915 -369.498M857.915 -369.498C849.977 -365.437 842.774 -359.842 836.652 -352.982M857.915 -369.498L836.652 -352.982M836.652 -352.982C830.723 -346.418 826.029 -338.644 822.836 -330.102M836.652 -352.982L822.836 -330.102M822.836 -330.102C819.447 -321.239 817.459 -311.81 816.957 -302.217M822.836 -330.102L816.957 -302.217M816.957 -302.217C816.435 -292.641 817.897 -283.06 821.235 -274.19M816.957 -302.217L821.235 -274.19M821.235 -274.19C824.324 -265.833 828.748 -258.146 834.3 -251.489M821.235 -274.19L834.3 -251.489M834.3 -251.489C835.019 -250.666 835.705 -249.808 836.391 -248.986M834.3 -251.489L836.391 -248.986M836.391 -248.986L833.778 -226.249M833.778 -226.249C831.257 -217.282 827.237 -208.906 821.921 -201.546M833.778 -226.249L821.921 -201.546M821.921 -201.546C816.706 -194.313 810.22 -188.296 802.847 -183.85M821.921 -201.546L802.847 -183.85M802.847 -183.85C799.843 -181.992 796.734 -180.344 793.538 -178.917M802.847 -183.85L793.538 -178.917M793.538 -178.917C785.224 -176.03 776.331 -175.794 767.899 -178.238M793.538 -178.917L767.899 -178.238M767.899 -178.238L763.816 -179.525M763.816 -179.525C756.268 -182.072 748.987 -185.487 742.096 -189.713M763.816 -179.525L742.096 -189.713M742.096 -189.713C734.546 -194.317 727.396 -199.666 720.735 -205.693M742.096 -189.713L720.735 -205.693M720.735 -205.693C719.167 -207.159 717.469 -208.589 715.901 -210.019M720.735 -205.693L715.901 -210.019M715.901 -210.019C708.722 -215.566 700.64 -219.558 692.091 -221.781M715.901 -210.019L692.091 -221.781M692.091 -221.781C684.364 -223.827 676.335 -224.094 668.509 -222.567M692.091 -221.781L668.509 -222.567M668.509 -222.567C659.962 -220.891 651.68 -217.881 643.915 -213.63M668.509 -222.567L643.915 -213.63M643.915 -213.63C636.187 -209.446 628.847 -204.454 621.998 -198.722M643.915 -213.63L621.998 -198.722M621.998 -198.722C615.17 -192.998 608.859 -186.569 603.153 -179.525M621.998 -198.722L603.153 -179.525M603.153 -179.525C597.592 -172.643 592.941 -164.942 589.337 -156.645M603.153 -179.525L589.337 -156.645M589.337 -156.645C585.601 -148.16 583.194 -139.048 582.216 -129.69M589.337 -156.645L582.216 -129.69M582.216 -129.69C581.191 -120.189 581.191 -110.59 582.216 -101.09M582.216 -129.69V-101.09M582.216 -101.09C583.196 -92.2955 584.535 -83.5965 586.234 -74.9927M582.216 -101.09L586.234 -74.9927M586.234 -74.9927C587.974 -66.4162 590.155 -57.954 592.766 -49.6463M586.234 -74.9927L592.766 -49.6463M592.766 -49.6463C595.033 -42.1823 597.661 -34.8552 600.638 -27.696M592.766 -49.6463L600.638 -27.696M600.638 -27.696L619.582 16.562M619.582 16.562C622.739 25.0695 624.486 34.1244 624.742 43.3026M619.582 16.562L624.742 43.3026M624.742 43.3026C625.098 52.7079 623.513 62.0802 620.104 70.7226M624.742 43.3026L620.104 70.7226M620.104 70.7226C616.667 79.5425 611.722 87.5628 605.537 94.353M620.104 70.7226L605.537 94.353M605.537 94.353C598.91 100.7 591.359 105.788 583.196 109.404M605.537 94.353L583.196 109.404M583.196 109.404C575.881 112.647 568.184 114.741 560.333 115.624M583.196 109.404L560.333 115.624M560.333 115.624C552.078 116.959 543.696 117.079 535.412 115.982M560.333 115.624L535.412 115.982M535.412 115.982L531.689 115.481M531.689 115.481C524.198 113.336 516.686 111.12 509.152 108.832M531.689 115.481L509.152 108.832M509.152 108.832C501.568 106.489 493.807 104.897 485.962 104.077M509.152 108.832L485.962 104.077M485.962 104.077C477.937 103.255 469.862 103.183 461.825 103.862M485.962 104.077L461.825 103.862M461.825 103.862C453.613 104.513 445.483 106.07 437.557 108.51M461.825 103.862L437.557 108.51M437.557 108.51C431.985 110.213 426.528 112.339 421.226 114.873M437.557 108.51L421.226 114.873M421.226 114.873C413.308 118.89 406.073 124.354 399.833 131.032M421.226 114.873L399.833 131.032M399.833 131.032C394.271 136.979 389.549 143.798 385.821 151.266M399.833 131.032L385.821 151.266M385.821 151.266C382.955 160.345 379.245 169.079 374.749 177.328M385.821 151.266L374.749 177.328M374.749 177.328C370.801 184.644 366.207 191.517 361.031 197.848M374.749 177.328L361.031 197.848M361.031 197.848C356.084 203.936 350.805 209.69 345.222 215.08M361.031 197.848L345.222 215.08M345.222 215.08L337.71 222.444M337.71 222.444C331.186 228.465 324.289 233.983 317.068 238.96M337.71 222.444L317.068 238.96M317.068 238.96C311.319 242.928 305.408 246.539 299.333 249.685M317.068 238.96L299.333 249.685M299.333 249.685L285.713 258.551M285.713 258.551C278.919 262.984 272.093 267.453 265.299 271.993M285.713 258.551L265.299 271.993M265.299 271.993L247.956 283.647M247.956 283.647C241.26 288.152 234.434 292.477 227.477 296.553M247.956 283.647L227.477 296.553M227.477 296.553C222.904 299.234 218.266 301.844 213.497 304.382M227.477 296.553L213.497 304.382M3.44925 413.168C3.16696 413.572 2.99684 414.056 2.95929 414.562M3.44925 413.168L2.95929 414.562M2.95929 414.562C2.93122 415.651 3.23792 416.718 3.83016 417.593C4.42239 418.468 5.26587 419.101 6.22547 419.388M2.95929 414.562L6.22547 419.388M6.22547 419.388C6.80495 419.645 7.43267 419.743 8.05452 419.674M6.22547 419.388L8.05452 419.674M8.05452 419.674C12.6056 419.166 17.0692 417.963 21.3153 416.099M8.05452 419.674L21.3153 416.099M21.3153 416.099C25.4633 414.348 29.6767 412.525 33.9227 410.987M21.3153 416.099L33.9227 410.987M33.9227 410.987C38.2014 409.379 42.4801 407.77 46.7588 406.233M33.9227 410.987L46.7588 406.233M46.7588 406.233C49.1758 405.339 51.5928 404.517 53.9771 403.694L46.7588 406.233ZM54.4016 403.48L76.9056 395.079M449.74 263.234L77.0363 395.15L188.348 353.859L229.175 338.845L335.391 300.736M1211.25 -562.725H1210.99L1205.31 -561.295C1196.89 -559.149 1188.72 -555.984 1180.94 -551.857L1171.86 -545.136C1164.85 -539.614 1158.8 -532.761 1153.99 -524.901C1150.65 -519.468 1147.88 -513.64 1145.73 -507.527L1141.78 -489.652C1140.88 -480.483 1141.83 -471.208 1144.55 -462.483C1147.22 -453.67 1151.55 -445.571 1157.26 -438.709C1159.69 -435.761 1162.28 -432.968 1165 -430.344C1170.59 -424.338 1175.94 -418.153 1181.01 -411.718C1186.07 -405.283 1190.8 -398.562 1195.34 -391.663C1199.88 -384.763 1203.93 -377.649 1207.76 -370.213C1211.58 -362.777 1215.04 -355.699 1218.34 -348.263C1221.64 -340.827 1224.61 -333.176 1227.32 -325.49C1229.08 -320.557 1230.81 -315.623 1232.51 -310.69V-310.082C1234.47 -300.921 1235.88 -291.631 1236.73 -282.269C1237.02 -278.694 1237.35 -275.119 1237.67 -271.544L1236.43 -250.345C1235.72 -241.299 1233.65 -232.444 1230.29 -224.14C1226.92 -215.587 1221.93 -207.911 1215.66 -201.618C1209.4 -195.259 1202.14 -190.196 1194.23 -186.675C1186.26 -183.16 1177.59 -182.001 1169.08 -183.314C1162.54 -184.327 1156.2 -186.589 1150.37 -189.999C1145.42 -186.839 1140.78 -183.112 1136.55 -178.881C1130.18 -172.566 1124.68 -165.268 1120.22 -157.217C1118.43 -153.993 1116.36 -150.975 1114.02 -148.208C1113.23 -147.305 1112.31 -146.545 1111.3 -145.956C1109.12 -144.669 1106.9 -143.453 1104.61 -142.381C1096.81 -138.123 1088.56 -134.918 1080.05 -132.836C1071.67 -130.76 1063.09 -129.836 1054.51 -130.083C1051.06 -130.165 1047.62 -130.499 1044.22 -131.084C1036.12 -132.433 1028.13 -134.44 1020.31 -137.09C1012.49 -139.764 1004.85 -143.025 997.446 -146.849C989.517 -150.87 981.931 -155.655 974.779 -161.149C981.087 -155.168 986.586 -148.235 991.11 -140.558C995.89 -132.517 999.442 -123.679 1001.63 -114.389C1003.79 -105.425 1004.74 -96.1624 1004.44 -86.8974C1004.11 -77.5171 1001.97 -68.3188 998.165 -59.9064C994.34 -51.4185 988.985 -43.8665 982.422 -37.706C975.732 -31.3179 967.639 -26.9443 958.938 -25.0148C950.536 -23.0913 941.794 -24.156 933.984 -28.0536C927.024 -31.4 920.29 -35.2826 913.832 -39.6722C906.816 -44.7277 899.093 -48.4952 890.968 -50.826C886.842 -52.0337 882.621 -52.8117 878.361 -53.1497C876.258 -50.6314 874.617 -47.6944 873.527 -44.4983C871.077 -37.1922 871.147 -29.1585 873.723 -21.9046C875.622 -16.1974 878.418 -10.8981 881.986 -6.2463C884.837 2.85926 885.676 12.5742 884.436 22.1031C883.267 31.2518 879.884 39.8918 874.638 47.1278C869.287 54.6334 862.749 61.0267 855.334 66.0036C848.083 70.9906 839.756 73.7903 831.197 74.1188C822.932 74.4954 814.689 72.9226 807.028 69.5071C798.996 65.9755 791.489 61.1562 784.752 55.2073C781.887 52.733 779.18 50.0454 776.652 47.1636L776.946 48.5936V48.8438C778.18 58.1337 778.519 67.5398 777.959 76.9073L777.077 86.3093C774.918 94.9397 771.616 103.178 767.278 110.762C762.736 118.808 756.931 125.912 750.131 131.747C743.622 137.388 736.489 142.109 728.901 145.797C721.85 149.255 714.51 151.961 706.985 153.876C698.852 155.97 690.515 156.955 682.162 156.808C675.127 156.698 668.1 157.381 661.193 158.845C646.74 163.259 633.147 170.529 621.084 180.295C614.481 185.615 608.712 192.075 604.002 199.421C599.029 207.237 595.47 216.023 593.517 225.304C592.211 232.454 590.85 239.496 589.435 246.432C589.233 247.11 588.936 247.75 588.553 248.327C583.888 255.158 578.08 260.957 571.438 265.415C556.615 275.403 539.49 280.538 522.086 280.215C513.773 280.087 505.508 278.802 497.492 276.39L493.572 275.21C485.319 273.091 477.381 269.709 469.99 265.165L463.981 261.59L450.067 263.163M1366.82 -843.43C1373.09 -838.024 1378.94 -832.044 1384.29 -825.556L1366.82 -843.43ZM1366.82 -843.43C1360.69 -848.735 1354.13 -853.414 1347.22 -857.408M1366.82 -843.43L1347.22 -857.408M1347.22 -857.408C1340.37 -861.375 1333.22 -864.711 1325.86 -867.383M1347.22 -857.408L1325.86 -867.383M1325.86 -867.383C1318.89 -869.878 1311.77 -871.884 1304.56 -873.389M1038.27 -490.367L1027.07 -489.938L1016.72 -489.545L1038.27 -490.367ZM1412.84 -587.678C1414.5 -596.592 1414.87 -605.735 1413.95 -614.776C1412.96 -624.233 1410.3 -633.388 1406.11 -641.731C1403.38 -647.161 1400.23 -652.317 1396.67 -657.139L1412.84 -587.678ZM829.336 -291.921C833.203 -283.624 835.649 -274.621 836.554 -265.359C837.109 -259.811 837.109 -254.213 836.554 -248.664L829.336 -291.921ZM974.811 -160.899L961.747 -170.909C954.693 -176.718 948.33 -183.467 942.803 -191C939.811 -195.12 937.093 -199.468 934.67 -204.013C929.655 -211.973 925.2 -220.339 921.344 -229.038C917.512 -237.604 914.237 -246.456 911.545 -255.528L910.533 -258.638L974.811 -160.899ZM1422.25 -709.262C1426.27 -717.487 1428.65 -726.553 1429.23 -735.86C1430.04 -744.93 1428.92 -754.081 1425.97 -762.601C1423.11 -770.667 1419.46 -778.374 1415.09 -785.587C1410.36 -793.477 1405.18 -801.035 1399.58 -808.217C1394.74 -814.33 1389.78 -820.229 1384.33 -825.842L1422.25 -709.262ZM1384.29 -825.699C1392.18 -828.363 1400.45 -829.465 1408.69 -828.952C1417.24 -828.444 1425.57 -825.855 1433.09 -821.373C1439.9 -817.343 1446.16 -812.302 1451.71 -806.394C1458.01 -799.69 1463.44 -792.063 1467.84 -783.729C1472.01 -775.645 1475.17 -766.989 1477.25 -757.989C1479.2 -749.303 1480.39 -740.432 1480.81 -731.498C1481.2 -722.786 1480.88 -714.053 1479.86 -705.401C1478.85 -696.63 1477.11 -687.979 1474.67 -679.554C1472.28 -671.14 1469.44 -662.89 1466.14 -654.851C1462.84 -646.847 1459.09 -639.074 1454.91 -631.578C1450.55 -623.749 1445.53 -616.387 1439.92 -609.592C1437.55 -606.716 1435.03 -603.994 1432.37 -601.441C1427.11 -596.607 1421.38 -592.422 1415.29 -588.965L1412.68 -587.535C1412.32 -586.427 1411.92 -585.39 1411.53 -584.317C1408.48 -576.36 1404.25 -569.014 1398.99 -562.582C1393.44 -555.78 1386.9 -550.04 1379.62 -545.6C1372.12 -540.987 1364.06 -537.546 1355.68 -535.376C1347.35 -533.187 1338.77 -532.32 1330.2 -532.802C1322.07 -533.204 1313.98 -534.4 1306.03 -536.377C1298.17 -538.38 1290.46 -541.057 1282.98 -544.385C1275.39 -547.789 1268.06 -551.854 1261.06 -556.54L1260.18 -556.862L1259.39 -557.148C1251.35 -559.937 1243.04 -561.759 1234.64 -562.582C1227.14 -563.297 1219.6 -563.297 1212.1 -562.582L1384.29 -825.699Z" stroke="white" stroke-width="2.93952" stroke-linecap="round" stroke-linejoin="round"/>
</svg>
