<?xml version="1.0" encoding="utf-8"?>
<!-- Generator: Adobe Illustrator 23.0.1, SVG Export Plug-In . SVG Version: 6.00 Build 0)  -->
<svg version="1.1" id="圖層_1" xmlns="http://www.w3.org/2000/svg" xmlns:xlink="http://www.w3.org/1999/xlink" x="0px" y="0px"
	 viewBox="0 0 1280 1695" style="enable-background:new 0 0 1280 1695;" xml:space="preserve">
<style type="text/css">
	.st0{opacity:0.58;}
	.st1{fill:#231815;}
</style>
<g class="st0">
	<path class="st1" d="M-1745.5,3433.1c-0.2,0.7-0.2,1.5,0,2.2c0.7,2.1,2.1,3.9,4,5.2c1.9,1.3,4.2,1.9,6.6,1.8
		c1.4,0.1,2.9-0.2,4.2-0.7c12.3-5,23.8-11.6,34.1-19.6c10.2-7.9,20.8-15.8,31.6-23.5c10.7-7.7,21.6-15.4,32.4-22.8
		c6.1-4.2,12.2-8.5,18.3-12.5l0.4-0.2c0.2-0.2,0.4-0.5,0.6-0.6l56.8-40.1c0.1-0.1,0.3-0.2,0.5-0.3l280.7-197.4l103.2-72.1
		l268.9-185.4l101.2-76.3c5.3-3.9,10.7-7.8,16.1-11.8c17.6-12.8,35.9-25.3,54.3-37c19.2-12.4,39.1-24.1,59.2-35
		c20.1-10.8,41.1-21.4,62.2-31.1l0.5-0.2l0.5-0.2l30.8-12.9l-28.6-6.7c-0.4,0-0.8-0.2-1.2-0.4c-0.4-0.2-0.7-0.5-0.9-0.8
		c-0.3-0.4-0.5-0.9-0.5-1.4c0-0.5,0.2-1,0.5-1.4c0.3-0.4,0.8-0.8,1.4-1c0.5-0.2,1.1-0.2,1.7-0.1c0.1,0,0.2,0,0.4,0l3.8,0.9l32.5,7.5
		l20.2,3.7c24.6,4.5,49.8,5.8,74.8,3.7c4.2,0,8.2-0.3,12.2-0.5c24.6-1.2,48.9-5.3,72.4-12.2c24.4-7.1,47.5-17.4,68.8-30.5
		c21.6-13.2,40.9-29.3,57.5-47.8c14.9-16.4,26.2-35.2,33.6-55.6c0.5-1.4,0.7-2.9,0.7-4.3c-2-18.2-4.2-36.6-6.4-54.7
		c-2.5-24.6,0.1-49.3,7.7-72.9c7-22.4,18-43.6,32.3-62.6c26.1-34.5,58.7-64.2,96.3-87.6c18.5-9.7,38.1-17.5,58.3-23.4
		c23.6-6.9,46.2-16.5,67.3-28.5c19.6-11.1,38-24,54.9-38.5c18.4-15.5,34.6-33.1,48.2-52.4c14.1-19.9,24.4-41.9,30.3-65
		c5.8-21.9,8.2-44.5,7-67.1c-1.9-7.8-3.7-15.6-5.5-23.2c-6.4-22.9-15.3-45.1-26.6-66.3c-0.1-0.2-0.3-0.5-0.4-0.7l-1.4-2.3l-3.1-1.1
		c-23.4-7.7-45.8-17.5-67.1-29.3c-21.3-11.9-41.4-25.6-59.9-41.1c-2.4-2.1-4.9-4.1-7.3-6.1c-20.5-15.1-39.2-32.1-55.9-50.9
		c-14.7-16.8-27.5-34.8-38.4-53.9c0-0.1,0-0.2,0-0.3l-22-55c-0.3-0.6-0.2-1.3,0.1-2c0.3-0.6,0.9-1.1,1.5-1.4
		c0.7-0.2,1.4-0.2,2.1,0.1c0.7,0.3,1.2,0.8,1.4,1.4l21.9,54.8c10.6,18.8,23.2,36.5,37.5,52.9c16.4,18.5,34.8,35.3,54.9,50.1
		c2.4,2,4.9,4,7.4,6.1c18.2,15.2,38,28.7,59,40.3c21,11.7,43.3,21.5,66.5,29.1h0.2l3.9,1.5h0.3c9.3,4.8,18.9,8.9,28.8,12.4
		c24,8.4,49.2,13.5,74.8,15.1c24.3,1.5,48.6-1.8,71.5-9.8c23.5-8.2,44.4-21.9,60.5-39.9c16.6-18.3,29.5-39.3,38.1-61.9
		c8.4-21.7,10.5-45,6.1-67.7c-4.4-23.6-14.6-46-29.8-65.3c-14.2-8.3-26.8-18.8-37.2-31c-13.9-15.8-21.2-35.8-20.5-56.3
		c0.4-9,2.5-17.9,6.5-26.1c0.2-0.3,0.4-0.7,0.8-0.9c0.3-0.3,0.7-0.4,1.1-0.6c12.6-2.9,25.4-4.8,38.4-5.5c25.3-1.4,50.6,1,75.1,7.2
		c22,4.9,44.4,8.3,66.9,10.3c25,2.5,50.2-2.5,71.9-14.2c22.7-12,41.6-29.4,54.9-50.3c13.1-20.4,21.7-43.1,25.2-66.7
		c3.5-23.3,1.7-47.1-5.2-69.7c-7.1-22.6-17.7-44.1-31.5-63.8c-14-20.3-31.5-38.4-51.7-53.6c-19.2-14.4-40.5-26.3-63.2-35.3
		l-45.9-12.7c-25.3-8-49.4-18.8-71.8-32.3c-12.1-7.4-23.6-15.7-34.4-24.6c-21.1-14.9-41-31.2-59.4-48.9
		c-18.3-17.5-35.3-36.2-50.9-55.9c-1.7-2.1-3.5-4.4-5.4-6.6c-0.2-0.3-0.4-0.6-0.5-0.9c-0.1-0.3-0.1-0.7-0.1-1c0-0.3,0.2-0.7,0.3-1
		c0.2-0.3,0.4-0.6,0.7-0.8c0.3-0.2,0.6-0.4,1-0.5c0.4-0.1,0.7-0.1,1.1-0.1c0.4,0,0.7,0.2,1,0.3c0.3,0.2,0.6,0.4,0.8,0.7
		c1.9,2.2,3.8,4.5,5.5,6.7c15.4,19.5,32.2,38,50.4,55.3c18.3,17.5,38,33.7,58.9,48.4v0.2c10.7,8.8,22,16.9,33.9,24.2
		c22,13.3,45.6,23.9,70.4,31.8l45.9,12.7c24.9,7.1,50.4,12.2,76.3,15.2c24.2,2.8,48.6,4.1,73,3.8c24.3-0.4,48.6-2.5,72.6-6.3
		c10.1-1.6,20-3.7,29.7-6.5c24.4-6.9,47.7-16.6,69.6-28.8c22.2-12.5,42.6-27.3,61-44.3c5.5-4.8,10.8-9.6,15.9-14.6
		c2.2-2.1,3.9-4.5,5.2-7.2c4.2-8.6,7.5-17.5,9.7-26.7c5.9-23.7,15.5-46.5,28.5-67.6c8.5-14.1,18.6-27.3,30.1-39.5
		c0.3-0.3,0.7-0.6,1.2-0.7c0.4-0.1,0.9-0.2,1.4-0.1c19.1,3.1,38.7,3.1,57.8-0.1c24.8-4.2,48-14.4,67.3-29.6
		c19.2-15.3,35.2-33.7,47.3-54.3c12.2-20.4,19.7-43,21.9-66.3c2.3-22.8,0.7-45.8-4.9-68.1l-14.6-52.2l-11.8-24.9
		c-10.3-21.9-22.2-43.1-35.6-63.4l-0.8-1.3c-8.9-10.3-18.1-20.8-27.3-31.1c-14.2-16.2-29.3-32.1-44.8-47.2
		c-15.6-15.1-32-29.7-48.8-43.8c-16.8-14.1-34.9-28-53.3-40.8c-18.4-12.8-37.9-24.8-57.7-35.9c-19.8-11.1-40.4-21.5-61.2-31
		c-10-4-19.8-8.6-29.3-13.6c-22.5-11.8-42-27.9-57.4-47.2c-15.5-19.1-26.3-41-31.9-64.4c0-0.1,0-0.3,0-0.3l-4.1-47
		c0-0.4,0-0.7,0-1.1c0.9-16.6,3.8-33.1,8.6-49.2c7-23.5,18.4-45.7,33.8-65.5l20.7-24.3l0.2-0.2c18.7-16.9,39.4-31.9,61.7-44.5
		c4.9-2.8,9.9-5.7,14.9-8.4l0.5-0.3c0.4-0.3,0.9-0.4,1.3-0.5h0.2c0.3-0.3,0.7-0.5,1.1-0.6c0.1-0.1,0.3-0.2,0.5-0.3
		c20.8-8.4,42.4-15.1,64.4-19.9c24.8-5.4,50.1-8.3,75.6-8.5h5.3c0.2,0,0.4,0,0.7,0c23.7,5.2,47.8,8.6,72.1,10.2
		c24,1.5,48,1.3,71.9-0.7c24.1-2.1,48-6.1,71.3-12.1c24.5-6.2,47.9-15.8,69.5-28.2c21.7-12.5,41.4-27.7,58.6-45.2
		c16.6-16.9,30.1-36.3,39.9-57.4c9.3-19.9,15-41.2,16.9-62.8c0.2-2.8,0.3-5.7,0.5-8.5c-2.9-22.7-9.6-44.9-19.9-65.7
		c-10.8-21.7-26-41.2-44.7-57.5c-12.3-10.7-25.5-20.3-39.7-28.7c-0.6-0.4-1.1-0.9-1.2-1.6c-0.2-0.7,0-1.4,0.4-1.9
		c0.4-0.6,1-1,1.8-1.1c0.7-0.1,1.5,0,2.1,0.4c14.5,8.6,28.1,18.4,40.6,29.3c19.2,16.9,34.7,37,45.8,59.3
		c9.7,19.8,16.3,40.7,19.6,62.2c0.7-0.7,1.5-1.4,2.3-2.1c14.2-13.6,26.7-28.6,37.4-44.7c5.4-8.4,10.1-17.1,14.3-26
		c10-21.3,17.9-43.3,23.6-66c5.4-21.7,9.4-43.7,11.9-65.9c2.5-22.3,3.5-44.6,3.1-67c-0.3-22.4-2.7-44.7-7.3-66.7
		c-4.5-21.7-11-43-19.5-63.6c-8.8-21.1-19.8-41.3-32.7-60.5c-13.4-19.8-29.7-37.8-48.3-53.6c-19.4-16.2-41.2-29.8-64.6-40.5
		c-20.6-9.4-42.4-16-65-19.8c-24.8-4.2-50.3-3.3-74.6,2.8c-22,5.5-42.9,14.4-61.8,26.3c18.5,8.5,36.8,17.7,54.4,27.6
		c22.2,12.5,43.5,26.3,63.9,41.3c18.7,13.8,35.8,29.5,50.9,46.7c15.8,18.4,27,40,32.5,63c6.4,23.4,7.4,47.8,2.9,71.6
		c-0.1,0.6-0.5,1.2-1.1,1.6c-0.6,0.4-1.3,0.6-2,0.5c-0.7-0.1-1.3-0.5-1.7-1c-0.4-0.5-0.6-1.2-0.5-1.8c4.4-23.1,3.4-46.8-2.8-69.5
		c-5.4-22.4-16.3-43.3-31.7-61.1c-14.9-16.9-31.7-32.3-50.1-45.8c-20.2-14.9-41.3-28.6-63.2-41c-18.8-10.5-38.4-20.4-58.2-29.3h-0.2
		c-20.6-10.8-42.2-20.1-64.5-27.5c-21.9-7.4-44.5-12.9-67.4-16.5c-22.7-3.6-45.7-5.4-68.8-5.4c-21.8,0.1-43.6,1.4-65.2,4l-29.2,6
		c-0.2,0-0.4,0-0.6,0l-27.7,8c-24.2,8.6-47.3,19.6-69,32.9c-19.3,11.9-37.4,25.5-54,40.5l-0.9,0.7c-16.3,15.9-31.2,33.1-44.6,51.3
		c-13.1,18.1-24.3,37.3-33.6,57.4c-10.3,22.1-18.1,45.1-23.2,68.7c-3.3,15.1-5.1,30.5-5.4,45.9l2.7,67.8l3.4,25.6c0,0.3,0,0.7-0.1,1
		c-0.1,0.3-0.3,0.6-0.5,0.9c-0.2,0.3-0.5,0.5-0.8,0.6c-0.3,0.2-0.7,0.3-1,0.3c-0.7,0.1-1.4-0.1-2-0.6c-0.6-0.4-0.9-1-1-1.7
		l-3.1-22.8c-22.2,5.4-44,12.5-65,21.1c-5.4,2.3-10.7,4.5-16.1,6.7l-0.5,0.4c-19.1,16.4-33.5,37-42.1,59.8
		c-8.5,22-10.5,45.7-5.8,68.6c4.5,23.3,12.1,46,22.5,67.5c9.9,20.6,20.5,40.9,31.7,60.7c11.6,20.2,21.6,41.1,29.9,62.6
		c8.5,21.5,15.5,43.5,21,65.9c0.7,3.2,1.5,6.3,2.3,9.5c0,0.1,0,0.2,0,0.3c3.3,22.8,4.9,45.7,4.9,68.7c-0.1,18.3-1.3,36.6-3.7,54.8
		c-3.9,23.1-10.1,45.7-18.7,67.7c-8.3,21.6-19,42.3-32.1,61.8c-13.3,19.9-28.6,38.6-45.5,55.9c-16.7,17.1-34.5,33.1-53.4,48
		c-3.7,2.9-7.5,5.8-11.3,8.5l43.3-14.9c0.3-0.1,0.7-0.2,1-0.2c0.4,0,0.7,0.1,1,0.2c0.3,0.1,0.6,0.3,0.9,0.6c0.2,0.2,0.4,0.5,0.5,0.9
		c0.3,0.6,0.2,1.3-0.1,2s-0.8,1.1-1.5,1.4l-60.5,21c-23.3,10.4-43.9,25.4-60.4,44c-14.7,16.4-24.8,36-29.6,56.9
		c-5.5,23.2-6.2,47.2-2.1,70.6c4,23.4,13.6,45.6,28,65c7.1,9.4,15.2,18,24.2,25.8c18.9,16.8,40.9,30.4,64.8,40.1
		c23.3,9.4,48.3,14.8,73.7,15.9c24.5,1.2,49.1-0.2,73.2-4.2c23.7-4,47-10.1,69.5-18c22.8-8,44.7-18.3,65.1-30.8
		c21.9-13.4,48.1-19.5,74.1-17.1c9.5,0.9,18.7,3.2,27.5,6.8c0.2,0.1,0.5,0.2,0.7,0.4c20.6,16,36.7,36.3,47.2,59.3
		c5.1,11,8.8,22.5,11,34.4c0,0.2,0,0.3,0,0.5c0,24.8-3.9,49.4-11.5,73.2c-7.1,22.5-17.8,43.9-31.7,63.6c-6.9,10-14.6,19.5-22.9,28.5
		l-0.2,0.3c-0.2,0.4-0.5,0.8-0.9,1L679.5,939c0,0,0,0-0.2,0c-20.6,14.7-43.8,25.9-68.6,33.1c-20.3,5.9-41.5,8.7-62.8,8.5
		c-0.5,0-1-0.1-1.5-0.4c-0.4-0.3-0.8-0.6-1-1c-15.6-30.2-34.5-58.8-56.3-85.4c-19.6-24.1-41.6-46.3-65.7-66.5
		c-12.9-10.6-26.5-20.7-40.5-30c-14.2-9.5-29.2-18-44.8-25.4c-16-7.5-32.8-13.7-50-18.5c-30.9-8.7-62.8-13.9-95-15.5
		c-4.5-0.3-9.2-0.5-13.6-0.8c-25.9-1.2-51.8,1.3-76.9,7.4C78.1,750.4,54.8,760,33.7,773c-8.4,5.1-16.4,10.7-23.9,16.8
		c-18.8,16.6-34.2,36.1-45.6,57.8c-11,20.8-17.6,43.3-19.4,66.5c-2,24.2,0.5,48.5,7.2,71.9c6.6,23.3,18.8,44.9,35.6,63.1
		c15.8,17.3,34.8,31.7,56.1,42.7c0.9,0.5,1.8,0.9,2.7,1.4c-3-11.7-7.3-23.2-12.6-34.2c-10.4-21.3-24.9-40.7-42.7-57.2
		c-0.5-0.5-0.8-1.2-0.8-1.8c0-0.7,0.3-1.3,0.8-1.8c0.5-0.5,1.2-0.7,2-0.7c0.7,0,1.4,0.3,2,0.7c18.3,17,33.1,36.9,43.9,58.7
		c6.3,13.2,11.2,26.9,14.4,41l12.1,57.4c0,0,0,0.3,0,0.4c0.6,24.3-3.7,48.4-12.7,71.2c-8.7,22.4-22.2,43-39.5,60.5
		c-7,7.2-14.5,14-22.5,20.3c0,0,0,0-0.2,0c-21.6,14.5-47.1,23-73.7,24.5c-4.3,0.2-8.6,0.5-13,0.7c-23.8,0.4-47.7-1.5-71.1-5.7
		c-25.6-4.6-50.7-11.4-74.9-20.2c-5.7-2.1-11.4-4.2-17.2-6.2c-24.8-7-50.8-9.6-76.6-7.6c-23.3,1.8-46,8.2-66.6,18.5
		c-22.6,11.4-43.3,25.8-61.5,42.7c-18.3,16.8-34.8,35.3-49.3,55c-14.5,19.7-26.8,40.6-36.8,62.5c-9.8,21.3-16.3,43.8-19.5,66.8
		c-3.3,23.6-2.3,47.5,2.9,70.8c5.2,23.6,13.3,46.5,24.2,68.3c10.2,20.2,21.4,40.3,33.6,59.5c12.1,19.2,25.3,37.8,39.7,55.6
		c13,16.1,26.9,31.5,41.7,46.2l91.9,90.6c16.5,18.1,29.4,38.8,38.1,61c9.2,22.8,12.7,47.3,10.4,71.5c-2.2,24.7-9.5,48.8-21.4,70.9
		v0.2c-13.5,21.5-30.8,40.7-51.1,56.9c-18.4,14.4-38.8,26.4-60.7,35.5c-22.5,10.5-46.4,18.2-71.1,22.8c-3.4,0.6-6.9,1.3-10.3,2h-0.5
		c-22.9,1.4-46.5,2.6-69.8,3.6c-23.5,1-46.9,4-69.8,8.9c-23.4,5-46.2,11.8-68.3,20.4c-22.6,8.8-44.2,19.6-64.5,32.3
		c-14.2,8.9-27.8,18.8-40.6,29.4c-18.8,16.5-34.4,35.8-46.3,57.2c-10.6,19-18,39.3-22.1,60.4c-0.4,24.6-3.5,49.1-9.2,73.1
		c-5,21.3-12.2,42.2-21.6,62.2c-8.9,19.2-19,37.9-30.3,55.9c-4.9,7.9-10,16.1-15,24.3c-13.4,20.4-28.3,40-44.6,58.5
		c-13,14.6-26.8,28.7-41.2,42.1c-10.3,11-20.8,22.2-31,33.3c-15.5,16.6-31.1,33.6-46.5,50.4c-13.1,14.5-26.1,29-39.2,43.4
		c-15.3,16.8-31,33.4-47.2,49.3c-10.7,10.4-21.8,21-33.1,31.3l-98.3,87.7l-243.9,218.3l-30.5,26l-1.6,1.5
		c-9.6,8.8-19.7,17.6-29.9,26.2c-10.3,8.6-20.1,16.9-29.3,24.9c-9.2,7.9-18.3,15.8-26.6,23.2c-8.5,7.5-17.6,14.5-27.1,21
		c-6.9,4.2-12.2,10.2-15.3,17.3H-1745.5z M-1751.1,3434c0-0.9,0.2-1.8,0.5-2.6c3.5-8.1,9.6-14.9,17.4-19.6
		c9.3-6.3,18.1-13.2,26.5-20.6c8.4-7.3,17.4-15.2,26.7-23.2c9.3-8,19.1-16.4,29.3-24.9c10.3-8.6,20.2-17.3,29.7-26.1l1.6-1.5
		l30.3-26l243.9-218.3l98.4-87.7c11.2-10.2,22.3-20.7,32.9-31c16.1-15.9,31.9-32.4,47-49.1l39.2-43.4c15.3-16.8,31-33.9,46.5-50.5
		c10.3-11.1,20.7-22.3,31.1-33.3c14.3-13.3,28.1-27.3,40.9-41.8c16.1-18.3,30.8-37.6,44.1-57.8c5-8.2,10.1-16.4,15-24.4
		c11.2-17.9,21.2-36.4,30-55.4c9.2-19.7,16.4-40.2,21.4-61.2c5.6-23.8,8.6-48,9-72.3c0,0,0-0.3,0-0.5c4.2-21.8,11.9-42.8,22.9-62.4
		c12.2-21.9,28.2-41.7,47.5-58.6c13-10.9,26.8-20.9,41.3-30c20.6-12.9,42.5-23.9,65.5-32.7c22.4-8.8,45.5-15.7,69.2-20.7
		c23.3-5,47-8,70.8-9c23.2-1,46.6-2.2,69.5-3.6c3.4-0.7,6.9-1.4,10.2-2c24.2-4.5,47.7-12,69.8-22.3c21.4-8.9,41.4-20.6,59.4-34.7
		c19.8-15.7,36.7-34.4,49.9-55.3c11.6-21.6,18.6-45.1,20.8-69.1c2.2-23.5-1.2-47.1-10.1-69.2c-8.5-21.7-21-41.9-37-59.5l-91.9-90.6
		c-14.8-14.9-28.8-30.6-41.9-46.8c-14.5-18-27.9-36.7-40.1-56.1c-12.2-19.4-23.6-39.5-33.9-59.9c-11.1-22.2-19.3-45.5-24.6-69.5
		c-5.3-23.8-6.4-48.3-3.1-72.4c3.2-23.5,9.9-46.5,19.9-68.3c10.2-22.3,22.8-43.5,37.5-63.4c14.8-20,31.5-38.7,50-55.7
		c18.6-17.2,39.8-31.9,62.8-43.7c21.3-10.7,44.7-17.2,68.7-19.1c26.6-2.1,53.3,0.6,78.8,7.8c5.9,2,11.7,4.1,17.5,6.2
		c23.9,8.7,48.7,15.4,73.9,19.9c23,4.2,46.4,6.1,69.8,5.7c4.3-0.3,8.6-0.5,12.9-0.7c25.4-1.5,49.9-9.6,70.6-23.4
		c7.7-6.2,15-12.9,21.9-19.9c16.8-17,29.9-37,38.4-58.8c8.6-22.1,12.8-45.6,12.2-69.1l-11.7-56l-7-3.6
		c-21.8-11.3-41.2-26.2-57.4-43.8c-17.3-18.9-29.8-41.2-36.6-65.2c-6.9-24-9.4-48.8-7.4-73.5c1.8-23.8,8.6-47,20-68.3
		C-29,823-13.2,802.9,6.1,785.9c7.7-6.3,16-12.1,24.6-17.3c21.7-13.2,45.5-23.1,70.6-29.1c25.6-6.3,52-8.9,78.4-7.7
		c4.6,0.2,9.2,0.5,13.7,0.7c32.7,1.7,65,7,96.4,15.8c17.5,4.9,34.5,11.2,50.8,18.9c15.9,7.5,31.1,16.1,45.5,25.8
		c14.2,9.5,27.9,19.6,40.9,30.4c24.4,20.3,46.7,42.8,66.5,67.2c21.7,26.5,40.5,54.9,56.2,84.9c20.1,0,40.1-2.8,59.4-8.3
		c24.2-7,46.8-17.9,66.8-32.2l76.9-62.6l0.2-0.3c0.1-0.2,0.2-0.3,0.4-0.5c8.2-8.9,15.8-18.3,22.6-28.1
		c13.6-19.2,24.1-40.1,31.1-62.2c7.5-23.2,11.3-47.3,11.3-71.5c-2.1-11.4-5.7-22.4-10.6-33c-10-22.1-25.5-41.8-45.2-57.2
		c-8.1-3.3-16.7-5.4-25.5-6.2c-24.8-2.2-49.8,3.5-70.6,16.3c-20.7,12.7-42.9,23.2-66.1,31.3c-22.9,8.1-46.5,14.2-70.5,18.3
		c-24.6,4.1-49.7,5.5-74.6,4.3c-26-1.2-51.6-6.7-75.6-16.3c-24.5-10-47-23.8-66.5-41c-9.3-8.1-17.6-17-24.9-26.7
		c-15-20-24.9-42.9-29-67.1c-4.2-24.1-3.4-48.7,2.2-72.6c4.9-21.7,15.4-42,30.7-59c17-19.1,38.1-34.5,62.1-45.3
		c8.7-6,17.3-12.3,25.5-18.7c18.7-14.8,36.4-30.7,52.9-47.6c16.7-17.1,31.8-35.6,44.9-55.2c12.9-19.2,23.5-39.6,31.7-61
		c8.4-21.6,14.5-43.9,18.3-66.6c2.3-18,3.5-36,3.6-54.1c0.1-22.7-1.5-45.3-4.7-67.8c-0.8-3.2-1.5-6.3-2.3-9.4
		C519-46.9,512-68.7,503.7-90c-8.2-21.3-18.1-42.1-29.6-62c-11.2-19.9-21.9-40.4-31.8-61c-10.6-21.9-18.3-45-22.9-68.7
		c-4.8-23.8-2.7-48.4,6.1-71.2c8.9-23.7,23.9-44.9,43.7-61.9l0.4-0.3c0.1-0.1,0.3-0.2,0.5-0.3l0.6-0.4l0.3-0.1l16.3-6.8
		c21.6-8.9,43.9-16.1,66.7-21.6l-2.6-65.9c0,0,0,0,0-0.1c0.3-15.8,2.2-31.5,5.6-47c5.2-23.9,13.1-47.3,23.5-69.7
		c9.4-20.3,20.8-39.8,34-58.2c13.5-18.5,28.6-35.9,45.2-52.1l0.9-0.8c16.9-15.3,35.2-29.1,54.9-41.2c22-13.5,45.5-24.7,70.2-33.4
		h0.2l28.2-8.1c0.3-0.1,0.6-0.1,0.9-0.1l29-6h0.2c21.8-2.7,43.8-4.2,65.8-4.3c23.3,0.1,46.6,2,69.7,5.7c23.3,3.6,46.2,9.2,68.4,16.7
		c22,7.4,43.3,16.4,63.8,27.1c20-13.1,42.4-22.8,66-28.8c25.1-6.2,51.5-7.2,77-2.8c23,3.8,45.3,10.5,66.4,20.1
		c23.9,10.8,46.1,24.7,65.9,41.2c19,16.1,35.5,34.5,49.2,54.7c13.1,19.5,24.2,40.1,33.1,61.5c8.7,20.9,15.3,42.5,19.8,64.5
		c4.7,22.3,7.2,44.9,7.4,67.6c0.5,22.6-0.5,45.2-3.1,67.6c-2.5,22.4-6.5,44.6-12,66.6c-5.7,22.9-13.7,45.3-23.9,66.8
		c-4.2,9.2-9,18-14.5,26.6c-10.9,16.5-23.7,31.8-38.2,45.6c-1.8,1.7-3.7,3.4-5.4,5.1c0,2.6-0.3,5.2-0.4,7.8
		c-1.9,22.2-7.8,44-17.3,64.5c-10,21.6-23.8,41.5-40.9,58.9c-17.6,17.9-37.7,33.4-59.8,46.2c-22.1,12.8-46,22.5-71.1,28.9
		c-23.7,6.1-47.8,10.1-72.3,12.2c-24.2,2-48.5,2.2-72.8,0.7c-24.5-1.6-48.8-5.1-72.7-10.2h-5c-25,0.3-50,3.2-74.3,8.5
		c-21.7,4.7-43,11.2-63.5,19.5h-0.3c-0.5,0.4-1,0.6-1.6,0.7c0,0,0,0-0.2,0l-0.6,0.4c0,0,0,0-0.2,0.1c-4.9,2.8-9.9,5.5-14.8,8.5
		c-21.9,12.4-42.2,27-60.5,43.7L750.6,89c-14.9,19.2-26.1,40.8-32.9,63.7c-4.8,15.9-7.6,32.2-8.4,48.6l4.1,46.7
		c5.3,22.6,15.8,43.9,30.8,62.4c14.9,18.7,33.9,34.4,55.7,45.9c9.4,4.9,19,9.4,28.9,13.3c21.1,9.6,41.8,20.2,61.7,31.3
		c19.9,11.2,39.7,23.4,58.1,36.2c18.5,12.8,36.6,26.7,53.8,41.1c17.1,14.4,33.3,28.7,49,43.9c15.7,15.2,30.9,31.3,45.2,47.6
		c9.2,10.3,18.5,20.9,27.5,31.3c0,0.1,0,0.2,0,0.3l0.9,1.4c13.5,20.6,25.5,42,36,64.1c4,8.4,7.9,16.8,11.9,25.1
		c0,0.1,0.1,0.3,0.2,0.4l14.6,52.4c5.8,22.8,7.6,46.4,5.3,69.8c-2.3,24-10.1,47.3-22.6,68.3c-12.4,21.2-28.9,40.1-48.5,55.7
		c-20,15.8-44.1,26.4-69.8,30.8c-19.3,3.3-38.9,3.4-58.2,0.4c-10.8,11.6-20.3,24.2-28.4,37.5c-12.7,20.7-22.1,43.1-27.9,66.4
		c-2.3,9.5-5.7,18.8-10.1,27.7c-1.5,3.2-3.6,6-6.1,8.6c-5.2,5-10.6,10-16,14.8c-18.7,17.3-39.5,32.4-62.1,45
		c-22.3,12.4-46.1,22.2-71,29.3c-10,2.8-20.2,5-30.5,6.6c-24.2,3.8-48.7,5.9-73.2,6.3c-24.5,0.3-48.9-0.9-73.2-3.7
		c-16.5-1.9-32.8-4.6-49-8.2c13.4,7,26.1,15,38.1,24c20.7,15.5,38.5,34,52.8,54.8c14,20.1,24.7,42.1,31.9,65.1
		c7.2,23.4,9.1,47.9,5.5,72c-3.6,24.3-12.4,47.6-25.9,68.7c-13.8,21.7-33.4,39.7-56.8,52.1c-22.7,12.3-49,17.5-75.1,14.9
		c-22.8-2-45.4-5.6-67.7-10.6c-23.9-6-48.6-8.3-73.2-7.1c-12.1,0.7-24.2,2.3-36,5.1c-3.3,7.3-5.2,15.1-5.5,23
		c-0.6,19.2,6.2,38,19.3,52.9c10.1,11.9,22.3,22.1,36.2,30.1c0.3,0.2,0.6,0.4,0.8,0.7c15.9,20.1,26.5,43.3,31.2,67.9
		c4.6,23.6,2.3,47.8-6.4,70.4c-8.9,23.1-22.1,44.6-39.1,63.4c-16.7,18.7-38.3,33-62.8,41.5c-23.5,8.2-48.7,11.7-73.8,10.1
		c-26.1-1.6-51.8-6.7-76.3-15.3c-7.3-2.6-14.6-5.5-21.6-8.7c10.6,20.6,19.1,42.1,25.3,64.2c1.9,7.9,3.7,15.7,5.5,23.6
		c0,0.1,0,0.3,0,0.4c1.2,23.1-1.2,46.2-7.1,68.7c-6.1,23.7-16.6,46.3-31.1,66.6c-13.8,19.6-30.2,37.5-48.8,53.3
		c-17.3,14.7-36,27.7-56,39c-21.5,12.3-44.5,22-68.5,29.1c-19.9,5.8-39,13.5-57.2,23c-19.7,12.2-37.9,26.1-54.6,41.8
		c-14.8,13.7-28.3,28.5-40.2,44.4c-14,18.6-24.7,39.3-31.5,61.1c-7.3,23-9.9,47.1-7.5,70.9c2.3,18,4.4,36.4,6.5,54.7
		c0,0,0,0.1,0,0.2c0.1,2.1-0.2,4.2-0.9,6.2c-7.6,21-19.3,40.4-34.7,57.3c-16.9,18.8-36.7,35.2-58.7,48.8
		c-21.7,13.4-45.3,23.9-70.2,31.1c-23.9,7-48.7,11.2-73.8,12.4c-4,0.2-8.1,0.4-12.2,0.5c-25.5,2.1-51.2,0.8-76.3-3.8l-19.3-3.5
		l-37.3,15.7c-0.1,0.1-0.3,0.1-0.5,0.1l-0.4,0.2c-21,9.6-41.8,19.9-61.9,30.9c-20.1,11-39.7,22.4-58.8,34.7
		c-18.3,11.8-36.6,24.2-54.1,37c-5.4,4-10.7,7.9-16,11.8l-101.3,76.3l-269,185.4l-103.2,72l-280.7,197.3l-0.5,0.3l-56.8,40.1
		l-0.4,0.2c-0.2,0.3-0.4,0.5-0.7,0.6c-6.1,4.1-12.2,8.3-18.3,12.5c-10.7,7.4-21.6,15.1-32.3,22.8s-21.3,15.5-31.4,23.4
		c-10.7,8.3-22.6,15.1-35.4,20.3c-2.1,0.9-4.4,1.3-6.7,1.2c-3.5,0-6.9-1-9.7-2.9c-2.8-1.9-4.9-4.6-5.9-7.8c0-0.1,0-0.2,0-0.3
		c-0.2-0.9-0.3-1.7-0.2-2.6"/>
</g>
</svg>
