<svg width="1920" height="900" viewBox="0 0 1920 900" fill="none" xmlns="http://www.w3.org/2000/svg">
<g style="mix-blend-mode:soft-light" opacity="0.58">
<g style="mix-blend-mode:soft-light" opacity="0.58">
<path d="M2466.23 110.48C2457.77 89.3743 2450.18 67.7028 2443.48 45.556C2427.92 -6.29889 2420.89 -61.8035 2422.85 -117.39C2424.45 -172.601 2435.26 -226.708 2454.52 -275.99L2286.23 -405.036C2277.57 -410.92 2268.8 -416.938 2260.13 -423.022C2226.65 -445.98 2192.22 -466.516 2156.98 -484.536C2118.47 -504.299 2078.65 -519.429 2038 -529.736C1997.19 -539.873 1955.77 -545.355 1914.22 -546.118L1968.01 -522.314L1914.22 -546.118L1864.71 -568.049C1821.56 -581.628 1776.65 -582.882 1733.09 -571.726C1694.3 -562.07 1657.95 -540.161 1627.25 -507.939C1593.04 -472.954 1564.28 -429.838 1542.52 -380.898C1520.55 -332.072 1507.46 -277.396 1504.25 -221.028C1502.75 -193.749 1503.46 -166.342 1506.36 -139.254C1531.27 -154.767 1556.39 -169.677 1581.92 -183.919C1620.17 -205.088 1659.78 -221.89 1700.28 -234.133C1740.43 -246.443 1781.36 -253.963 1822.57 -256.599C1863.86 -259.698 1905.28 -258.087 1946.35 -251.785C1986.22 -245.799 2025.6 -235.146 2063.99 -219.958C2102.46 -204.733 2139.77 -184.97 2175.45 -160.918C2211.18 -136.939 2245.83 -110.328 2279.22 -81.217C2312.12 -52.5549 2344.2 -22.1543 2375.46 9.98466C2406.71 42.1236 2436.97 75.5553 2466.23 110.28" fill="#89CFD9"/>
</g>
<g style="mix-blend-mode:soft-light" opacity="0.58">
<path d="M145.033 618.842C149.52 604.734 154.007 590.692 158.597 576.584C127.137 544.68 98.3856 508.526 72.8274 468.734C44.7138 425.235 19.7168 378.505 -1.85361 329.123C-6.80485 317.311 -11.9624 305.543 -17.3262 293.82C-19.1563 320.128 -22.1874 346.273 -26.4035 372.116C-35.4464 425.25 -45.1942 478.184 -55.6468 530.917C-65.4461 580.752 -74.3857 630.877 -82.4659 681.292C-89.9959 728.23 -99.3139 774.566 -110.42 820.301C-122.233 869.46 -136.995 917.347 -154.568 963.522C-172.422 1009.07 -192.67 1052.97 -215.169 1094.91L-249.26 1225.49C-209.07 1206.48 -170.935 1180.84 -135.795 1149.2C-100.488 1117.57 -68.5312 1080.07 -40.7415 1037.67C-14.6854 997.748 8.95473 955.275 29.9683 910.633C52.7646 863.294 73.9106 814.952 93.406 765.607C112.076 717.465 129.509 668.388 144.981 618.842" fill="#89CFD9"/>
</g>
<g style="mix-blend-mode:soft-light" opacity="0.58">
<path d="M1074.73 766.944C1106.11 728.995 1133.63 686.012 1156.63 639.035C1178.65 594.687 1197.29 547.66 1212.28 498.622C1226.86 448.983 1237.88 397.704 1245.18 345.438C1252.47 292.151 1255.75 238.072 1254.98 183.963C1254.31 131.031 1249.41 78.3306 1240.39 26.701C1231.26 -25.6816 1218.31 -76.8182 1201.7 -126.015C1168.82 -164.306 1131.61 -195.872 1091.38 -219.624C1052.13 -243.139 1010.15 -258.073 967.14 -263.82C950.179 -266.383 933.092 -267.254 916.029 -266.428C939.343 -217.506 959.906 -166.468 977.558 -113.712C995.178 -60.7526 1009.12 -5.86401 1019.23 50.3035C1028.52 100.902 1033.18 152.745 1033.1 204.758C1033.18 258.208 1027.42 311.403 1015.98 362.756C1007.11 401.617 995.494 439.332 981.272 475.42C981.272 482.151 981.117 488.704 980.807 495.078C978.605 552.194 979.553 609.441 983.644 666.382C987.651 723.728 995.031 780.593 1005.72 836.482C1030.28 816.025 1053.37 792.752 1074.73 766.944" fill="#89CFD9"/>
</g>
<g style="mix-blend-mode:soft-light" opacity="0.58">
<path d="M598.533 1592.71C584.78 1541.44 572.316 1489.8 561.141 1437.78C549.313 1382.6 538.534 1326.88 528.803 1270.62C520.276 1221.9 512.678 1173.03 506.007 1123.99C498.247 1067.65 494.329 1010.53 494.3 953.292C494.313 897.087 497.277 840.948 503.17 785.264C508.832 732.954 516.909 681.131 527.359 630.075C537.984 578.466 551.146 527.791 566.763 478.362C540.131 522.833 507.271 560.397 469.905 589.087C433.363 617.355 392.845 635.903 350.714 643.648C333.427 646.968 315.993 648.844 298.52 649.264C289.237 687.769 282.22 727.13 277.529 767.011C271.57 815.399 268.998 864.386 269.844 913.374C270.999 970.255 275.36 1026.95 282.892 1083.01C289.769 1134.09 296.646 1185.22 303.523 1236.39C310.399 1287.56 317.981 1338.83 326.267 1390.18C334.279 1440.06 343.442 1489.51 353.757 1538.55C364.072 1587.13 375.539 1635.19 388.158 1682.7C400.776 1730.22 415.097 1776.91 431.12 1822.78C421.889 1788.41 417.402 1752.19 417.865 1715.8C417.732 1669.11 430.712 1623.95 454.38 1588.76C464.743 1573.44 477.279 1560.84 491.308 1551.65C510.877 1563.54 529.543 1577.77 547.061 1594.18C581.446 1626.33 611.594 1665.49 636.338 1710.12C622.02 1671.97 609.449 1632.77 598.688 1592.71" fill="#89CFD9"/>
</g>
<g style="mix-blend-mode:soft-light" opacity="0.58">
<path d="M1651.75 1192.8C1657.66 1138.98 1656.26 1084.24 1647.63 1031.05C1642.05 997.05 1633.86 963.854 1623.18 931.963C1579.87 930.374 1537.12 918.734 1496.98 897.595C1464.07 880.38 1433.42 856.626 1406.15 827.188C1420.36 750.236 1428.42 671.591 1430.19 592.498C1432.17 521.133 1428.71 449.688 1419.87 379.204C1415.18 341.619 1408.93 304.389 1401.15 267.676C1393.43 230.337 1383.45 193.849 1371.29 158.555C1358.79 122.313 1343.82 87.5853 1326.57 54.7834C1295.82 -4.24484 1259.75 -58.3168 1219.14 -106.29C1213.52 -112.977 1207.84 -119.663 1202.07 -126.349C1218.67 -77.1527 1231.63 -26.0161 1240.75 26.3665C1249.74 78.0008 1254.6 130.701 1255.24 183.629C1256 237.74 1252.7 291.819 1245.39 345.104C1238.08 397.398 1227.05 448.701 1212.43 498.354C1197.45 547.406 1178.8 594.435 1156.73 638.767C1133.76 685.86 1106.2 728.918 1074.73 766.877C1053.38 792.718 1030.29 816.013 1005.72 836.482C1009.62 867.594 1015.26 898.299 1022.59 928.352C1036.32 983.368 1055.25 1035.97 1078.96 1084.95L1124.86 1171.87C1149.48 1219.68 1177.3 1264.58 1208 1306.06C1236.48 1344.6 1266.97 1380.57 1299.24 1413.71C1331.86 1446.85 1366.34 1476.79 1402.39 1503.31C1444.7 1502.38 1486.22 1488.25 1523.43 1462.12C1561.14 1436.29 1592.05 1396.45 1612.19 1347.72C1632.31 1299.51 1645.67 1247.06 1651.65 1192.8" fill="#7565AB"/>
</g>
<g style="mix-blend-mode:soft-light" opacity="0.58">
<path d="M4408.6 -693.952C4427.76 -739.954 4443.66 -788.115 4456.1 -837.841C4468.94 -888.813 4477.94 -941.279 4482.98 -994.502C4488.09 -1049.66 4487.41 -1105.47 4480.96 -1160.39C4474.06 -1217.39 4461.02 -1272.84 4442.23 -1325.14C4425.82 -1371.2 4404.54 -1414.07 4379 -1452.52C4350.88 -1495.19 4315.79 -1529.2 4276.26 -1552.08C4238.17 -1574.1 4197.35 -1587.16 4155.73 -1590.66C4171.62 -1546.75 4185.92 -1501.91 4198.64 -1456.13C4213.28 -1402.88 4225.34 -1348.51 4234.74 -1293.31C4243.43 -1242.69 4247.88 -1190.99 4248 -1139.13C4247.75 -1084.56 4237.87 -1030.79 4219.12 -981.932C4200.98 -931.204 4174.73 -886.055 4142.11 -849.476C4151.84 -798.918 4157.2 -747.115 4158.1 -695.021C4159.15 -644.137 4155.29 -593.283 4146.6 -543.643C4137.05 -488.047 4121.98 -434.288 4101.78 -383.706C4082.27 -334.792 4058.15 -289.2 4029.99 -247.973C4024.57 -239.415 4018.9 -231.191 4012.92 -223.034C4029.71 -230.965 4046.09 -240.278 4061.97 -250.915C4099.77 -275.863 4135.68 -305.345 4169.24 -338.974C4201.32 -371.174 4231.84 -405.897 4260.63 -442.947C4289.46 -480.267 4316.5 -519.834 4341.61 -561.429C4367.03 -602.859 4389.47 -647.218 4408.66 -693.952H4408.6ZM-659.905 2309.88C-621.205 2316.75 -582.087 2318.78 -543.087 2315.97C-501.059 2313.07 -459.475 2303.37 -419.307 2287.08C-377.602 2270.34 -338.508 2244.17 -303.829 2209.79C-270.768 2177.51 -241.465 2139.23 -216.822 2096.12C-224.384 2043.54 -236.62 1992.27 -253.286 1943.34C-269.813 1894.73 -290.857 1848.93 -315.95 1806.94C-341.922 1763.29 -370.813 1722.71 -402.287 1685.65C-433.232 1649.54 -465.26 1614.84 -498.372 1581.54C-531.483 1548.24 -565.419 1516.68 -600.181 1486.86C-635.986 1456.19 -673.265 1428.52 -711.79 1404.02C-750.692 1379.41 -791.007 1358.76 -832.373 1342.24L-846.144 1336.75C-845.225 1391.78 -851.897 1446.58 -865.845 1498.56C-879.636 1551.94 -902.556 1600.58 -932.893 1640.85C-963.669 1682.24 -1000.28 1715.6 -1040.74 1739.14C-1016.12 1780.8 -993.718 1824.58 -973.689 1870.19C-953.667 1915.29 -936.205 1962.21 -921.443 2010.6C-905.452 2061.84 -894.098 2115.31 -887.61 2169.94C-885.276 2189.99 -884.138 2210.24 -884.206 2230.52C-849.207 2238.47 -814.946 2251.15 -781.984 2268.36C-742.786 2288.6 -701.822 2302.55 -660.008 2309.88H-659.905ZM4247.9 -1139.4C4247.77 -1191.26 4243.33 -1242.96 4234.64 -1293.58C4225.23 -1348.77 4213.17 -1403.15 4198.54 -1456.39C4185.82 -1502.13 4171.51 -1546.97 4155.63 -1590.92C4140.86 -1639.49 4122.99 -1686.36 4102.19 -1731.07C4081.85 -1775.21 4058.4 -1816.82 4032.16 -1855.37C4006.29 -1893.59 3978.02 -1928.95 3947.62 -1961.08C3918.83 -1991.44 3888.55 -2019.34 3856.95 -2044.59C3885.77 -2006.88 3913.77 -1968.1 3940.97 -1928.25C3968.17 -1888.4 3994.4 -1847.61 4019.67 -1805.89C4045.13 -1763.65 4068.43 -1719.29 4089.4 -1673.1C4111.31 -1625.44 4126.14 -1572.9 4133.14 -1518.18C4140.25 -1463.92 4139.23 -1408.39 4130.15 -1354.63C4120.83 -1300.42 4113.15 -1245.84 4107.09 -1190.88C4100.84 -1136.07 4099.72 -1080.48 4103.74 -1025.33C4107.61 -969.984 4118.67 -915.887 4136.44 -865.322C4138.45 -860.174 4140.36 -855.092 4142.11 -849.743C4174.73 -886.322 4200.98 -931.472 4219.12 -982.199C4237.87 -1031.05 4247.75 -1084.83 4248 -1139.4" fill="#F29666"/>
</g>
<g style="mix-blend-mode:soft-light" opacity="0.58">
<path d="M-2669.9 2096.92C-2680.18 2043.08 -2696.88 1991.64 -2719.41 1944.47C-2727.45 1927.49 -2735.64 1910.55 -2743.96 1893.66C-2770.26 1899.34 -2796.56 1905.36 -2822.77 1911.38C-2862.27 1920.27 -2901.88 1929.5 -2941.39 1938.72L-3042.53 1963.6C-3081.72 1973.23 -3121.06 1981.38 -3160.53 1988.07C-3186.53 1992.26 -3212.83 1995.91 -3239.44 1999.03C-3228.56 2052.3 -3222.78 2107.09 -3222.22 2162.18C-3222.22 2184.05 -3221.91 2206.04 -3221.91 2228.04L-2657.36 2262.88C-2655.17 2207.06 -2659.38 2151.14 -2669.84 2096.92H-2669.9ZM636.131 1709.92C659.456 1749.63 684.93 1787.15 712.359 1822.18C742.868 1862.18 782.414 1888.52 825.258 1897.4C869.516 1906.99 914.937 1901.43 957.032 1881.29C998.215 1862.09 1035.96 1832.25 1067.97 1793.56C1099.64 1755.29 1124.78 1708.85 1141.78 1657.23C1158.49 1605.91 1169.38 1551.72 1174.11 1496.36C1179.03 1439.22 1176.84 1381.42 1167.61 1325.19C1158.88 1271.72 1144.4 1220.12 1124.6 1171.87L1078.75 1084.95C1055.06 1035.92 1036.11 983.309 1022.33 928.286C1015.12 898.222 1009.52 867.547 1005.56 836.482C995.045 780.363 987.77 723.304 983.8 665.78C979.77 608.834 978.857 551.59 981.067 494.477C981.067 487.79 981.428 481.505 981.428 474.418C995.743 438.383 1007.42 400.685 1016.29 361.82C1027.7 310.548 1033.48 257.45 1033.47 204.089C1033.59 152.073 1028.93 100.223 1019.59 49.6352C1009.47 -6.49073 995.505 -61.3351 977.869 -114.247C960.311 -167.104 939.744 -218.195 916.34 -267.096C872.139 -262.91 828.882 -248.437 788.639 -224.37C749.874 -201.472 714.924 -168.995 685.747 -128.756C655.167 -86.9903 630.234 -38.8435 611.994 13.6627C593.73 66.1253 584.912 123.287 586.206 180.821C587.015 234.792 595.259 288.141 610.55 338.351C612.561 345.037 614.469 351.122 616.326 357.34C628.148 327.524 637.452 296.139 644.074 263.732C654.984 209.78 658.235 153.705 653.667 98.2449C658.235 153.705 654.984 209.78 644.074 263.732C637.452 296.139 628.148 327.524 616.326 357.34L566.401 478.429C550.854 527.886 537.711 578.556 527.049 630.142C516.599 681.176 508.522 732.977 502.86 785.265C497.02 840.956 494.056 897.09 493.99 953.293C494.079 1010.54 498.083 1067.66 505.955 1123.99C512.66 1173.03 520.241 1221.79 528.7 1270.29C538.499 1326.63 549.296 1382.35 561.089 1437.45C572.333 1489.34 584.797 1540.93 598.481 1592.24C609.287 1632.26 621.822 1671.46 636.028 1709.65L636.131 1709.92ZM2375.4 9.91835C2344.15 -22.2206 2312.09 -52.6659 2279.22 -81.4171C2245.75 -110.442 2211.06 -137.006 2175.29 -160.984C2139.63 -185.018 2102.34 -204.759 2063.89 -219.958C2025.53 -235.155 1986.19 -245.83 1946.35 -251.852C1905.28 -258.11 1863.86 -259.743 1822.57 -256.732C1781.26 -253.931 1740.23 -246.3 1699.97 -233.932C1659.38 -221.664 1619.69 -204.84 1581.35 -183.651C1555.92 -169.476 1530.76 -154.499 1505.85 -139.053C1511.48 -81.5975 1524.87 -25.8755 1545.4 25.5641C1565.51 75.6173 1592.41 120.557 1624.83 158.221C1655.84 194.803 1690.02 226.597 1726.69 252.966C1762.62 278.623 1800.27 300.018 1839.18 316.888C1878.63 334.112 1919.43 345.616 1960.84 351.188C2003.9 356.711 2044.18 381.318 2074.88 420.86C2085.94 435.227 2095.22 451.739 2102.36 469.804C2145.59 478.949 2187.9 494.288 2228.52 515.539C2268.73 536.547 2306.83 563.804 2341.98 596.711C2373.87 626.381 2403.96 659.172 2431.98 694.799C2463.39 734.233 2492.96 776.051 2520.54 820.034C2544.12 857.79 2566.47 896.86 2587.58 937.245C2587.58 905.753 2587.58 874.126 2587.58 842.366C2587.58 792.888 2585.99 743.364 2582.79 693.796C2579.59 644.228 2575 594.994 2569.02 546.095C2563.07 496.17 2555.3 446.647 2545.71 397.525C2536.11 348.402 2524.56 299.838 2511.05 251.83C2497.67 203.866 2482.73 156.661 2466.23 110.213C2436.83 75.3107 2406.57 41.879 2375.46 9.91835" fill="#57BA8D"/>
</g>
<g style="mix-blend-mode:soft-light" opacity="0.58">
<path d="M-1108.97 2256.59C-1107.59 2205.38 -1111.88 2154.18 -1121.71 2104.54C-1132.27 2050.38 -1149.46 1998.75 -1172.61 1951.63C-1193.5 1908.85 -1216.57 1867.93 -1241.67 1829.13C-1258.18 1803.99 -1274.27 1778.39 -1289.95 1752.31C-1331.1 1740.39 -1370.84 1721.39 -1408.11 1695.81C-1413.26 1692.27 -1418.68 1688.59 -1423.99 1685.11C-1455.86 1655.74 -1487.72 1625.74 -1519.56 1595.11C-1551.71 1564.12 -1585.98 1536.99 -1621.94 1514.07C-1658.41 1490.61 -1696.37 1471.26 -1735.4 1456.24C-1803.45 1429.78 -1874.46 1418.48 -1945.42 1422.81C-1917.09 1460.67 -1890.77 1501 -1866.66 1543.49C-1842.95 1585.96 -1821.71 1630.66 -1803.12 1677.22C-1782.66 1728.28 -1765.94 1781.71 -1753.2 1836.82C-1740.68 1891.02 -1733.22 1946.95 -1730.97 2003.45C-1728.85 2055.89 -1730.91 2108.48 -1737.1 2160.38C-1743.64 2212.85 -1755.25 2264.05 -1771.66 2312.76C-1789.63 2364.22 -1813.32 2412 -1841.96 2454.57C-1850.67 2467.34 -1859.49 2479.38 -1868.42 2490.81L-1851.91 2506.59C-1817.98 2538.8 -1781.05 2565.33 -1742 2585.56C-1701.57 2606.58 -1659.05 2620.08 -1615.7 2625.68C-1571.85 2631.54 -1527.57 2629.04 -1484.28 2618.26C-1445.51 2608.96 -1408.46 2590.12 -1375.15 2562.76C-1372.41 2560.46 -1370 2557.57 -1368.03 2554.2C-1349.74 2518 -1331.64 2481.79 -1313.72 2445.55C-1289.25 2398.15 -1257.98 2357.29 -1221.61 2325.19C-1187.22 2294.55 -1149.16 2271.49 -1108.97 2256.93V2256.59ZM2873.42 -528.198C2883.22 -526.593 2892.91 -524.854 2902.66 -522.915C2941.35 -551.64 2977.16 -586.45 3009.27 -626.554C3040.82 -666.36 3068.14 -711.444 3090.5 -760.614C3111.74 -807.05 3129.29 -856.155 3142.9 -907.179C3156.15 -956.571 3165.75 -1007.48 3171.57 -1059.23C3177.5 -1111.18 3179.58 -1163.75 3177.76 -1216.22C3175.82 -1268.96 3169.54 -1321.27 3159.04 -1372.28C3147.62 -1427.54 3131.1 -1480.81 3109.84 -1530.95C3095.33 -1564.55 3078.79 -1596.61 3060.38 -1626.83C3046.28 -1649.78 3032.16 -1672.72 3018.03 -1695.63C2986.68 -1732.88 2952.83 -1766.45 2916.89 -1795.93L2897.6 -1811.64H2896.68C2852.07 -1808.12 2808.82 -1790.44 2770.73 -1760.15C2733.77 -1731.4 2703.49 -1690.26 2683.05 -1641.07C2662.11 -1592 2645.93 -1539.76 2634.88 -1485.55C2624.15 -1434.11 2614.8 -1382.53 2606.82 -1330.82C2599.05 -1278.29 2588.24 -1226.6 2574.49 -1176.17C2561.09 -1125.46 2545.19 -1075.92 2526.88 -1027.87C2524.25 -1021.18 2521.72 -1014.49 2518.99 -1007.34C2551.06 -968.996 2579.37 -925.677 2603.26 -878.361C2626.69 -831.961 2645.24 -781.73 2658.45 -728.988C2671.99 -675.569 2680.53 -620.232 2683.88 -564.17C2684.44 -554.207 2684.91 -544.111 2685.42 -534.349L2687.95 -516.764L2742.67 -532.41C2786.19 -537.331 2829.99 -535.918 2873.26 -528.198" fill="#B273AE"/>
</g>
<g style="mix-blend-mode:soft-light" opacity="0.58">
<path d="M326.475 1390.04C318.394 1338.87 310.813 1287.61 303.73 1236.26C296.647 1184.91 289.77 1133.78 283.1 1082.87C275.59 1026.81 271.229 970.12 270.051 913.241C269.204 864.253 271.776 815.265 277.736 766.878C282.365 727.05 289.313 687.733 298.521 649.265C254.544 645.869 212.213 626.371 176.442 593.033L158.597 576.384C154.007 590.492 149.52 604.534 145.032 618.575C129.182 668.187 111.99 717.22 93.4572 765.674C73.9617 815.108 52.8159 863.45 30.0196 910.701C9.01806 955.353 -14.6227 997.827 -40.6901 1037.74C-96.5352 1122.56 -168.323 1187.25 -249.106 1225.56C-256.669 1274.99 -260.469 1325.27 -260.453 1375.67C-260.159 1432.48 -255.144 1489.08 -245.496 1544.5C-244.568 1551.18 -243.742 1558.61 -242.865 1565.76C-236.322 1619.04 -225.821 1671.37 -211.508 1722.02C-197.4 1772.67 -179.449 1821.39 -157.921 1867.45L-154.465 1875.67C-147.633 1897.43 -139.601 1918.53 -130.431 1938.79C-108.381 1987.8 -80.87 2032.32 -48.7875 2070.91C-18.2187 2107.94 18.1148 2136.06 57.7671 2153.35C98.7518 2171.43 142.676 2175.26 185.158 2164.45C228.412 2153.91 269.851 2133.37 307.495 2103.81C344.162 2075.47 374.353 2034.99 394.967 1986.53C416.662 1936.26 429.023 1880.13 431.069 1822.58C415.253 1776.71 400.932 1730.02 388.107 1682.5C375.282 1634.99 363.832 1587 353.758 1538.55C343.443 1489.25 334.348 1439.72 326.475 1389.98" fill="#996EAD"/>
</g>
<g style="mix-blend-mode:soft-light" opacity="0.58">
<path d="M-2437.55 2264.15L-2403.04 2264.88C-2365.22 2265.95 -2327.4 2268.54 -2289.58 2272.64C-2250.28 2276.61 -2211.22 2282.69 -2172.4 2290.89C-2133.58 2299.09 -2094.68 2308.9 -2055.68 2320.31L-2019.79 2285.74L-2023.97 2278.32L-2019.79 2285.74C-1991.43 2243.07 -1970.62 2192.86 -1958.83 2138.64C-1946.79 2086.19 -1944.54 2030.77 -1952.28 1976.97C-1959.38 1925.16 -1971.97 1874.88 -1989.67 1827.53C-2008.78 1776.37 -2032.37 1728.22 -2059.96 1684.04C-2083.96 1645.6 -2110.8 1610.31 -2140.11 1578.66C-2151.01 1566.9 -2161.93 1555.26 -2172.86 1543.76C-2201.4 1587.78 -2233.28 1627.97 -2268.02 1663.71C-2298.78 1695.37 -2331.84 1723.07 -2366.74 1746.42C-2400.18 1768.93 -2434.62 1788.84 -2469.89 1806.07C-2485.74 1813.73 -2501.59 1821.56 -2517.44 1829.54C-2498.19 1875.55 -2482.16 1923.71 -2469.52 1973.43C-2455.38 2028.19 -2446.06 2084.85 -2441.73 2142.32C-2438.84 2182.84 -2437.36 2223.36 -2437.29 2263.88L-2437.55 2264.15ZM2328.94 1509.13C2368.93 1488.54 2405.13 1457.26 2435.18 1417.32C2464.71 1378.65 2489.1 1333.91 2507.39 1284.93C2498.06 1232.3 2485.16 1180.84 2468.86 1131.15C2452.63 1082.3 2433.02 1035.46 2410.27 991.204C2386.56 945.679 2359.25 903.483 2328.78 865.3C2296.72 825.318 2259.88 792.309 2219.7 767.546C2179.61 742.802 2136.66 726.721 2092.57 719.939C2085.55 718.802 2078.49 717.733 2071.37 716.797C2043.31 761.558 2010.29 800.675 1973.38 832.871C1938.6 863.65 1900.51 887.579 1860.32 903.88C1839.87 912.418 1818.98 919.12 1797.81 923.939L1796.63 924.675C1807.34 955.333 1816.83 986.689 1825.05 1018.62C1838.17 1069.32 1847.79 1121.43 1853.77 1174.34C1859.8 1226.08 1859.71 1278.7 1853.52 1330.4C1847.07 1384.62 1829.68 1435.66 1803.13 1478.37C1776.54 1520.93 1743.55 1556.03 1706.17 1581.54C1718.75 1580.54 1731.33 1578.93 1743.76 1576.93C1749.49 1575.85 1755.04 1573.59 1760.22 1570.24C1775.89 1560.25 1790.72 1548.17 1804.47 1534.2C1839.01 1499.75 1877.21 1471.94 1917.88 1451.62C1944.88 1437.89 1972.92 1427.9 2001.54 1421.8C2023.44 1454.54 2049.63 1481.99 2078.9 1502.91C2116.88 1530.26 2159.76 1544.1 2203.2 1543.03C2246.37 1541.92 2289.01 1530.59 2329.04 1509.59" fill="#688AC6"/>
</g>
<g style="mix-blend-mode:soft-light" opacity="0.58">
<path d="M-4408.24 2121.33C-4409.36 2122.35 -4410.29 2123.67 -4410.97 2125.21C-4412.5 2129.98 -4412.76 2135.27 -4411.71 2140.26C-4410.67 2145.24 -4408.38 2149.64 -4405.2 2152.75C-4403.4 2154.87 -4401.25 2156.4 -4398.91 2157.23C-4377.08 2165.07 -4354.51 2168.91 -4331.86 2168.67C-4309.37 2168.67 -4286.42 2168.67 -4263.62 2169.6C-4240.83 2170.54 -4217.72 2171.54 -4195.08 2172.95C-4182.24 2173.68 -4169.29 2174.55 -4156.81 2175.49H-4156.09C-4155.58 2175.39 -4155.06 2175.39 -4154.54 2175.49L-4034.32 2181.1C-4034.02 2180.97 -4033.69 2180.97 -4033.39 2181.1L-3439.61 2210.46L-3221.49 2222.02L-2656.95 2256.86L-2437.03 2258.06L-2402.48 2258.87C-2364.67 2259.94 -2326.46 2262.54 -2289.01 2266.55C-2249.71 2270.57 -2210.15 2276.65 -2171.42 2284.88C-2132.69 2293.1 -2093.03 2302.86 -2054.4 2314.43L-2053.42 2314.83H-2052.54L-1997.35 2334.22L-2027.27 2282.47C-2027.83 2281.71 -2028.24 2280.77 -2028.44 2279.74C-2028.64 2278.71 -2028.63 2277.64 -2028.41 2276.62C-2028.19 2275.6 -2027.77 2274.67 -2027.19 2273.93C-2026.61 2273.18 -2025.89 2272.65 -2025.1 2272.37C-2024.18 2272 -2023.19 2272.01 -2022.26 2272.39C-2021.34 2272.78 -2020.53 2273.52 -2019.94 2274.51L-2019.58 2275.18L-2015.72 2281.87L-1981.68 2340.51L-1959.4 2375.07C-1932.33 2417.43 -1900.74 2454.55 -1865.58 2485.33C-1859.91 2490.88 -1854.39 2496.03 -1848.92 2501.31C-1815.31 2533.15 -1778.75 2559.39 -1740.1 2579.41C-1700.05 2600.27 -1657.92 2613.64 -1614.98 2619.12C-1571.59 2624.86 -1527.79 2622.41 -1484.95 2611.84C-1446.77 2602.59 -1410.3 2584 -1377.47 2557.08C-1375.27 2555.25 -1373.31 2553 -1371.64 2550.39C-1353.44 2514.42 -1335.28 2477.91 -1317.54 2442C-1292.71 2393.89 -1260.96 2352.41 -1224.04 2319.84C-1189.21 2288.89 -1150.71 2265.55 -1110.05 2250.77C-1036.47 2224.07 -959.708 2215.21 -883.639 2224.63H-883.277C-847.979 2232.7 -813.414 2245.45 -780.127 2262.68C-741.294 2282.75 -700.712 2296.58 -659.286 2303.86C-620.863 2310.74 -582.016 2312.76 -543.293 2309.88C-501.61 2307.09 -460.366 2297.47 -420.544 2281.26C-379.394 2264.69 -340.813 2238.87 -306.562 2204.97C-273.909 2173.05 -244.956 2135.22 -220.586 2092.64C-214.14 2075.93 -207.641 2059.21 -201.297 2042.7C-183.37 1992.11 -169.542 1939.25 -160.037 1884.97V1884.97C-159.97 1884.35 -159.866 1883.75 -159.728 1883.16L-159.006 1877.08L-161.739 1870.72C-183.546 1824.44 -201.739 1775.46 -216.048 1724.49C-230.47 1673.47 -241.058 1620.76 -247.663 1567.1C-248.489 1560.01 -249.314 1552.92 -250.191 1546.04C-259.856 1490.24 -264.887 1433.26 -265.199 1376.07C-265.314 1325.11 -261.513 1274.27 -253.853 1224.29C-253.853 1224.29 -253.853 1223.82 -253.853 1223.49L-219.813 1093.17C-219.412 1091.65 -218.567 1090.39 -217.458 1089.66C-216.349 1088.94 -215.065 1088.8 -213.882 1089.29C-212.721 1089.85 -211.772 1090.97 -211.234 1092.42C-210.696 1093.86 -210.61 1095.52 -210.993 1097.05L-245.033 1227.23C-252.413 1276.17 -256.058 1325.94 -255.915 1375.8C-255.593 1432.05 -250.614 1488.09 -241.062 1542.96C-241.062 1542.96 -241.062 1542.96 -241.062 1542.96C-240.236 1549.65 -239.308 1557.07 -238.431 1564.29C-232.03 1617.16 -221.666 1669.09 -207.486 1719.35C-193.385 1769.59 -175.451 1817.88 -153.951 1863.5C-153.929 1863.55 -153.917 1863.61 -153.917 1863.67C-153.917 1863.73 -153.929 1863.79 -153.951 1863.84L-150.547 1872.06L-150.238 1872.73C-143.494 1894.18 -135.584 1914.98 -126.565 1934.98C-104.652 1983.86 -77.2782 2028.27 -45.3337 2066.77C-15.2204 2103.15 20.5232 2130.79 59.5189 2147.87C99.75 2165.55 142.843 2169.31 184.537 2158.77C227.235 2148.23 268.128 2127.85 305.275 2098.59C341.11 2070.81 370.631 2031.22 390.838 1983.86C412.111 1934.65 424.292 1879.72 426.426 1823.38C417.283 1788.7 412.799 1752.25 413.171 1715.6C413.178 1667.75 426.49 1621.51 450.666 1585.35C461.447 1569.44 474.471 1556.35 489.038 1546.77C489.682 1546.37 490.387 1546.17 491.101 1546.17C491.815 1546.17 492.52 1546.37 493.164 1546.77C513.079 1558.78 532.074 1573.19 549.897 1589.83C584.577 1622.34 614.999 1661.87 639.999 1706.91C663.163 1746.37 688.464 1783.64 715.711 1818.44C745.562 1857.49 784.211 1883.25 826.082 1891.99C869.559 1901.38 914.172 1895.94 955.536 1876.21C996.108 1857.21 1033.3 1827.78 1064.88 1789.69C1096.1 1751.97 1120.94 1706.25 1137.8 1655.42C1154.32 1604.63 1165.11 1551.01 1169.83 1496.22C1174.67 1439.73 1172.47 1382.59 1163.33 1326.99C1154.7 1274.18 1140.43 1223.18 1120.94 1175.48L1075.24 1088.56C1051.2 1038.99 1031.98 985.765 1017.99 930.091C1010.69 899.793 1005.02 868.872 1001.03 837.552C990.405 781.248 983.077 723.984 979.106 666.249C975.11 608.988 974.179 551.437 976.321 494.009C976.321 487.79 976.734 481.171 976.785 474.552C976.792 473.752 976.92 472.963 977.162 472.228C977.404 471.493 977.756 470.827 978.196 470.268C978.637 469.71 979.158 469.269 979.73 468.971C980.302 468.674 980.914 468.525 981.53 468.534C982.144 468.551 982.75 468.726 983.311 469.049C983.873 469.372 984.379 469.836 984.801 470.414C985.223 470.993 985.553 471.674 985.771 472.418C985.988 473.163 986.09 473.956 986.069 474.752C986.069 481.438 986.069 488.125 985.656 494.811C983.548 551.637 984.461 608.583 988.39 665.246C992.326 722.51 999.602 779.305 1010.15 835.145C1010.15 835.145 1010.15 835.145 1010.15 835.546C1014.08 866.377 1019.68 896.809 1026.92 926.614C1040.58 981.172 1059.41 1033.32 1082.98 1081.87L1128.67 1168.79C1153.13 1216.29 1180.74 1260.92 1211.19 1302.19C1239.57 1340.47 1269.91 1376.21 1302.02 1409.17C1334.4 1442.22 1368.66 1472.05 1404.5 1498.43C1419.47 1509.51 1434.97 1519.34 1450.92 1527.85C1490.66 1548.9 1532.22 1563.65 1574.7 1571.78C1618 1579.85 1661.9 1581.16 1705.44 1575.66C1718.08 1574.59 1730.61 1573.12 1742.94 1571.04C1748.17 1570.18 1753.25 1568.21 1758 1565.23C1773.34 1555.44 1787.86 1543.6 1801.32 1529.92C1836.27 1494.85 1874.98 1466.58 1916.23 1446.01C1943.51 1432.07 1971.87 1421.93 2000.81 1415.79C2001.6 1415.64 2002.4 1415.75 2003.15 1416.1C2003.89 1416.45 2004.56 1417.03 2005.09 1417.79C2026.6 1449.97 2052.32 1476.98 2081.06 1497.56C2118.37 1524.33 2160.46 1537.87 2203.09 1536.81C2245.68 1535.56 2287.73 1524.23 2327.18 1503.38C2366.55 1483.12 2402.19 1452.34 2431.78 1413.04C2461.04 1374.86 2485.22 1330.67 2503.36 1282.26L2543.95 1167.05C2548.34 1146.53 2552.62 1125.93 2557 1105.34C2568.48 1051.25 2577.1 996.204 2582.79 940.589L2583.1 937.179C2583.1 906.087 2583.1 874.26 2583.1 842.701C2583.1 793.556 2581.45 743.743 2578.35 694.666C2575.26 645.588 2570.41 596.243 2564.58 547.566C2558.75 498.89 2550.86 448.208 2541.37 399.531C2531.88 350.855 2520.07 302.044 2506.87 254.371C2493.67 206.697 2478.55 159.425 2462.2 113.222C2453.65 91.8425 2445.96 69.9043 2439.15 47.4957C2423.27 -5.14879 2416.05 -61.5165 2417.95 -117.991C2419.62 -174.058 2430.6 -229 2450.14 -279.065L2450.45 -279.733L2498.87 -371.068C2499.26 -371.761 2499.69 -372.41 2500.16 -373.008C2520.35 -402.07 2542.99 -428.089 2567.68 -450.569C2603.76 -483.769 2644.15 -508.296 2686.92 -522.982L2741.85 -538.628H2742.36C2786.23 -543.606 2830.4 -542.216 2874.03 -534.482C2883.68 -532.878 2893.48 -531.072 2903.17 -529.133H2904.26C2905.08 -529.045 2905.88 -528.701 2906.58 -528.131V-528.131C2907.3 -528.216 2908.03 -528.055 2908.69 -527.663C2909.02 -527.722 2909.35 -527.722 2909.67 -527.663C2946.64 -513.973 2982.6 -496.027 3017.1 -474.038C3055.77 -449.585 3092.27 -419.72 3125.93 -384.976L3132.89 -377.554C3133.17 -377.254 3133.43 -376.918 3133.66 -376.551C3158.82 -334.291 3186.56 -294.714 3216.6 -258.203C3246.23 -222.176 3278.04 -189.264 3311.7 -159.781C3345.62 -130.153 3381.5 -104.489 3418.93 -83.0886C3458.18 -60.5664 3499.73 -45.4575 3542.29 -38.2231C3585.01 -31.0347 3628.29 -31.4396 3670.92 -39.4266C3712.09 -47.2282 3751.96 -63.907 3788.88 -88.7718C3823.89 -112.164 3855.67 -142.939 3882.9 -179.84C3886.3 -184.587 3889.76 -189.535 3893.21 -194.55C3915.36 -239.989 3931.92 -289.614 3942.31 -341.649C3953.04 -396.233 3955.57 -452.986 3949.74 -508.807C3945.86 -545.135 3939.47 -580.938 3930.66 -615.788C3930.46 -616.539 3930.37 -617.333 3930.41 -618.126C3930.45 -618.919 3930.61 -619.693 3930.89 -620.403C3931.16 -621.114 3931.54 -621.746 3932.01 -622.262C3932.47 -622.779 3933.01 -623.169 3933.6 -623.411C3934.18 -623.662 3934.8 -623.76 3935.42 -623.701C3936.03 -623.642 3936.63 -623.426 3937.18 -623.066C3937.73 -622.706 3938.22 -622.208 3938.63 -621.602C3939.03 -620.996 3939.33 -620.293 3939.53 -619.533C3948.51 -583.914 3955.04 -547.329 3959.02 -510.211C3964.98 -452.918 3962.41 -394.676 3951.44 -338.64C3941.53 -289.26 3926.21 -241.976 3905.95 -198.227C3907.71 -198.561 3909.46 -198.695 3911.11 -198.962C3945.22 -204.011 3978.79 -213.923 4011.22 -228.516C4027.8 -236.352 4043.97 -245.553 4059.65 -256.064C4097.14 -280.876 4132.78 -310.154 4166.1 -343.521C4198 -375.637 4228.34 -410.294 4256.92 -447.293C4285.61 -484.412 4312.51 -523.779 4337.48 -565.173C4362.79 -606.294 4385.13 -650.341 4404.22 -696.76C4423.23 -742.465 4439.04 -790.285 4451.46 -839.647C4464.23 -890.393 4473.23 -942.606 4478.33 -995.572C4483.42 -1050.2 4482.74 -1105.47 4476.32 -1159.86C4469.48 -1216.27 4456.58 -1271.16 4438 -1322.93C4421.73 -1368.33 4400.71 -1410.61 4375.54 -1448.57C4347.84 -1490.53 4313.3 -1523.99 4274.41 -1546.53C4239.24 -1566.94 4201.69 -1579.59 4163.31 -1583.97C4177.86 -1542.98 4191.27 -1500.79 4203.03 -1458.33C4217.63 -1404.8 4229.69 -1350.16 4239.13 -1294.72C4247.83 -1243.66 4252.31 -1191.55 4252.49 -1139.26C4252.22 -1083.76 4242.16 -1029.08 4223.09 -979.391C4204.69 -927.935 4178.05 -882.145 4144.95 -845.063C4144.49 -844.536 4143.96 -844.133 4143.38 -843.878C4142.8 -843.623 4142.19 -843.52 4141.58 -843.576C4140.97 -843.632 4140.37 -843.846 4139.83 -844.204C4139.28 -844.563 4138.8 -845.06 4138.4 -845.665C4137.59 -846.881 4137.19 -848.464 4137.27 -850.068C4137.36 -851.672 4137.93 -853.165 4138.87 -854.223C4170.97 -890.234 4196.82 -934.676 4214.68 -984.606C4233.1 -1032.71 4242.84 -1085.62 4243.15 -1139.33C4243.02 -1190.72 4238.59 -1241.95 4229.95 -1292.11C4220.51 -1347.07 4208.45 -1401.23 4193.84 -1454.25C4181.26 -1499.52 4166.92 -1544.59 4151.14 -1587.98V-1588.45C4136.54 -1636.74 4118.82 -1683.36 4098.17 -1727.79C4078.04 -1771.67 4054.84 -1813.06 4028.86 -1851.42C4003.17 -1889.38 3975.08 -1924.49 3944.89 -1956.4C3916.19 -1986.49 3886.05 -2014.18 3854.63 -2039.31L3809.45 -2068.79C3809.14 -2068.97 3808.85 -2069.19 3808.58 -2069.46L3763.14 -2093.27C3721.61 -2111.11 3678.7 -2123.01 3635.18 -2128.77C3596.22 -2133.93 3556.96 -2134.25 3517.95 -2129.71H3515.99C3476.33 -2123.26 3437.14 -2112.64 3398.81 -2097.95C3361.04 -2082.96 3324.4 -2063.51 3289.37 -2039.84C3250.59 -2013.95 3214.05 -1982.79 3180.34 -1946.9C3158.72 -1923.99 3138.78 -1898.54 3120.77 -1870.88L3046.71 -1743.84L3021.9 -1692.82C3021.58 -1692.15 3021.16 -1691.57 3020.66 -1691.11C3020.16 -1690.65 3019.6 -1690.32 3019.01 -1690.14C3018.41 -1689.97 3017.79 -1689.95 3017.19 -1690.09C3016.59 -1690.23 3016.02 -1690.52 3015.5 -1690.95C3014.46 -1691.82 3013.73 -1693.18 3013.46 -1694.74C3013.19 -1696.31 3013.4 -1697.95 3014.06 -1699.31L3035.98 -1744.64C3000.65 -1765.56 2964.08 -1782.8 2926.64 -1796.19C2917.05 -1799.47 2907.4 -1802.88 2897.86 -1806.22H2896.78C2852.95 -1802.73 2810.46 -1785.37 2773 -1755.67C2736.75 -1727.41 2707.02 -1687.04 2686.92 -1638.8C2666.18 -1590.13 2650.12 -1538.35 2639.11 -1484.61C2628.54 -1433.59 2619.1 -1381.71 2611.21 -1330.29C2603.35 -1277.49 2592.47 -1225.53 2578.66 -1174.83C2565.18 -1123.9 2549.19 -1074.14 2530.8 -1025.86C2528.12 -1019.17 2525.64 -1012.49 2523.01 -1005.33C2523.01 -1005.33 2523.01 -1005.33 2523.01 -1004.8C2501.23 -958.966 2477.11 -915.072 2450.81 -873.413C2429.74 -840.196 2407.22 -808.583 2383.35 -778.734C2351.94 -742.065 2317.86 -709.439 2281.59 -681.314C2246.01 -653.471 2208.23 -630.652 2168.9 -613.248C2128.64 -595.458 2087.2 -582.499 2045.12 -574.534C2003.73 -566.526 1961.99 -562.059 1920.15 -561.161C1912 -561.161 1903.75 -560.827 1895.55 -561.161L1969.3 -528.532C1969.93 -528.294 1970.51 -527.882 1971.01 -527.324C1971.5 -526.766 1971.9 -526.076 1972.17 -525.3C1972.44 -524.525 1972.57 -523.684 1972.57 -522.833C1972.56 -521.983 1972.42 -521.144 1972.14 -520.374C1971.94 -519.623 1971.64 -518.928 1971.24 -518.33C1970.84 -517.731 1970.35 -517.241 1969.81 -516.887C1969.26 -516.533 1968.67 -516.322 1968.06 -516.266C1967.45 -516.211 1966.84 -516.312 1966.26 -516.563L1863.11 -562.164C1820.65 -575.489 1776.46 -576.721 1733.6 -565.774C1695.61 -556.213 1660.01 -534.751 1629.88 -503.257C1596.11 -468.623 1567.73 -425.989 1546.23 -377.621C1524.68 -329.536 1511.8 -275.748 1508.58 -220.292C1507.15 -193.523 1507.85 -166.635 1510.69 -140.056C1516.26 -83.2629 1529.47 -28.1783 1549.74 22.6892C1569.6 72.0916 1596.15 116.46 1628.13 153.675C1658.94 189.78 1692.84 221.188 1729.17 247.283C1764.85 272.739 1802.22 293.997 1840.83 310.803C1879.92 328.014 1920.36 339.584 1961.41 345.305C2005.49 351.061 2046.71 376.27 2078.18 416.715C2089.63 431.534 2099.22 448.591 2106.59 467.263C2106.78 467.8 2106.92 468.36 2107.01 468.935C2115.38 526.489 2113.09 585.801 2100.3 641.977C2094.35 669.06 2085.95 695.139 2075.29 719.672C2075.16 720.003 2075 720.317 2074.82 720.609C2046.51 765.763 2013.23 805.277 1976.06 837.887C1940.92 868.977 1902.42 893.154 1861.82 909.631C1841.37 918.136 1820.5 924.838 1799.36 929.69L1798.74 930.024C1798.02 930.484 1797.22 930.692 1796.42 930.626L1623.33 938.048H1622.97C1579.13 936.462 1535.86 924.709 1495.22 903.346C1461.89 885.873 1430.85 861.806 1403.21 832.003C1402.53 831.301 1402.01 830.365 1401.72 829.301C1401.43 828.237 1401.37 827.088 1401.56 825.985C1415.65 749.328 1423.65 671.001 1425.44 592.231C1428.61 483.312 1418.92 374.405 1396.71 269.281C1389.07 232.282 1379.17 196.129 1367.11 161.163C1354.73 125.258 1339.92 90.8445 1322.86 58.3275C1292.27 -0.21198 1256.45 -53.8531 1216.15 -101.476L1199.13 -121.535C1166.56 -159.477 1129.74 -190.811 1089.94 -214.475C1051.1 -237.624 1009.6 -252.373 967.089 -258.137C950.31 -260.544 933.418 -261.393 916.545 -260.677C872.987 -256.54 830.36 -242.271 790.702 -218.553C752.451 -195.973 717.958 -163.951 689.15 -124.276C658.975 -83.082 634.341 -35.6196 616.274 16.1368C598.232 67.6997 589.417 123.884 590.486 180.487C591.385 233.864 599.701 286.594 615.036 336.144C615.655 338.217 616.326 340.357 616.893 342.831C644.938 267.213 656.104 182.931 649.128 99.5155C649.114 98.0061 649.534 96.5439 650.305 95.4133C651.077 94.2826 652.145 93.564 653.302 93.3972C654.46 93.2305 655.623 93.6275 656.567 94.511C657.511 95.3944 658.169 96.7017 658.411 98.1782C666.013 188.366 652.954 279.458 620.864 360.082V360.082L570.94 481.305L570.475 482.174C543.489 527.125 510.252 565.134 472.482 594.237C435.386 622.86 394.278 641.655 351.538 649.533C334.086 652.981 316.478 654.946 298.828 655.417H298.467C253.624 651.846 210.461 631.988 173.913 598.115C168.033 592.498 162.051 586.949 156.016 581.399C124.164 549.224 95.0023 512.807 69.0089 472.746C40.7576 428.994 15.6398 381.995 -6.03307 332.333C-11.1906 320.699 -16.3481 308.864 -21.5057 297.297C-45.9351 250.008 -77.0713 209.167 -113.258 176.943C-145.889 148.016 -182.752 128.08 -221.566 118.371C-264.27 108.025 -307.889 105.571 -351.123 111.083C-394.319 116.44 -437.026 127.097 -478.669 142.91C-520.059 158.625 -560.155 179.588 -598.375 205.494C-635.581 230.835 -669.895 262.743 -700.339 300.306C-731.654 338.646 -757.803 383.506 -777.702 433.029C-797.853 483.111 -813.431 536.068 -824.12 590.827C-833.868 641.777 -841.966 693.997 -848.155 745.682C-854.124 797.571 -857.86 849.849 -859.346 902.276C-860.85 949.567 -860.42 996.928 -858.057 1044.16L-841.295 1336.42C-840.379 1392.15 -847.138 1447.65 -861.254 1500.3C-875.335 1554.54 -898.657 1603.97 -929.488 1644.93C-960.646 1686.8 -997.665 1720.61 -1038.57 1744.55H-1038.88C-1081.19 1764.75 -1125.79 1775.71 -1170.86 1776.98C-1211.4 1777.84 -1251.83 1771.36 -1290.98 1757.72C-1332.51 1745.7 -1372.61 1726.54 -1410.22 1700.76C-1415.38 1697.15 -1420.54 1693.6 -1425.69 1690.19L-1426.31 1689.66C-1457.98 1660.37 -1490.16 1630.08 -1521.99 1599.53C-1553.94 1568.88 -1587.96 1542.02 -1623.64 1519.29C-1659.95 1496.05 -1697.72 1476.85 -1736.54 1461.92C-1776.26 1446.55 -1817.07 1436.38 -1858.36 1431.57C-1887.27 1428.12 -1916.32 1427.25 -1945.32 1428.96C-2027.91 1436.63 -2106.44 1478.44 -2169.36 1548.24C-2198.08 1592.41 -2230.15 1632.73 -2265.08 1668.6C-2296.07 1700.5 -2329.37 1728.42 -2364.52 1751.97C-2398.11 1774.71 -2432.73 1794.81 -2468.19 1812.15L-2515.69 1835.55C-2556.65 1854.15 -2598.54 1869.09 -2641.07 1880.29C-2674.74 1888.84 -2709.04 1895.4 -2743.18 1899.81C-2769.33 1905.56 -2795.74 1911.51 -2821.89 1917.46C-2861.24 1926.35 -2901.16 1935.58 -2940.51 1944.88L-3041.55 1969.68C-3080.59 1979.31 -3120.41 1987.53 -3159.81 1994.22C-3185.6 1998.5 -3212.37 2002.18 -3238.93 2005.19L-3468.18 2028.72L-4037.62 2088.5L-4107.2 2093.78L-4111.01 2094.25C-4133.76 2097.06 -4156.97 2099.13 -4180.28 2100.93C-4203.59 2102.74 -4225.97 2103.94 -4247.33 2105.61C-4268.68 2107.29 -4289.31 2109.23 -4308.75 2111.03C-4328.55 2112.82 -4348.4 2113.05 -4368.22 2111.7V2111.7C-4382 2109.76 -4395.9 2113.3 -4408.09 2121.86L-4408.24 2121.33ZM-4416.6 2115.58C-4415.51 2114.01 -4414.26 2112.63 -4412.88 2111.5V2111.5C-4399.08 2101.63 -4383.26 2097.56 -4367.6 2099.86C-4348.2 2101.12 -4328.75 2100.88 -4309.37 2099.13C-4289.93 2097.32 -4269.25 2095.52 -4247.89 2093.78C-4226.54 2092.04 -4204.16 2090.37 -4180.85 2089.03C-4157.53 2087.7 -4134.43 2085.49 -4112.04 2082.81L-4108.33 2082.28H-4107.92L-4038.45 2076.93L-3469.06 2016.55L-3239.86 1993.22C-3213.4 1990.14 -3186.99 1986.53 -3161.15 1982.25C-3121.95 1975.57 -3082.34 1967.41 -3043.46 1957.85L-2942.32 1933.04C-2902.91 1923.61 -2862.94 1914.39 -2823.69 1905.56C-2797.6 1899.54 -2771.04 1893.59 -2744.89 1887.84C-2744.89 1887.84 -2744.78 1887.84 -2744.58 1887.84C-2710.64 1883.43 -2676.5 1876.88 -2643.18 1868.38C-2601.2 1857.33 -2559.84 1842.59 -2519.4 1824.25C-2503.46 1816.36 -2487.47 1808.41 -2471.8 1800.78C-2436.73 1783.64 -2402.47 1763.81 -2369.21 1741.41C-2334.55 1718.3 -2301.73 1690.82 -2271.22 1659.37C-2236.67 1623.91 -2205 1583.99 -2176.68 1540.22C-2176.48 1539.99 -2176.29 1539.75 -2176.11 1539.48C-2111.59 1467.7 -2030.95 1424.77 -1946.14 1417.06C-1916.66 1415.26 -1887.13 1416.11 -1857.74 1419.6C-1815.98 1424.61 -1774.7 1435 -1734.53 1450.62C-1695.17 1465.7 -1656.9 1485.17 -1620.13 1508.79C-1583.91 1531.86 -1549.38 1559.17 -1516.98 1590.37C-1485.37 1620.72 -1453.29 1650.54 -1421.77 1680.1C-1416.62 1683.57 -1411.46 1686.78 -1406.3 1690.66C-1369.38 1715.94 -1330.03 1734.71 -1289.28 1746.49C-1250.9 1759.87 -1211.27 1766.22 -1171.53 1765.35C-1127.5 1764.2 -1083.92 1753.53 -1042.59 1733.79C-1002.82 1710.49 -966.819 1677.61 -936.503 1636.9C-906.626 1597.25 -884.041 1549.37 -870.435 1496.82C-856.665 1445.55 -850.063 1391.5 -850.939 1337.22L-867.701 1045.23C-870.055 997.507 -870.503 949.658 -869.042 901.875C-867.409 849.106 -863.535 796.494 -857.438 744.278C-851.197 692.058 -843.049 639.637 -833.249 588.286C-822.344 532.596 -806.472 478.742 -785.955 427.814C-765.631 377.124 -738.907 331.201 -706.89 291.948C-675.834 253.613 -640.824 221.052 -602.862 195.197C-564.104 168.894 -523.438 147.617 -481.454 131.677C-439.248 115.683 -395.975 104.871 -352.207 99.3816C-308.028 93.743 -263.457 96.2189 -219.813 106.736C-179.726 116.666 -141.635 137.147 -107.894 166.913C-70.7099 200.052 -38.6878 241.997 -13.5115 290.544C-8.09614 302.245 -2.78389 314.28 1.96104 326.048C23.3958 375.045 48.2195 421.416 76.1263 464.589C101.473 504.054 129.982 539.916 161.174 571.57C167.105 576.919 172.985 582.536 178.967 588.085C213.98 620.637 255.361 639.733 298.364 643.181C315.633 642.694 332.86 640.774 349.939 637.431C391.467 629.793 431.426 611.616 467.531 583.94C504.198 555.734 536.5 518.935 562.791 475.421L611.478 357.207C609.827 351.791 608.228 346.375 606.32 340.892C590.616 290.008 582.091 235.88 581.151 181.088C579.933 122.653 588.98 64.6237 607.61 11.3893C626.056 -41.874 651.324 -90.7051 682.342 -133.035C711.968 -173.84 747.442 -206.77 786.782 -229.987C827.51 -254.455 871.314 -269.179 916.081 -273.448C933.436 -274.245 950.813 -273.374 968.069 -270.84C1011.61 -264.966 1054.1 -249.854 1093.86 -226.109C1134.51 -201.958 1172.09 -169.945 1205.32 -131.163C1211.09 -124.477 1216.87 -117.79 1222.49 -111.104C1263.37 -62.85 1299.73 -8.51664 1330.8 50.7719C1348.16 83.8825 1363.23 118.922 1375.82 155.48C1388.09 191.062 1398.18 227.838 1405.99 265.47C1428.5 371.758 1438.33 481.887 1435.13 592.03C1433.29 670.285 1425.39 748.102 1411.56 824.313C1437.92 852.153 1467.35 874.694 1498.88 891.177C1538.48 911.975 1580.63 923.454 1623.33 925.076L1795.8 917.721H1796.42L1797.45 917.387C1818.42 912.584 1839.1 905.881 1859.34 897.328C1899.08 881.19 1936.75 857.532 1971.16 827.122C2007.45 795.238 2039.98 756.678 2067.71 712.652C2077.91 689.012 2085.95 663.9 2091.64 637.832C2103.98 583.75 2106.24 526.644 2098.24 471.208C2091.4 453.929 2082.53 438.138 2071.93 424.404C2041.79 386.15 2002.43 362.476 1960.43 357.34C1918.78 351.649 1877.74 340.057 1838.04 322.772C1798.81 305.76 1760.83 284.21 1724.58 258.382C1687.68 231.69 1653.24 199.635 1621.94 162.835C1589.12 124.709 1561.9 79.1996 1541.59 28.5063C1520.79 -23.5873 1507.21 -80.0058 1501.46 -138.184C1498.53 -165.695 1497.83 -193.526 1499.35 -221.228C1502.67 -278.491 1515.95 -334.037 1538.18 -383.706C1560.27 -433.365 1589.42 -477.134 1624.11 -512.685C1655.39 -545.411 1692.38 -567.702 1731.85 -577.609C1775.93 -589.034 1821.4 -587.916 1865.12 -574.333C1883.38 -573.196 1901.84 -572.795 1919.94 -573.13C1961.38 -574.193 2002.72 -578.66 2043.72 -586.502C2085.19 -594.446 2126.02 -607.27 2165.7 -624.815C2204.42 -641.873 2241.62 -664.29 2276.64 -691.678C2312.45 -719.278 2346.1 -751.346 2377.11 -787.426C2400.67 -816.92 2422.89 -848.176 2443.64 -881.035C2469.67 -922.209 2493.54 -965.612 2515.07 -1010.95C2517.65 -1017.64 2520.23 -1024.32 2522.86 -1031.01C2541.08 -1078.79 2556.96 -1128.01 2570.41 -1178.38C2584.07 -1228.52 2594.81 -1279.93 2602.54 -1332.16C2610.54 -1383.85 2620.03 -1436.07 2630.7 -1487.28C2641.84 -1541.94 2658.11 -1594.62 2679.13 -1644.15C2700.03 -1694.24 2730.92 -1736.15 2768.56 -1765.5C2807.3 -1796.31 2851.27 -1814.34 2896.62 -1817.99H2897.5C2897.84 -1818.06 2898.19 -1818.06 2898.53 -1817.99H2899.72H2900.34L2929.37 -1807.83C2967.83 -1794.11 3005.36 -1776.38 3041.6 -1754.8L3113.81 -1878.5C3132.26 -1906.82 3152.68 -1932.87 3174.82 -1956.33C3209 -1992.72 3246.04 -2024.32 3285.35 -2050.61C3320.91 -2074.64 3358.12 -2094.36 3396.49 -2109.51C3435.28 -2124.47 3474.96 -2135.25 3515.11 -2141.74H3517.23C3556.84 -2146.38 3596.7 -2146.07 3636.26 -2140.81C3680.49 -2134.94 3724.09 -2122.84 3766.29 -2104.7H3766.6L3813.01 -2080.56L3814.41 -2079.49L3859.22 -2050.14H3859.59C3891.3 -2024.67 3921.74 -1996.62 3950.72 -1966.16C3981.29 -1933.8 4009.73 -1898.22 4035.77 -1859.78C4062.19 -1820.94 4085.81 -1779.05 4106.32 -1734.61C4126.71 -1690.55 4144.3 -1644.42 4158.93 -1596.67C4200.11 -1592.65 4240.45 -1579.44 4278.17 -1557.62C4318.29 -1534.3 4353.93 -1499.72 4382.51 -1456.39C4408.31 -1417.54 4429.82 -1374.22 4446.41 -1327.68C4465.37 -1274.88 4478.56 -1218.91 4485.61 -1161.39C4492.06 -1105.86 4492.72 -1049.46 4487.57 -993.7C4482.45 -940.121 4473.39 -887.302 4460.49 -835.969C4447.94 -785.91 4431.94 -737.417 4412.68 -691.076C4393.32 -643.915 4370.67 -599.153 4345.01 -557.35C4319.85 -515.551 4292.7 -475.824 4263.73 -438.4C4234.79 -401.095 4204.09 -366.148 4171.82 -333.759C4138.1 -299.965 4102.01 -270.327 4064.03 -245.232C4047.98 -234.431 4031.41 -225.005 4014.41 -217.016C3981.3 -202.01 3947 -191.873 3912.14 -186.793L3899.14 -184.988C3896 -180.375 3892.85 -175.895 3889.65 -171.615C3861.69 -133.727 3829.08 -102.098 3793.16 -78.0069C3755.31 -52.502 3714.43 -35.4151 3672.21 -27.4582C3628.73 -19.2373 3584.58 -18.8324 3541.01 -26.2548C3497.54 -33.5674 3455.13 -48.9707 3415.06 -71.989C3377.12 -93.6822 3340.74 -119.682 3306.34 -149.684C3272.26 -179.619 3240.03 -212.951 3209.94 -249.378C3179.72 -286.252 3151.77 -326.134 3126.34 -368.661L3119.74 -375.348C3086.64 -409.5 3050.75 -438.85 3012.72 -462.872C2978.8 -484.321 2943.47 -501.797 2907.14 -515.092H2906.58C2905.58 -515.063 2904.59 -515.411 2903.74 -516.095H2903.33H2902.04H2901.63C2892.08 -517.967 2882.29 -519.839 2872.59 -521.31C2829.75 -528.985 2786.38 -530.421 2743.29 -525.59L2689.03 -510.813C2647.46 -496.582 2608.19 -472.803 2573.09 -440.606C2548.68 -418.392 2526.31 -392.639 2506.4 -363.847L2458.39 -273.181C2439.58 -224.75 2429.02 -171.641 2427.44 -117.456C2425.61 -62.6854 2432.64 -8.02395 2448.07 43.0159C2454.67 65.0533 2462.14 86.6342 2470.46 107.673C2487.01 154.477 2502.12 202.218 2515.48 249.958C2528.84 297.698 2540.55 347.311 2550.24 396.321C2559.94 445.332 2567.78 495.613 2573.66 545.56C2579.54 595.507 2583.97 644.451 2587.48 693.663C2590.99 742.874 2592.23 793.289 2592.28 842.701C2592.54 874.327 2592.59 906.288 2592.28 937.647C2592.28 937.647 2592.28 938.115 2592.28 938.382L2591.97 942.126C2586.09 998.287 2577.36 1053.88 2565.82 1108.55C2561.38 1129.28 2556.98 1150.03 2552.62 1170.8C2552.59 1171.09 2552.59 1171.38 2552.62 1171.67L2511.82 1287.48C2493.21 1337.08 2468.48 1382.41 2438.58 1421.67C2408.07 1462.11 2371.35 1493.8 2330.79 1514.68C2290.28 1536.03 2247.12 1547.63 2203.4 1548.91C2159.12 1550.02 2115.4 1535.99 2076.63 1508.26C2047.7 1487.42 2021.75 1460.28 1999.94 1428.02C1972.5 1434.11 1945.61 1443.81 1919.68 1456.97C1879.26 1477.14 1841.32 1504.87 1807.1 1539.28C1793.12 1553.45 1778.04 1565.7 1762.12 1575.86C1756.45 1579.36 1750.37 1581.62 1744.12 1582.54C1731.59 1584.62 1718.85 1586.15 1706.27 1587.22C1662.03 1592.77 1617.45 1591.44 1573.46 1583.28C1530.18 1575.06 1487.84 1560.04 1447.36 1538.55C1431.04 1529.87 1415.17 1519.82 1399.86 1508.46C1363.71 1481.91 1329.16 1451.87 1296.5 1418.59C1264.04 1385.33 1233.38 1349.2 1204.75 1310.48C1185.33 1284.24 1167.04 1256.63 1149.98 1227.77C1159.56 1259 1167.08 1291.23 1172.46 1324.12C1181.84 1380.98 1184.07 1439.44 1179.06 1497.23C1174.29 1553.2 1163.28 1607.97 1146.36 1659.84C1129.04 1712.27 1103.44 1759.41 1071.22 1798.24C1038.75 1837.48 1000.48 1867.77 958.734 1887.31C915.88 1907.72 869.667 1913.32 824.638 1903.55C780.829 1894.45 740.388 1867.52 709.161 1826.66C681.61 1791.4 656.016 1753.67 632.572 1713.73C608.112 1669.76 578.391 1631.14 544.533 1599.33C527.816 1583.65 510.015 1570.02 491.359 1558.61C478.671 1567.34 467.312 1578.98 457.835 1592.97C435.009 1627.12 422.479 1670.82 422.557 1716C422.134 1751.66 426.515 1787.14 435.503 1820.84C435.685 1821.58 435.789 1822.34 435.812 1823.12C433.704 1881.62 421.132 1938.69 399.091 1989.81C378.087 2039.02 347.41 2080.16 310.175 2109.02C272.065 2138.88 230.146 2159.67 186.394 2170.41C143.116 2181.36 98.3795 2177.44 56.6307 2159.04C16.3407 2141.45 -20.5863 2112.91 -51.6774 2075.33C-84.1336 2036.29 -111.943 1991.22 -134.198 1941.6C-140.851 1926.82 -146.988 1911.51 -152.507 1895.86C-162.124 1948.07 -175.613 1998.94 -192.787 2047.78C-199.337 2064.69 -205.887 2081.21 -212.541 2098.39C-212.631 2098.7 -212.752 2098.99 -212.902 2099.26C-237.706 2142.91 -267.236 2181.69 -300.58 2214.4C-335.729 2249.16 -375.324 2275.61 -417.552 2292.56C-458.088 2309.11 -500.078 2318.93 -542.519 2321.78C-581.846 2324.68 -621.297 2322.62 -660.317 2315.63C-702.576 2308.33 -743.988 2294.37 -783.634 2274.04C-816.384 2257.07 -850.398 2244.52 -885.134 2236.6C-959.992 2227.44 -1035.51 2236.17 -1107.94 2262.34C-1147.62 2276.83 -1185.2 2299.64 -1219.19 2329.87C-1255.1 2361.57 -1285.98 2401.9 -1310.17 2448.69C-1327.8 2484.53 -1346.27 2521.17 -1364.32 2557.28C-1366.64 2561.22 -1369.47 2564.61 -1372.68 2567.31C-1406.49 2595.12 -1444.06 2614.36 -1483.41 2624.01C-1570.88 2645.18 -1661.19 2633.59 -1743.76 2590.57C-1783.17 2570.24 -1820.43 2543.51 -1854.65 2511.01L-1871.2 2495.23C-1906.98 2463.73 -1939.17 2425.87 -1966.82 2382.76C-1973.89 2371.66 -1981.01 2360.63 -1988.12 2349.33L-2055.17 2326.26L-2055.94 2325.86H-2056.67C-2095.09 2314.36 -2134.03 2304.47 -2173.07 2296.51C-2212.11 2288.55 -2250.85 2282.2 -2289.89 2278.19C-2327.38 2274.24 -2365.5 2271.5 -2402.99 2270.5L-2437.5 2269.83L-2657.57 2268.49L-3222.27 2233.72L-3439.97 2222.16L-4033.65 2192.8H-4034.58L-4155.01 2187.12H-4155.78C-4156.31 2187.23 -4156.85 2187.23 -4157.38 2187.12C-4169.96 2186.19 -4182.75 2185.32 -4195.6 2184.58C-4218.13 2183.24 -4241.14 2182.11 -4263.88 2181.24C-4286.63 2180.37 -4309.42 2180.1 -4331.81 2180.37C-4355.33 2180.62 -4378.77 2176.59 -4401.43 2168.4C-4405.26 2167.15 -4408.8 2164.72 -4411.75 2161.31C-4416.36 2156.53 -4419.65 2149.93 -4421.13 2142.52C-4422.6 2135.11 -4422.19 2127.27 -4419.95 2120.19C-4419.93 2119.99 -4419.93 2119.79 -4419.95 2119.59C-4419.24 2117.77 -4418.33 2116.08 -4417.27 2114.57" fill="white"/>
</g>
<g style="mix-blend-mode:soft-light" opacity="0.58">
<path d="M2126.09 475.889C2126.09 475.889 2126.09 475.889 2126.09 475.421L2106.8 387.562L2092.67 338.284C2087.51 321.635 2082.1 305.521 2076.42 290.276L2066.78 265.47C2063.79 258.382 2060.28 249.957 2056.15 240.463C2048.83 224.081 2040.68 207.7 2031.86 191.385L2008.24 151.802L1988.9 125.057C1983.48 118.37 1978.22 111.684 1973.07 105.867L1954.86 86.5438L1940.52 73.5723C1936.19 69.5605 1930.88 65.2813 1924.58 60.1997L1916.69 54.6499L1915.4 54.1818L1905.09 47.4955L1891.47 39.7395L1862.75 26.9684H1862.18L1838.97 20.2821H1837.63C1837.63 20.2821 1837.32 20.2821 1837.63 20.2821C1837.94 20.2821 1837.63 20.2821 1837.63 20.2821L1856.76 29.1081C1863.83 32.585 1870.95 36.5966 1878.27 41.0764L1882.86 44.0184L1883.79 44.4196L1901.38 56.7226L1921.23 72.8365L1949.55 100.518C1955.27 107.204 1960.33 112.687 1964.61 117.969L1993.7 157.686C1997.82 163.904 2002.46 171.059 2007.57 179.35L2020.46 202.284C2029.18 218.198 2037.23 233.977 2044.6 249.824L2063.68 293.352L2094.63 376.53L2125.78 475.421C2125.78 475.421 2125.78 475.421 2126.09 475.421" fill="white"/>
</g>
<g style="mix-blend-mode:soft-light" opacity="0.58">
<path d="M1309.03 322.237L1308.62 323.641L1295.57 383.818L1286.5 448.541C1284.88 464.722 1283.8 480.547 1283.25 496.014V544.758V545.56L1284.12 561.875V562.744L1287.73 599.853C1288.97 609.013 1290.36 617.706 1292.07 625.93L1294.49 638.834L1304.03 676.01C1306.51 683.9 1309.19 691.723 1312.13 699.212L1316.56 710.311L1317.23 711.648L1317.75 712.986L1330.08 738.059L1330.49 738.728V739.33L1352.41 773.631C1358.9 782.273 1365.79 790.401 1373.04 797.969L1385.31 810.071L1405.94 827.121V826.787L1380.72 798.036L1358.96 767.413L1348.95 750.429L1348.33 749.493L1339.67 732.711C1336.01 724.821 1333.07 718.335 1330.95 713.32L1323.01 692.191C1319.97 683.499 1317.54 676.077 1315.84 669.792L1308.67 641.776L1301.71 603.129V601.525L1301.35 599.987L1296.19 544.624V543.019L1295.21 496.549C1295.42 481.706 1295.9 466.104 1296.66 449.745L1297.28 440.183V438.78L1308.88 321.969C1308.88 321.635 1308.88 321.568 1308.88 321.635C1308.88 321.702 1308.52 321.635 1308.88 321.635" fill="white"/>
</g>
<g style="mix-blend-mode:soft-light" opacity="0.58">
<path d="M286.606 1497.63C286.606 1497.63 286.606 1497.96 286.606 1497.63C286.606 1497.29 286.606 1497.63 286.606 1497.63L294.342 1399.74L294.91 1372.66C294.91 1351.8 294.497 1331.47 293.569 1311.81L285.626 1222.02L283.666 1208.64C281.913 1196.81 279.798 1184.84 277.529 1172.54L269.999 1136.3C267.111 1124.19 264.222 1112.23 261.025 1100.39L245.036 1047.57C242.716 1040.01 240.807 1034.2 239.26 1030.39L223.787 989.131L194.751 924.875L166.951 872.789L130.333 814.685L129.508 813.682L128.889 812.545L94.7976 766.944L93.4052 765.406C93.4052 765.072 93.4051 765.072 93.1472 765.406C92.8893 765.741 93.1472 765.406 93.1472 765.808L94.2304 767.546C95.004 768.95 96.1385 770.689 97.4795 772.694L137.296 839.558L149.829 862.425L180.774 924.14L217.701 1013.2L232.039 1054.79L247.512 1106.68C251.294 1120.72 254.234 1132.46 256.331 1141.91L268.967 1203.7C269.741 1207.51 270.257 1210.38 270.515 1212.45L278.096 1264.07L285.626 1345.85L286.864 1372.99C287.277 1382.22 287.534 1391.11 287.586 1399.74L286.606 1497.63Z" fill="white"/>
</g>
<g style="mix-blend-mode:soft-light" opacity="0.58">
<path d="M486.77 1206.44L486.358 1207.57L469.699 1245.62L469.338 1246.69L465.676 1253.37V1253.84L465.367 1254.31L461.756 1261C455.774 1271.69 449.739 1281.59 443.55 1290.88L412.296 1332.94L376.193 1372.12L330.652 1413.18C330.291 1413.18 330.291 1413.18 330.652 1413.65C331.013 1414.11 330.652 1413.65 330.652 1413.65L356.44 1394.26C364.589 1387.57 372.841 1380.88 381.247 1373.13L403.786 1351.53L427.923 1324.78C435.04 1316.36 442.158 1307.27 449.12 1297.37L449.739 1296.43L450.513 1295.63L473.051 1259.86L484.553 1237.66C484.882 1237 485.175 1236.31 485.429 1235.59L499.974 1201.22C504.357 1188.78 508.174 1176.68 511.423 1164.71L519.005 1129.28L519.366 1126.74C521.479 1113.89 522.995 1100.9 523.905 1087.82C524.82 1074.77 525.216 1061.67 525.091 1048.57C524.959 1035.47 524.288 1022.39 523.079 1009.39C522.151 997.689 520.604 984.718 518.438 970.609C516.529 958.975 514.157 946.271 511.217 932.698C508.466 920.484 505.441 908.36 502.14 896.324C502.127 896.592 502.127 896.86 502.14 897.127L501.779 895.455C501.961 895.837 502.116 896.24 502.243 896.659C501.572 890.44 500.953 882.952 500.438 874.193L499.974 856.541V853.532V852.128L500.592 835.144L504.925 795.026L512.197 757.516L527.051 704.36L536.644 677.146C536.897 676.203 537.208 675.286 537.572 674.405L556.603 628.136L581.772 575.715L608.539 526.437L619.731 507.046L642.94 469.202C650.109 457.634 658.103 445.265 666.82 432.159L719.942 355.668L795.19 255.841C795.19 255.841 795.19 255.506 794.933 255.841L712.412 354.799L635.049 461.245L593.789 527.573L568.981 572.238L541.337 629.205C540.873 630.342 540.46 631.211 540.151 631.813L521.429 678.082C521.138 678.996 520.811 679.888 520.449 680.757L514.054 699.011L500.335 746.684L492.753 782.723L487.957 817.894L486.1 850.523C486.1 859.081 486.1 867.506 486.461 875.597C486.822 883.687 487.75 892.847 488.627 900.47L488.937 902.208C492.805 916.183 495.848 928.084 498.117 938.248C501.005 950.818 503.274 962.987 505.337 974.822C507.4 986.657 509.051 999.294 510.237 1012C511.423 1024.7 512.145 1036.27 512.455 1049.57V1051.31L511.681 1087.22C510.969 1099.72 509.713 1112.15 507.916 1124.46L500.902 1160.97C497.976 1172.98 494.532 1184.76 490.587 1196.27L486.77 1206.44Z" fill="white"/>
</g>
</g>
</svg>
